#N canvas 443 70 922 666 10;
#X obj 8 38 metro 100;
#X obj 8 18 tgl 15 0 empty empty empty 17 7 0 10 -262144 -1 -1 0 1
;
#X obj 8 61 f 0;
#X obj 39 61 + 1;
#X obj 8 84 mod 2;
#X obj 8 107 sig~;
#X obj 8 163 *~;
#X obj 23 134 osc~ 2500;
#X obj 91 178 dac~;
#X floatatom 42 113 5 0 0 0 - - -;
#X floatatom 56 17 5 0 0 0 - - -;
#X obj 99 17 osc~ 350;
#X obj 113 38 osc~ 440;
#X obj 98 86 +~;
#X msg 113 108 0;
#N canvas 765 189 450 300 tline 0;
#X obj 8 10 inlet~;
#X obj 10 260 outlet~;
#X obj 8 33 clip~ -0.9 0.9;
#X obj 8 56 bp~ 2000 12;
#X obj 8 107 *~ 0.5;
#X obj 8 130 bp~ 400 3;
#X obj 90 106 clip~ -0.4 0.4;
#X obj 90 129 *~ 0.15;
#X obj 9 182 hip~ 90;
#X obj 9 205 hip~ 90;
#X connect 0 0 2 0;
#X connect 2 0 3 0;
#X connect 3 0 4 0;
#X connect 3 0 6 0;
#X connect 4 0 5 0;
#X connect 5 0 8 0;
#X connect 6 0 7 0;
#X connect 7 0 8 0;
#X connect 8 0 9 0;
#X connect 9 0 1 0;
#X restore 98 152 pd tline;
#X msg 143 108 1;
#X obj 99 129 *~;
#X obj 272 40 loadbang;
#X obj 272 63 metro 1000;
#X obj 272 86 f;
#X obj 314 87 + 1;
#X obj 272 109 mod 6;
#X obj 272 132 > 2;
#X obj 272 155 sig~;
#X obj 272 178 lop~ 100;
#X obj 272 226 *~;
#X obj 193 85 osc~ 480;
#X obj 205 115 osc~ 440;
#X obj 194 159 +~;
#X obj 272 249 *~;
#X obj 330 182 tgl 15 0 empty empty empty 17 7 0 10 -262144 -1 -1 0
1;
#N canvas 765 189 450 300 tline 0;
#X obj 8 10 inlet~;
#X obj 10 260 outlet~;
#X obj 8 33 clip~ -0.9 0.9;
#X obj 8 56 bp~ 2000 12;
#X obj 8 107 *~ 0.5;
#X obj 8 130 bp~ 400 3;
#X obj 90 106 clip~ -0.4 0.4;
#X obj 90 129 *~ 0.15;
#X obj 9 182 hip~ 90;
#X obj 9 205 hip~ 90;
#X connect 0 0 2 0;
#X connect 2 0 3 0;
#X connect 3 0 4 0;
#X connect 3 0 6 0;
#X connect 4 0 5 0;
#X connect 5 0 8 0;
#X connect 6 0 7 0;
#X connect 7 0 8 0;
#X connect 8 0 9 0;
#X connect 9 0 1 0;
#X restore 262 279 pd tline;
#X obj 255 298 dac~;
#X obj 331 45 tgl 15 0 empty empty empty 17 7 0 10 -262144 -1 -1 0
1;
#X obj 357 29 osc~ 480;
#X obj 386 56 osc~ 620;
#X obj 358 90 +~;
#X obj 448 18 osc~ 2;
#X obj 448 41 *~ 10000;
#X obj 448 64 clip~ 0 1;
#X obj 448 87 lop~ 100;
#X obj 358 113 *~;
#X obj 352 252 dac~;
#N canvas 765 189 450 300 tline 0;
#X obj 8 10 inlet~;
#X obj 10 260 outlet~;
#X obj 8 33 clip~ -0.9 0.9;
#X obj 8 56 bp~ 2000 12;
#X obj 8 107 *~ 0.5;
#X obj 8 130 bp~ 400 3;
#X obj 90 106 clip~ -0.4 0.4;
#X obj 90 129 *~ 0.15;
#X obj 9 182 hip~ 90;
#X obj 9 205 hip~ 90;
#X connect 0 0 2 0;
#X connect 2 0 3 0;
#X connect 3 0 4 0;
#X connect 3 0 6 0;
#X connect 4 0 5 0;
#X connect 5 0 8 0;
#X connect 6 0 7 0;
#X connect 7 0 8 0;
#X connect 8 0 9 0;
#X connect 9 0 1 0;
#X restore 355 152 pd tline;
#X obj 364 221 *~ 1;
#X obj 392 191 tgl 15 0 empty empty empty 17 7 0 10 -262144 -1 -1 0
1;
#X obj 14 242 t b f;
#X msg 11 211 1;
#X msg 44 211 5;
#X msg 79 212 7;
#X obj 51 274 * 100;
#X obj 51 297 delay;
#X msg 44 349 0;
#X msg 14 348 1;
#X obj 14 370 metro 100;
#X obj 14 393 t b b;
#X obj 14 457 + 1;
#X obj 40 416 del 40;
#X obj 15 478 sig~;
#N canvas 765 189 450 300 tline 0;
#X obj 8 10 inlet~;
#X obj 10 260 outlet~;
#X obj 8 33 clip~ -0.9 0.9;
#X obj 8 56 bp~ 2000 12;
#X obj 8 107 *~ 0.5;
#X obj 8 130 bp~ 400 3;
#X obj 90 106 clip~ -0.4 0.4;
#X obj 90 129 *~ 0.15;
#X obj 9 182 hip~ 90;
#X obj 9 205 hip~ 90;
#X connect 0 0 2 0;
#X connect 2 0 3 0;
#X connect 3 0 4 0;
#X connect 3 0 6 0;
#X connect 4 0 5 0;
#X connect 5 0 8 0;
#X connect 6 0 7 0;
#X connect 7 0 8 0;
#X connect 8 0 9 0;
#X connect 9 0 1 0;
#X restore 14 501 pd tline;
#X obj 16 578 dac~;
#X obj 55 456 == 0;
#X obj 14 523 *~ 1;
#X obj 198 376 unpack f f;
#X obj 198 399 osc~;
#X obj 255 399 osc~;
#X obj 322 428 line~;
#X msg 320 356 0 1;
#X msg 360 355 1 1;
#X obj 198 489 +~;
#X obj 198 512 *~;
#X obj 198 588 dac~;
#X msg 197 341 200 250;
#X obj 197 535 *~ 0.4;
#X msg 257 341 1209 697;
#X obj 526 279 osc~ 2;
#X obj 525 302 *~ 1e+06;
#X obj 525 348 lop~ 70;
#X obj 460 294 osc~ 800;
#X obj 480 384 *~;
#X obj 480 430 dac~;
#X obj 525 323 clip~ 0 1;
#X obj 480 407 *~ 0.1;
#X floatatom 472 206 5 0 0 0 - - -;
#X floatatom 547 217 5 0 0 0 - - -;
#X connect 0 0 2 0;
#X connect 1 0 0 0;
#X connect 2 0 3 0;
#X connect 2 0 4 0;
#X connect 3 0 2 1;
#X connect 4 0 5 0;
#X connect 5 0 6 0;
#X connect 6 0 15 0;
#X connect 7 0 6 1;
#X connect 9 0 7 0;
#X connect 10 0 0 1;
#X connect 11 0 13 0;
#X connect 12 0 13 1;
#X connect 13 0 17 0;
#X connect 14 0 17 1;
#X connect 15 0 8 0;
#X connect 15 0 8 1;
#X connect 16 0 17 1;
#X connect 17 0 15 0;
#X connect 18 0 19 0;
#X connect 19 0 20 0;
#X connect 20 0 22 0;
#X connect 21 0 20 1;
#X connect 22 0 21 0;
#X connect 22 0 23 0;
#X connect 23 0 24 0;
#X connect 24 0 25 0;
#X connect 25 0 26 1;
#X connect 26 0 30 0;
#X connect 27 0 29 0;
#X connect 28 0 29 1;
#X connect 29 0 26 0;
#X connect 30 0 32 0;
#X connect 31 0 30 1;
#X connect 32 0 33 1;
#X connect 32 0 33 0;
#X connect 34 0 19 0;
#X connect 35 0 37 0;
#X connect 36 0 37 1;
#X connect 37 0 42 0;
#X connect 38 0 39 0;
#X connect 39 0 40 0;
#X connect 40 0 41 0;
#X connect 41 0 42 1;
#X connect 42 0 44 0;
#X connect 44 0 45 0;
#X connect 45 0 43 0;
#X connect 45 0 43 1;
#X connect 46 0 45 1;
#X connect 47 0 54 0;
#X connect 47 1 51 0;
#X connect 48 0 47 0;
#X connect 49 0 47 0;
#X connect 50 0 47 0;
#X connect 51 0 52 0;
#X connect 52 0 53 0;
#X connect 53 0 55 0;
#X connect 54 0 55 0;
#X connect 55 0 56 0;
#X connect 56 0 57 0;
#X connect 56 1 58 0;
#X connect 57 0 59 0;
#X connect 57 0 62 0;
#X connect 58 0 57 0;
#X connect 59 0 60 0;
#X connect 60 0 63 0;
#X connect 62 0 57 1;
#X connect 63 0 61 0;
#X connect 63 0 61 1;
#X connect 64 0 65 0;
#X connect 64 1 66 0;
#X connect 65 0 70 0;
#X connect 66 0 70 1;
#X connect 67 0 71 1;
#X connect 68 0 67 0;
#X connect 69 0 67 0;
#X connect 70 0 71 0;
#X connect 71 0 74 0;
#X connect 73 0 64 0;
#X connect 74 0 72 0;
#X connect 74 0 72 1;
#X connect 75 0 64 0;
#X connect 76 0 77 0;
#X connect 77 0 82 0;
#X connect 78 0 80 1;
#X connect 79 0 80 0;
#X connect 80 0 83 0;
#X connect 82 0 78 0;
#X connect 83 0 81 0;
#X connect 83 0 81 1;
#X connect 84 0 79 0;
#X connect 85 0 76 0;
