#N canvas 31 103 1290 613 10;
#X obj 40 525 dac~;
#X obj 45 488 *~ 0.4;
#X floatatom 96 359 0 0 0 0 - - -;
#X obj 97 336 dbtorms;
#X floatatom 100 313 0 0 160 0 - - -;
#X obj 160 288 vu 15 120 empty empty -1 -8 0 10 -66577 -1 1 0;
#X obj 160 244 - 100;
#X obj 160 223 env~;
#X floatatom 160 266 5 0 0 0 - - -;
#X floatatom 137 425 5 0 0 0 - - -;
#X floatatom 174 426 5 0 0 0 - - -;
#X obj 44 360 *~ 0.4;
#X obj 437 463 bng 15 250 50 0 empty empty empty 17 7 0 10 -262144
-1 -1;
#X obj 458 463 bng 15 250 50 0 empty empty empty 17 7 0 10 -262144
-1 -1;
#X obj 479 463 bng 15 250 50 0 empty empty empty 17 7 0 10 -262144
-1 -1;
#X obj 500 463 bng 15 250 50 0 empty empty empty 17 7 0 10 -262144
-1 -1;
#X obj 521 463 bng 15 250 50 0 empty empty empty 17 7 0 10 -262144
-1 -1;
#X obj 542 463 bng 15 250 50 0 empty empty empty 17 7 0 10 -262144
-1 -1;
#X obj 563 463 bng 15 250 50 0 empty empty empty 17 7 0 10 -262144
-1 -1;
#X obj 584 463 bng 15 250 50 0 empty empty empty 17 7 0 10 -262144
-1 -1;
#X obj 604 462 bng 15 250 50 0 empty empty empty 17 7 0 10 -262144
-1 -1;
#X obj 625 462 bng 15 250 50 0 empty empty empty 17 7 0 10 -262144
-1 -1;
#X obj 646 462 bng 15 250 50 0 empty empty empty 17 7 0 10 -262144
-1 -1;
#X obj 667 462 bng 15 250 50 0 empty empty empty 17 7 0 10 -262144
-1 -1;
#N canvas 1 67 911 424 snare 0;
#X floatatom 10 92 5 0 0 0 - - -;
#X floatatom 43 92 5 0 0 0 - - -;
#X floatatom 76 92 5 0 0 0 - - -;
#X obj 10 70 unpack 0 0 0 0 0 0 0 0 0 0 0 0 0 0 0 0 0 0 0, f 93;
#X floatatom 108 93 5 0 0 0 - - -;
#X floatatom 141 93 5 0 0 0 - - -;
#X floatatom 174 93 5 0 0 0 - - -;
#X floatatom 206 93 5 0 0 0 - - -;
#X floatatom 239 93 5 0 0 0 - - -;
#X floatatom 272 93 5 0 0 0 - - -;
#X floatatom 304 94 5 0 0 0 - - -;
#X floatatom 337 94 5 0 0 0 - - -;
#X floatatom 370 94 5 0 0 0 - - -;
#X obj 8 388 outlet~;
#X obj 9 362 *~ 0.3;
#X obj 9 185 bng 15 250 50 0 empty empty empty 17 7 0 10 -262144 -1
-1;
#X obj 10 10 inlet;
#X obj 47 10 inlet;
#X obj 84 10 inlet;
#X obj 122 11 inlet;
#X obj 159 11 inlet;
#X obj 196 11 inlet;
#X obj 234 11 inlet;
#X obj 271 11 inlet;
#X obj 308 11 inlet;
#X obj 346 12 inlet;
#X obj 383 12 inlet;
#X obj 420 12 inlet;
#X obj 47 129 bng 15 250 50 0 empty empty empty 17 7 0 10 -262144 -1
-1;
#X obj 82 208 bng 15 250 50 0 empty empty empty 17 7 0 10 -262144 -1
-1;
#X obj 124 153 bng 15 250 50 0 empty empty empty 17 7 0 10 -262144
-1 -1;
#X obj 159 119 bng 15 250 50 0 empty empty empty 17 7 0 10 -262144
-1 -1;
#X obj 197 202 bng 15 250 50 0 empty empty empty 17 7 0 10 -262144
-1 -1;
#X obj 234 153 bng 15 250 50 0 empty empty empty 17 7 0 10 -262144
-1 -1;
#X obj 270 121 bng 15 250 50 0 empty empty empty 17 7 0 10 -262144
-1 -1;
#X obj 307 195 bng 15 250 50 0 empty empty empty 17 7 0 10 -262144
-1 -1;
#X obj 347 152 bng 15 250 50 0 empty empty empty 17 7 0 10 -262144
-1 -1;
#X obj 383 226 bng 15 250 50 0 empty empty empty 17 7 0 10 -262144
-1 -1;
#X msg 513 197 1 2 3 4 5 6 7 8 9 10 11 12 13 14;
#X msg 511 219 15 16 17 18 19 20 21 22 23 24 25 26 27 28;
#X msg 511 242 30 31 32 33 34 35 36 37 38 39 40 41 42 43;
#X msg 511 265 44 45 46 47 48 49 50 51 52 53 54 55 56 57;
#X obj 9 227 snare_channel;
#X obj 47 171 snare_channel;
#X obj 82 250 snare_channel;
#X obj 124 195 snare_channel;
#X obj 159 161 snare_channel;
#X obj 197 244 snare_channel;
#X obj 234 195 snare_channel;
#X obj 270 163 snare_channel;
#X obj 307 237 snare_channel;
#X obj 347 194 snare_channel;
#X obj 383 268 snare_channel;
#X msg 511 287 60 61 62 63 64 65 66 67 68 69 70 71 72 73;
#X obj 511 171 loadbang;
#X obj 628 92 random 4;
#X obj 629 116 sel 0 1 2 3 4;
#X obj 627 60 bng 15 250 50 0 empty empty empty 17 7 0 10 -262144 -1
-1;
#X obj 628 159 bng 15 250 50 0 empty empty empty 17 7 0 10 -262144
-1 -1;
#X obj 645 160 bng 15 250 50 0 empty empty empty 17 7 0 10 -262144
-1 -1;
#X obj 663 159 bng 15 250 50 0 empty empty empty 17 7 0 10 -262144
-1 -1;
#X obj 679 159 bng 15 250 50 0 empty empty empty 17 7 0 10 -262144
-1 -1;
#X obj 696 159 bng 15 250 50 0 empty empty empty 17 7 0 10 -262144
-1 -1;
#X connect 0 0 42 1;
#X connect 1 0 43 1;
#X connect 2 0 44 1;
#X connect 3 0 0 0;
#X connect 3 1 1 0;
#X connect 3 2 2 0;
#X connect 3 3 4 0;
#X connect 3 4 5 0;
#X connect 3 5 6 0;
#X connect 3 6 7 0;
#X connect 3 7 8 0;
#X connect 3 8 9 0;
#X connect 3 9 10 0;
#X connect 3 10 11 0;
#X connect 3 11 12 0;
#X connect 4 0 45 1;
#X connect 5 0 46 1;
#X connect 6 0 47 1;
#X connect 7 0 48 1;
#X connect 8 0 49 1;
#X connect 9 0 50 1;
#X connect 10 0 51 1;
#X connect 11 0 52 1;
#X connect 14 0 13 0;
#X connect 15 0 42 0;
#X connect 16 0 15 0;
#X connect 17 0 28 0;
#X connect 18 0 29 0;
#X connect 19 0 30 0;
#X connect 20 0 31 0;
#X connect 20 0 46 0;
#X connect 21 0 32 0;
#X connect 22 0 33 0;
#X connect 23 0 34 0;
#X connect 24 0 35 0;
#X connect 25 0 36 0;
#X connect 26 0 37 0;
#X connect 27 0 57 0;
#X connect 28 0 43 0;
#X connect 29 0 44 0;
#X connect 30 0 45 0;
#X connect 31 0 46 0;
#X connect 32 0 47 0;
#X connect 33 0 48 0;
#X connect 34 0 49 0;
#X connect 35 0 50 0;
#X connect 36 0 51 0;
#X connect 37 0 52 0;
#X connect 38 0 3 0;
#X connect 39 0 3 0;
#X connect 40 0 3 0;
#X connect 41 0 3 0;
#X connect 42 0 14 0;
#X connect 43 0 14 0;
#X connect 44 0 14 0;
#X connect 45 0 14 0;
#X connect 46 0 14 0;
#X connect 47 0 14 0;
#X connect 48 0 14 0;
#X connect 49 0 14 0;
#X connect 50 0 14 0;
#X connect 52 0 14 0;
#X connect 53 0 3 0;
#X connect 54 0 38 0;
#X connect 55 0 56 0;
#X connect 56 0 58 0;
#X connect 56 1 59 0;
#X connect 56 2 60 0;
#X connect 56 3 61 0;
#X connect 56 4 62 0;
#X connect 57 0 55 0;
#X connect 58 0 38 0;
#X connect 59 0 39 0;
#X connect 60 0 40 0;
#X connect 61 0 41 0;
#X restore 437 482 pd snare;
#X f 39;
#X obj 440 191 bng 15 250 50 0 empty empty empty 17 7 0 10 -262144
-1 -1;
#X obj 461 191 bng 15 250 50 0 empty empty empty 17 7 0 10 -262144
-1 -1;
#X obj 482 191 bng 15 250 50 0 empty empty empty 17 7 0 10 -262144
-1 -1;
#X obj 503 191 bng 15 250 50 0 empty empty empty 17 7 0 10 -262144
-1 -1;
#X obj 524 191 bng 15 250 50 0 empty empty empty 17 7 0 10 -262144
-1 -1;
#X obj 545 191 bng 15 250 50 0 empty empty empty 17 7 0 10 -262144
-1 -1;
#X obj 566 191 bng 15 250 50 0 empty empty empty 17 7 0 10 -262144
-1 -1;
#X obj 587 191 bng 15 250 50 0 empty empty empty 17 7 0 10 -262144
-1 -1;
#X obj 607 190 bng 15 250 50 0 empty empty empty 17 7 0 10 -262144
-1 -1;
#X obj 628 190 bng 15 250 50 0 empty empty empty 17 7 0 10 -262144
-1 -1;
#X obj 649 190 bng 15 250 50 0 empty empty empty 17 7 0 10 -262144
-1 -1;
#X obj 670 190 bng 15 250 50 0 empty empty empty 17 7 0 10 -262144
-1 -1;
#N canvas 1 67 911 424 synth 0;
#X floatatom 10 92 5 0 0 0 - - -;
#X floatatom 43 92 5 0 0 0 - - -;
#X floatatom 76 92 5 0 0 0 - - -;
#X obj 10 70 unpack 0 0 0 0 0 0 0 0 0 0 0 0 0 0 0 0 0 0 0, f 93;
#X floatatom 108 93 5 0 0 0 - - -;
#X floatatom 141 93 5 0 0 0 - - -;
#X floatatom 174 93 5 0 0 0 - - -;
#X floatatom 206 93 5 0 0 0 - - -;
#X floatatom 239 93 5 0 0 0 - - -;
#X floatatom 272 93 5 0 0 0 - - -;
#X floatatom 304 94 5 0 0 0 - - -;
#X floatatom 337 94 5 0 0 0 - - -;
#X floatatom 370 94 5 0 0 0 - - -;
#X obj 8 388 outlet~;
#X obj 9 362 *~ 0.3;
#X obj 9 185 bng 15 250 50 0 empty empty empty 17 7 0 10 -262144 -1
-1;
#X obj 10 10 inlet;
#X obj 47 10 inlet;
#X obj 84 10 inlet;
#X obj 122 11 inlet;
#X obj 159 11 inlet;
#X obj 196 11 inlet;
#X obj 234 11 inlet;
#X obj 271 11 inlet;
#X obj 308 11 inlet;
#X obj 346 12 inlet;
#X obj 383 12 inlet;
#X obj 420 12 inlet;
#X obj 47 129 bng 15 250 50 0 empty empty empty 17 7 0 10 -262144 -1
-1;
#X obj 82 208 bng 15 250 50 0 empty empty empty 17 7 0 10 -262144 -1
-1;
#X obj 124 153 bng 15 250 50 0 empty empty empty 17 7 0 10 -262144
-1 -1;
#X obj 159 119 bng 15 250 50 0 empty empty empty 17 7 0 10 -262144
-1 -1;
#X obj 197 202 bng 15 250 50 0 empty empty empty 17 7 0 10 -262144
-1 -1;
#X obj 234 153 bng 15 250 50 0 empty empty empty 17 7 0 10 -262144
-1 -1;
#X obj 270 121 bng 15 250 50 0 empty empty empty 17 7 0 10 -262144
-1 -1;
#X obj 307 195 bng 15 250 50 0 empty empty empty 17 7 0 10 -262144
-1 -1;
#X obj 347 152 bng 15 250 50 0 empty empty empty 17 7 0 10 -262144
-1 -1;
#X obj 383 226 bng 15 250 50 0 empty empty empty 17 7 0 10 -262144
-1 -1;
#X msg 513 197 1 2 3 4 5 6 7 8 9 10 11 12 13 14;
#X msg 511 219 15 16 17 18 19 20 21 22 23 24 25 26 27 28;
#X msg 511 242 30 31 32 33 34 35 36 37 38 39 40 41 42 43;
#X msg 511 265 44 45 46 47 48 49 50 51 52 53 54 55 56 57;
#X msg 511 287 60 61 62 63 64 65 66 67 68 69 70 71 72 73;
#X obj 9 227 synth_channel;
#X obj 47 171 synth_channel;
#X obj 82 250 synth_channel;
#X obj 159 161 synth_channel;
#X obj 197 244 synth_channel;
#X obj 234 195 synth_channel;
#X obj 272 160 synth_channel;
#X obj 307 237 synth_channel;
#X obj 347 194 synth_channel;
#X obj 383 268 synth_channel;
#X obj 124 195 synth_channel;
#X obj 496 138 loadbang;
#X obj 628 92 random 4;
#X obj 629 116 sel 0 1 2 3 4;
#X obj 627 60 bng 15 250 50 0 empty empty empty 17 7 0 10 -262144 -1
-1;
#X obj 628 159 bng 15 250 50 0 empty empty empty 17 7 0 10 -262144
-1 -1;
#X obj 645 160 bng 15 250 50 0 empty empty empty 17 7 0 10 -262144
-1 -1;
#X obj 663 159 bng 15 250 50 0 empty empty empty 17 7 0 10 -262144
-1 -1;
#X obj 679 159 bng 15 250 50 0 empty empty empty 17 7 0 10 -262144
-1 -1;
#X obj 696 159 bng 15 250 50 0 empty empty empty 17 7 0 10 -262144
-1 -1;
#X connect 0 0 43 1;
#X connect 1 0 44 1;
#X connect 2 0 45 1;
#X connect 3 0 0 0;
#X connect 3 1 1 0;
#X connect 3 2 2 0;
#X connect 3 3 4 0;
#X connect 3 4 5 0;
#X connect 3 5 6 0;
#X connect 3 6 7 0;
#X connect 3 7 8 0;
#X connect 3 8 9 0;
#X connect 3 9 10 0;
#X connect 3 10 11 0;
#X connect 3 11 12 0;
#X connect 4 0 53 1;
#X connect 5 0 46 1;
#X connect 6 0 47 1;
#X connect 7 0 48 1;
#X connect 8 0 49 1;
#X connect 9 0 50 1;
#X connect 10 0 51 1;
#X connect 11 0 52 1;
#X connect 14 0 13 0;
#X connect 15 0 43 0;
#X connect 16 0 15 0;
#X connect 17 0 28 0;
#X connect 18 0 29 0;
#X connect 19 0 30 0;
#X connect 20 0 31 0;
#X connect 20 0 46 0;
#X connect 21 0 32 0;
#X connect 22 0 33 0;
#X connect 23 0 34 0;
#X connect 24 0 35 0;
#X connect 25 0 36 0;
#X connect 26 0 37 0;
#X connect 27 0 57 0;
#X connect 28 0 44 0;
#X connect 29 0 45 0;
#X connect 30 0 53 0;
#X connect 31 0 46 0;
#X connect 32 0 47 0;
#X connect 33 0 48 0;
#X connect 34 0 49 0;
#X connect 35 0 50 0;
#X connect 36 0 51 0;
#X connect 37 0 52 0;
#X connect 38 0 3 0;
#X connect 39 0 3 0;
#X connect 40 0 3 0;
#X connect 41 0 3 0;
#X connect 42 0 3 0;
#X connect 43 0 14 0;
#X connect 44 0 14 0;
#X connect 45 0 14 0;
#X connect 46 0 14 0;
#X connect 47 0 14 0;
#X connect 48 0 14 0;
#X connect 49 0 14 0;
#X connect 50 0 14 0;
#X connect 52 0 14 0;
#X connect 53 0 14 0;
#X connect 54 0 39 0;
#X connect 55 0 56 0;
#X connect 56 0 58 0;
#X connect 56 1 59 0;
#X connect 56 2 60 0;
#X connect 56 3 61 0;
#X connect 56 4 62 0;
#X connect 57 0 55 0;
#X connect 58 0 38 0;
#X connect 59 0 39 0;
#X connect 60 0 40 0;
#X connect 61 0 41 0;
#X restore 438 208 pd synth;
#X f 39;
#X obj 439 506 bng 15 250 50 0 empty empty empty 17 7 0 10 -262144
-1 -1;
#X obj 460 506 bng 15 250 50 0 empty empty empty 17 7 0 10 -262144
-1 -1;
#X obj 481 506 bng 15 250 50 0 empty empty empty 17 7 0 10 -262144
-1 -1;
#X obj 502 506 bng 15 250 50 0 empty empty empty 17 7 0 10 -262144
-1 -1;
#X obj 523 506 bng 15 250 50 0 empty empty empty 17 7 0 10 -262144
-1 -1;
#X obj 544 506 bng 15 250 50 0 empty empty empty 17 7 0 10 -262144
-1 -1;
#X obj 565 506 bng 15 250 50 0 empty empty empty 17 7 0 10 -262144
-1 -1;
#X obj 586 506 bng 15 250 50 0 empty empty empty 17 7 0 10 -262144
-1 -1;
#X obj 606 505 bng 15 250 50 0 empty empty empty 17 7 0 10 -262144
-1 -1;
#X obj 627 505 bng 15 250 50 0 empty empty empty 17 7 0 10 -262144
-1 -1;
#X obj 648 505 bng 15 250 50 0 empty empty empty 17 7 0 10 -262144
-1 -1;
#X obj 669 505 bng 15 250 50 0 empty empty empty 17 7 0 10 -262144
-1 -1;
#N canvas 1 67 911 424 kick 0;
#X floatatom 10 92 5 0 0 0 - - -;
#X floatatom 43 92 5 0 0 0 - - -;
#X floatatom 76 92 5 0 0 0 - - -;
#X obj 10 70 unpack 0 0 0 0 0 0 0 0 0 0 0 0 0 0 0 0 0 0 0, f 93;
#X floatatom 108 93 5 0 0 0 - - -;
#X floatatom 141 93 5 0 0 0 - - -;
#X floatatom 174 93 5 0 0 0 - - -;
#X floatatom 206 93 5 0 0 0 - - -;
#X floatatom 239 93 5 0 0 0 - - -;
#X floatatom 272 93 5 0 0 0 - - -;
#X floatatom 304 94 5 0 0 0 - - -;
#X floatatom 337 94 5 0 0 0 - - -;
#X floatatom 370 94 5 0 0 0 - - -;
#X obj 8 388 outlet~;
#X obj 9 362 *~ 0.3;
#X obj 9 185 bng 15 250 50 0 empty empty empty 17 7 0 10 -262144 -1
-1;
#X obj 10 10 inlet;
#X obj 47 10 inlet;
#X obj 84 10 inlet;
#X obj 122 11 inlet;
#X obj 159 11 inlet;
#X obj 196 11 inlet;
#X obj 234 11 inlet;
#X obj 271 11 inlet;
#X obj 308 11 inlet;
#X obj 346 12 inlet;
#X obj 383 12 inlet;
#X obj 420 12 inlet;
#X obj 47 129 bng 15 250 50 0 empty empty empty 17 7 0 10 -262144 -1
-1;
#X obj 82 208 bng 15 250 50 0 empty empty empty 17 7 0 10 -262144 -1
-1;
#X obj 124 153 bng 15 250 50 0 empty empty empty 17 7 0 10 -262144
-1 -1;
#X obj 159 119 bng 15 250 50 0 empty empty empty 17 7 0 10 -262144
-1 -1;
#X obj 197 202 bng 15 250 50 0 empty empty empty 17 7 0 10 -262144
-1 -1;
#X obj 234 153 bng 15 250 50 0 empty empty empty 17 7 0 10 -262144
-1 -1;
#X obj 270 121 bng 15 250 50 0 empty empty empty 17 7 0 10 -262144
-1 -1;
#X obj 307 195 bng 15 250 50 0 empty empty empty 17 7 0 10 -262144
-1 -1;
#X obj 347 152 bng 15 250 50 0 empty empty empty 17 7 0 10 -262144
-1 -1;
#X obj 383 226 bng 15 250 50 0 empty empty empty 17 7 0 10 -262144
-1 -1;
#X msg 513 197 1 2 3 4 5 6 7 8 9 10 11 12 13 14;
#X msg 511 219 15 16 17 18 19 20 21 22 23 24 25 26 27 28;
#X msg 511 242 30 31 32 33 34 35 36 37 38 39 40 41 42 43;
#X msg 511 265 44 45 46 47 48 49 50 51 52 53 54 55 56 57;
#X msg 511 287 60 61 62 63 64 65 66 67 68 69 70 71 72 73;
#X obj 9 227 kick_channel;
#X obj 47 171 kick_channel;
#X obj 82 250 kick_channel;
#X obj 124 195 kick_channel;
#X obj 159 161 kick_channel;
#X obj 197 244 kick_channel;
#X obj 234 195 kick_channel;
#X obj 272 160 kick_channel;
#X obj 307 237 kick_channel;
#X obj 347 194 kick_channel;
#X obj 383 268 kick_channel;
#X obj 511 171 loadbang;
#X obj 628 92 random 4;
#X obj 629 116 sel 0 1 2 3 4;
#X obj 627 60 bng 15 250 50 0 empty empty empty 17 7 0 10 -262144 -1
-1;
#X obj 628 159 bng 15 250 50 0 empty empty empty 17 7 0 10 -262144
-1 -1;
#X obj 645 160 bng 15 250 50 0 empty empty empty 17 7 0 10 -262144
-1 -1;
#X obj 663 159 bng 15 250 50 0 empty empty empty 17 7 0 10 -262144
-1 -1;
#X obj 679 159 bng 15 250 50 0 empty empty empty 17 7 0 10 -262144
-1 -1;
#X obj 696 159 bng 15 250 50 0 empty empty empty 17 7 0 10 -262144
-1 -1;
#X connect 0 0 43 1;
#X connect 1 0 44 1;
#X connect 2 0 45 1;
#X connect 3 0 0 0;
#X connect 3 1 1 0;
#X connect 3 2 2 0;
#X connect 3 3 4 0;
#X connect 3 4 5 0;
#X connect 3 5 6 0;
#X connect 3 6 7 0;
#X connect 3 7 8 0;
#X connect 3 8 9 0;
#X connect 3 9 10 0;
#X connect 3 10 11 0;
#X connect 3 11 12 0;
#X connect 4 0 46 1;
#X connect 5 0 47 1;
#X connect 6 0 48 1;
#X connect 7 0 49 1;
#X connect 8 0 50 1;
#X connect 9 0 51 1;
#X connect 10 0 52 1;
#X connect 11 0 53 1;
#X connect 14 0 13 0;
#X connect 15 0 43 0;
#X connect 16 0 15 0;
#X connect 17 0 28 0;
#X connect 18 0 29 0;
#X connect 19 0 30 0;
#X connect 20 0 31 0;
#X connect 20 0 47 0;
#X connect 21 0 32 0;
#X connect 22 0 33 0;
#X connect 23 0 34 0;
#X connect 24 0 35 0;
#X connect 25 0 36 0;
#X connect 26 0 37 0;
#X connect 27 0 57 0;
#X connect 28 0 44 0;
#X connect 29 0 45 0;
#X connect 30 0 46 0;
#X connect 31 0 47 0;
#X connect 32 0 48 0;
#X connect 33 0 49 0;
#X connect 34 0 50 0;
#X connect 35 0 51 0;
#X connect 36 0 52 0;
#X connect 37 0 53 0;
#X connect 38 0 3 0;
#X connect 39 0 3 0;
#X connect 40 0 3 0;
#X connect 41 0 3 0;
#X connect 42 0 3 0;
#X connect 43 0 14 0;
#X connect 44 0 14 0;
#X connect 45 0 14 0;
#X connect 46 0 14 0;
#X connect 47 0 14 0;
#X connect 48 0 14 0;
#X connect 49 0 14 0;
#X connect 50 0 14 0;
#X connect 51 0 14 0;
#X connect 53 0 14 0;
#X connect 54 0 38 0;
#X connect 55 0 56 0;
#X connect 56 0 58 0;
#X connect 56 1 59 0;
#X connect 56 2 60 0;
#X connect 56 3 61 0;
#X connect 56 4 62 0;
#X connect 57 0 55 0;
#X connect 58 0 38 0;
#X connect 59 0 39 0;
#X connect 60 0 40 0;
#X connect 61 0 41 0;
#X restore 437 523 pd kick;
#X f 39;
#X obj 440 417 bng 15 250 50 0 empty empty empty 17 7 0 10 -262144
-1 -1;
#X obj 461 417 bng 15 250 50 0 empty empty empty 17 7 0 10 -262144
-1 -1;
#X obj 482 417 bng 15 250 50 0 empty empty empty 17 7 0 10 -262144
-1 -1;
#X obj 503 417 bng 15 250 50 0 empty empty empty 17 7 0 10 -262144
-1 -1;
#X obj 524 417 bng 15 250 50 0 empty empty empty 17 7 0 10 -262144
-1 -1;
#X obj 545 417 bng 15 250 50 0 empty empty empty 17 7 0 10 -262144
-1 -1;
#X obj 566 417 bng 15 250 50 0 empty empty empty 17 7 0 10 -262144
-1 -1;
#X obj 587 417 bng 15 250 50 0 empty empty empty 17 7 0 10 -262144
-1 -1;
#X obj 607 416 bng 15 250 50 0 empty empty empty 17 7 0 10 -262144
-1 -1;
#X obj 628 416 bng 15 250 50 0 empty empty empty 17 7 0 10 -262144
-1 -1;
#X obj 649 416 bng 15 250 50 0 empty empty empty 17 7 0 10 -262144
-1 -1;
#X obj 670 416 bng 15 250 50 0 empty empty empty 17 7 0 10 -262144
-1 -1;
#N canvas 1 67 911 424 hihats 0;
#X floatatom 10 92 5 0 0 0 - - -;
#X floatatom 43 92 5 0 0 0 - - -;
#X floatatom 76 92 5 0 0 0 - - -;
#X obj 10 70 unpack 0 0 0 0 0 0 0 0 0 0 0 0 0 0 0 0 0 0 0, f 93;
#X floatatom 108 93 5 0 0 0 - - -;
#X floatatom 141 93 5 0 0 0 - - -;
#X floatatom 174 93 5 0 0 0 - - -;
#X floatatom 206 93 5 0 0 0 - - -;
#X floatatom 239 93 5 0 0 0 - - -;
#X floatatom 272 93 5 0 0 0 - - -;
#X floatatom 304 94 5 0 0 0 - - -;
#X floatatom 337 94 5 0 0 0 - - -;
#X floatatom 370 94 5 0 0 0 - - -;
#X obj 8 388 outlet~;
#X obj 9 362 *~ 0.3;
#X obj 9 185 bng 15 250 50 0 empty empty empty 17 7 0 10 -262144 -1
-1;
#X obj 10 10 inlet;
#X obj 47 10 inlet;
#X obj 84 10 inlet;
#X obj 122 11 inlet;
#X obj 159 11 inlet;
#X obj 196 11 inlet;
#X obj 234 11 inlet;
#X obj 271 11 inlet;
#X obj 308 11 inlet;
#X obj 346 12 inlet;
#X obj 383 12 inlet;
#X obj 420 12 inlet;
#X obj 47 129 bng 15 250 50 0 empty empty empty 17 7 0 10 -262144 -1
-1;
#X obj 82 208 bng 15 250 50 0 empty empty empty 17 7 0 10 -262144 -1
-1;
#X obj 124 153 bng 15 250 50 0 empty empty empty 17 7 0 10 -262144
-1 -1;
#X obj 159 119 bng 15 250 50 0 empty empty empty 17 7 0 10 -262144
-1 -1;
#X obj 197 202 bng 15 250 50 0 empty empty empty 17 7 0 10 -262144
-1 -1;
#X obj 234 153 bng 15 250 50 0 empty empty empty 17 7 0 10 -262144
-1 -1;
#X obj 270 121 bng 15 250 50 0 empty empty empty 17 7 0 10 -262144
-1 -1;
#X obj 307 195 bng 15 250 50 0 empty empty empty 17 7 0 10 -262144
-1 -1;
#X obj 347 152 bng 15 250 50 0 empty empty empty 17 7 0 10 -262144
-1 -1;
#X obj 383 226 bng 15 250 50 0 empty empty empty 17 7 0 10 -262144
-1 -1;
#X msg 513 197 1 2 3 4 5 6 7 8 9 10 11 12 13 14;
#X msg 511 219 15 16 17 18 19 20 21 22 23 24 25 26 27 28;
#X msg 511 242 30 31 32 33 34 35 36 37 38 39 40 41 42 43;
#X msg 511 265 44 45 46 47 48 49 50 51 52 53 54 55 56 57;
#X msg 511 287 60 61 62 63 64 65 66 67 68 69 70 71 72 73;
#X obj 9 227 hihats_channel;
#X obj 47 171 hihats_channel;
#X obj 82 250 hihats_channel;
#X obj 124 195 hihats_channel;
#X obj 159 161 hihats_channel;
#X obj 197 244 hihats_channel;
#X obj 234 195 hihats_channel;
#X obj 272 160 hihats_channel;
#X obj 307 237 hihats_channel;
#X obj 347 194 hihats_channel;
#X obj 383 268 hihats_channel;
#X obj 511 171 loadbang;
#X obj 628 92 random 4;
#X obj 629 116 sel 0 1 2 3 4;
#X obj 627 60 bng 15 250 50 0 empty empty empty 17 7 0 10 -262144 -1
-1;
#X obj 628 159 bng 15 250 50 0 empty empty empty 17 7 0 10 -262144
-1 -1;
#X obj 645 160 bng 15 250 50 0 empty empty empty 17 7 0 10 -262144
-1 -1;
#X obj 663 159 bng 15 250 50 0 empty empty empty 17 7 0 10 -262144
-1 -1;
#X obj 679 159 bng 15 250 50 0 empty empty empty 17 7 0 10 -262144
-1 -1;
#X obj 696 159 bng 15 250 50 0 empty empty empty 17 7 0 10 -262144
-1 -1;
#X connect 0 0 43 1;
#X connect 1 0 44 1;
#X connect 2 0 45 1;
#X connect 3 0 0 0;
#X connect 3 1 1 0;
#X connect 3 2 2 0;
#X connect 3 3 4 0;
#X connect 3 4 5 0;
#X connect 3 5 6 0;
#X connect 3 6 7 0;
#X connect 3 7 8 0;
#X connect 3 8 9 0;
#X connect 3 9 10 0;
#X connect 3 10 11 0;
#X connect 3 11 12 0;
#X connect 4 0 46 1;
#X connect 5 0 47 1;
#X connect 6 0 48 1;
#X connect 7 0 49 1;
#X connect 8 0 50 1;
#X connect 9 0 51 1;
#X connect 10 0 52 1;
#X connect 11 0 53 1;
#X connect 14 0 13 0;
#X connect 15 0 43 0;
#X connect 16 0 15 0;
#X connect 17 0 28 0;
#X connect 18 0 29 0;
#X connect 19 0 30 0;
#X connect 20 0 31 0;
#X connect 20 0 47 0;
#X connect 21 0 32 0;
#X connect 22 0 33 0;
#X connect 23 0 34 0;
#X connect 24 0 35 0;
#X connect 25 0 36 0;
#X connect 26 0 37 0;
#X connect 27 0 57 0;
#X connect 28 0 44 0;
#X connect 29 0 45 0;
#X connect 30 0 46 0;
#X connect 31 0 47 0;
#X connect 32 0 48 0;
#X connect 33 0 49 0;
#X connect 34 0 50 0;
#X connect 35 0 51 0;
#X connect 36 0 52 0;
#X connect 37 0 53 0;
#X connect 38 0 3 0;
#X connect 39 0 3 0;
#X connect 40 0 3 0;
#X connect 41 0 3 0;
#X connect 42 0 3 0;
#X connect 43 0 14 0;
#X connect 44 0 14 0;
#X connect 45 0 14 0;
#X connect 46 0 14 0;
#X connect 47 0 14 0;
#X connect 48 0 14 0;
#X connect 49 0 14 0;
#X connect 50 0 14 0;
#X connect 51 0 14 0;
#X connect 53 0 14 0;
#X connect 54 0 38 0;
#X connect 55 0 56 0;
#X connect 56 0 58 0;
#X connect 56 1 59 0;
#X connect 56 2 60 0;
#X connect 56 3 61 0;
#X connect 56 4 62 0;
#X connect 57 0 55 0;
#X connect 58 0 38 0;
#X connect 59 0 39 0;
#X connect 60 0 40 0;
#X connect 61 0 41 0;
#X restore 438 434 pd hihats;
#X f 39;
#X obj 441 372 bng 15 250 50 0 empty empty empty 17 7 0 10 -262144
-1 -1;
#X obj 462 372 bng 15 250 50 0 empty empty empty 17 7 0 10 -262144
-1 -1;
#X obj 483 372 bng 15 250 50 0 empty empty empty 17 7 0 10 -262144
-1 -1;
#X obj 504 372 bng 15 250 50 0 empty empty empty 17 7 0 10 -262144
-1 -1;
#X obj 525 372 bng 15 250 50 0 empty empty empty 17 7 0 10 -262144
-1 -1;
#X obj 546 372 bng 15 250 50 0 empty empty empty 17 7 0 10 -262144
-1 -1;
#X obj 567 372 bng 15 250 50 0 empty empty empty 17 7 0 10 -262144
-1 -1;
#X obj 588 372 bng 15 250 50 0 empty empty empty 17 7 0 10 -262144
-1 -1;
#X obj 608 371 bng 15 250 50 0 empty empty empty 17 7 0 10 -262144
-1 -1;
#X obj 629 371 bng 15 250 50 0 empty empty empty 17 7 0 10 -262144
-1 -1;
#X obj 650 371 bng 15 250 50 0 empty empty empty 17 7 0 10 -262144
-1 -1;
#X obj 671 371 bng 15 250 50 0 empty empty empty 17 7 0 10 -262144
-1 -1;
#N canvas 1 67 911 424 perc 0;
#X floatatom 10 92 5 0 0 0 - - -;
#X floatatom 43 92 5 0 0 0 - - -;
#X floatatom 76 92 5 0 0 0 - - -;
#X obj 10 70 unpack 0 0 0 0 0 0 0 0 0 0 0 0 0 0 0 0 0 0 0, f 93;
#X floatatom 108 93 5 0 0 0 - - -;
#X floatatom 141 93 5 0 0 0 - - -;
#X floatatom 174 93 5 0 0 0 - - -;
#X floatatom 206 93 5 0 0 0 - - -;
#X floatatom 239 93 5 0 0 0 - - -;
#X floatatom 272 93 5 0 0 0 - - -;
#X floatatom 304 94 5 0 0 0 - - -;
#X floatatom 337 94 5 0 0 0 - - -;
#X floatatom 370 94 5 0 0 0 - - -;
#X obj 8 388 outlet~;
#X obj 9 362 *~ 0.3;
#X obj 9 185 bng 15 250 50 0 empty empty empty 17 7 0 10 -262144 -1
-1;
#X obj 10 10 inlet;
#X obj 47 10 inlet;
#X obj 84 10 inlet;
#X obj 122 11 inlet;
#X obj 159 11 inlet;
#X obj 196 11 inlet;
#X obj 234 11 inlet;
#X obj 271 11 inlet;
#X obj 308 11 inlet;
#X obj 346 12 inlet;
#X obj 383 12 inlet;
#X obj 420 12 inlet;
#X obj 47 129 bng 15 250 50 0 empty empty empty 17 7 0 10 -262144 -1
-1;
#X obj 82 208 bng 15 250 50 0 empty empty empty 17 7 0 10 -262144 -1
-1;
#X obj 124 153 bng 15 250 50 0 empty empty empty 17 7 0 10 -262144
-1 -1;
#X obj 159 119 bng 15 250 50 0 empty empty empty 17 7 0 10 -262144
-1 -1;
#X obj 197 202 bng 15 250 50 0 empty empty empty 17 7 0 10 -262144
-1 -1;
#X obj 234 153 bng 15 250 50 0 empty empty empty 17 7 0 10 -262144
-1 -1;
#X obj 270 121 bng 15 250 50 0 empty empty empty 17 7 0 10 -262144
-1 -1;
#X obj 307 195 bng 15 250 50 0 empty empty empty 17 7 0 10 -262144
-1 -1;
#X obj 347 152 bng 15 250 50 0 empty empty empty 17 7 0 10 -262144
-1 -1;
#X obj 383 226 bng 15 250 50 0 empty empty empty 17 7 0 10 -262144
-1 -1;
#X msg 512 198 1 2 3 4 5 6 7 8 9 10 11 12 13 14;
#X msg 511 219 15 16 17 18 19 20 21 22 23 24 25 26 27 28;
#X msg 511 242 30 31 32 33 34 35 36 37 38 39 40 41 42 43;
#X msg 511 265 44 45 46 47 48 49 50 51 52 53 54 55 56 57;
#X msg 511 287 60 61 62 63 64 65 66 67 68 69 70 71 72 73;
#X obj 9 227 perc_channel;
#X obj 47 171 perc_channel;
#X obj 82 250 perc_channel;
#X obj 124 195 perc_channel;
#X obj 159 161 perc_channel;
#X obj 197 244 perc_channel;
#X obj 234 195 perc_channel;
#X obj 272 160 perc_channel;
#X obj 307 237 perc_channel;
#X obj 347 194 perc_channel;
#X obj 383 268 perc_channel;
#X obj 511 171 loadbang;
#X obj 628 92 random 4;
#X obj 629 116 sel 0 1 2 3 4;
#X obj 627 60 bng 15 250 50 0 empty empty empty 17 7 0 10 -262144 -1
-1;
#X obj 628 159 bng 15 250 50 0 empty empty empty 17 7 0 10 -262144
-1 -1;
#X obj 645 160 bng 15 250 50 0 empty empty empty 17 7 0 10 -262144
-1 -1;
#X obj 663 159 bng 15 250 50 0 empty empty empty 17 7 0 10 -262144
-1 -1;
#X obj 679 159 bng 15 250 50 0 empty empty empty 17 7 0 10 -262144
-1 -1;
#X obj 696 159 bng 15 250 50 0 empty empty empty 17 7 0 10 -262144
-1 -1;
#X connect 0 0 43 1;
#X connect 1 0 44 1;
#X connect 2 0 45 1;
#X connect 3 0 0 0;
#X connect 3 1 1 0;
#X connect 3 2 2 0;
#X connect 3 3 4 0;
#X connect 3 4 5 0;
#X connect 3 5 6 0;
#X connect 3 6 7 0;
#X connect 3 7 8 0;
#X connect 3 8 9 0;
#X connect 3 9 10 0;
#X connect 3 10 11 0;
#X connect 3 11 12 0;
#X connect 4 0 46 1;
#X connect 5 0 47 1;
#X connect 6 0 48 1;
#X connect 7 0 49 1;
#X connect 8 0 50 1;
#X connect 9 0 51 1;
#X connect 10 0 52 1;
#X connect 11 0 53 1;
#X connect 14 0 13 0;
#X connect 15 0 43 0;
#X connect 16 0 15 0;
#X connect 17 0 28 0;
#X connect 18 0 29 0;
#X connect 19 0 30 0;
#X connect 20 0 31 0;
#X connect 20 0 47 0;
#X connect 21 0 32 0;
#X connect 22 0 33 0;
#X connect 23 0 34 0;
#X connect 24 0 35 0;
#X connect 25 0 36 0;
#X connect 26 0 37 0;
#X connect 27 0 57 0;
#X connect 28 0 44 0;
#X connect 29 0 45 0;
#X connect 30 0 46 0;
#X connect 31 0 47 0;
#X connect 32 0 48 0;
#X connect 33 0 49 0;
#X connect 34 0 50 0;
#X connect 35 0 51 0;
#X connect 36 0 52 0;
#X connect 37 0 53 0;
#X connect 38 0 3 0;
#X connect 39 0 3 0;
#X connect 40 0 3 0;
#X connect 41 0 3 0;
#X connect 42 0 3 0;
#X connect 43 0 14 0;
#X connect 44 0 14 0;
#X connect 45 0 14 0;
#X connect 46 0 14 0;
#X connect 47 0 14 0;
#X connect 48 0 14 0;
#X connect 49 0 14 0;
#X connect 50 0 14 0;
#X connect 51 0 14 0;
#X connect 53 0 14 0;
#X connect 54 0 38 0;
#X connect 55 0 56 0;
#X connect 56 0 58 0;
#X connect 56 1 59 0;
#X connect 56 2 60 0;
#X connect 56 3 61 0;
#X connect 56 4 62 0;
#X connect 57 0 55 0;
#X connect 58 0 38 0;
#X connect 59 0 39 0;
#X connect 60 0 40 0;
#X connect 61 0 41 0;
#X restore 440 389 pd perc;
#X f 39;
#X obj 441 328 bng 15 250 50 0 empty empty empty 17 7 0 10 -262144
-1 -1;
#X obj 462 328 bng 15 250 50 0 empty empty empty 17 7 0 10 -262144
-1 -1;
#X obj 483 328 bng 15 250 50 0 empty empty empty 17 7 0 10 -262144
-1 -1;
#X obj 504 328 bng 15 250 50 0 empty empty empty 17 7 0 10 -262144
-1 -1;
#X obj 525 328 bng 15 250 50 0 empty empty empty 17 7 0 10 -262144
-1 -1;
#X obj 546 328 bng 15 250 50 0 empty empty empty 17 7 0 10 -262144
-1 -1;
#X obj 567 328 bng 15 250 50 0 empty empty empty 17 7 0 10 -262144
-1 -1;
#X obj 588 328 bng 15 250 50 0 empty empty empty 17 7 0 10 -262144
-1 -1;
#X obj 608 327 bng 15 250 50 0 empty empty empty 17 7 0 10 -262144
-1 -1;
#X obj 629 327 bng 15 250 50 0 empty empty empty 17 7 0 10 -262144
-1 -1;
#X obj 650 327 bng 15 250 50 0 empty empty empty 17 7 0 10 -262144
-1 -1;
#X obj 671 327 bng 15 250 50 0 empty empty empty 17 7 0 10 -262144
-1 -1;
#N canvas 1 67 911 424 fx 0;
#X floatatom 10 92 5 0 0 0 - - -;
#X floatatom 43 92 5 0 0 0 - - -;
#X floatatom 76 92 5 0 0 0 - - -;
#X obj 10 70 unpack 0 0 0 0 0 0 0 0 0 0 0 0 0 0 0 0 0 0 0, f 93;
#X floatatom 108 93 5 0 0 0 - - -;
#X floatatom 141 93 5 0 0 0 - - -;
#X floatatom 174 93 5 0 0 0 - - -;
#X floatatom 206 93 5 0 0 0 - - -;
#X floatatom 239 93 5 0 0 0 - - -;
#X floatatom 272 93 5 0 0 0 - - -;
#X floatatom 304 94 5 0 0 0 - - -;
#X floatatom 337 94 5 0 0 0 - - -;
#X floatatom 370 94 5 0 0 0 - - -;
#X obj 8 388 outlet~;
#X obj 9 362 *~ 0.3;
#X obj 9 185 bng 15 250 50 0 empty empty empty 17 7 0 10 -262144 -1
-1;
#X obj 10 10 inlet;
#X obj 47 10 inlet;
#X obj 84 10 inlet;
#X obj 122 11 inlet;
#X obj 159 11 inlet;
#X obj 196 11 inlet;
#X obj 234 11 inlet;
#X obj 271 11 inlet;
#X obj 308 11 inlet;
#X obj 346 12 inlet;
#X obj 383 12 inlet;
#X obj 420 12 inlet;
#X obj 47 129 bng 15 250 50 0 empty empty empty 17 7 0 10 -262144 -1
-1;
#X obj 82 208 bng 15 250 50 0 empty empty empty 17 7 0 10 -262144 -1
-1;
#X obj 124 153 bng 15 250 50 0 empty empty empty 17 7 0 10 -262144
-1 -1;
#X obj 159 119 bng 15 250 50 0 empty empty empty 17 7 0 10 -262144
-1 -1;
#X obj 197 202 bng 15 250 50 0 empty empty empty 17 7 0 10 -262144
-1 -1;
#X obj 234 153 bng 15 250 50 0 empty empty empty 17 7 0 10 -262144
-1 -1;
#X obj 270 121 bng 15 250 50 0 empty empty empty 17 7 0 10 -262144
-1 -1;
#X obj 307 195 bng 15 250 50 0 empty empty empty 17 7 0 10 -262144
-1 -1;
#X obj 347 152 bng 15 250 50 0 empty empty empty 17 7 0 10 -262144
-1 -1;
#X obj 383 226 bng 15 250 50 0 empty empty empty 17 7 0 10 -262144
-1 -1;
#X msg 512 198 1 2 3 4 5 6 7 8 9 10 11 12 13 14;
#X msg 511 219 15 16 17 18 19 20 21 22 23 24 25 26 27 28;
#X msg 511 242 30 31 32 33 34 35 36 37 38 39 40 41 42 43;
#X msg 511 265 44 45 46 47 48 49 50 51 52 53 54 55 56 57;
#X msg 511 287 60 61 62 63 64 65 66 67 68 69 70 71 72 73;
#X obj 9 227 fx_channel;
#X obj 47 171 fx_channel;
#X obj 82 250 fx_channel;
#X obj 124 195 fx_channel;
#X obj 159 161 fx_channel;
#X obj 197 244 fx_channel;
#X obj 234 195 fx_channel;
#X obj 272 160 fx_channel;
#X obj 307 237 fx_channel;
#X obj 347 194 fx_channel;
#X obj 383 268 fx_channel;
#X obj 511 171 loadbang;
#X connect 0 0 43 1;
#X connect 1 0 44 1;
#X connect 2 0 45 1;
#X connect 3 0 0 0;
#X connect 3 1 1 0;
#X connect 3 2 2 0;
#X connect 3 3 4 0;
#X connect 3 4 5 0;
#X connect 3 5 6 0;
#X connect 3 6 7 0;
#X connect 3 7 8 0;
#X connect 3 8 9 0;
#X connect 3 9 10 0;
#X connect 3 10 11 0;
#X connect 3 11 12 0;
#X connect 4 0 46 1;
#X connect 5 0 47 1;
#X connect 6 0 48 1;
#X connect 7 0 49 1;
#X connect 8 0 50 1;
#X connect 9 0 51 1;
#X connect 10 0 52 1;
#X connect 11 0 53 1;
#X connect 14 0 13 0;
#X connect 15 0 43 0;
#X connect 16 0 15 0;
#X connect 17 0 28 0;
#X connect 18 0 29 0;
#X connect 19 0 30 0;
#X connect 20 0 31 0;
#X connect 20 0 47 0;
#X connect 21 0 32 0;
#X connect 22 0 33 0;
#X connect 23 0 34 0;
#X connect 24 0 35 0;
#X connect 25 0 36 0;
#X connect 26 0 37 0;
#X connect 28 0 44 0;
#X connect 29 0 45 0;
#X connect 30 0 46 0;
#X connect 31 0 47 0;
#X connect 32 0 48 0;
#X connect 33 0 49 0;
#X connect 34 0 50 0;
#X connect 35 0 51 0;
#X connect 36 0 52 0;
#X connect 37 0 53 0;
#X connect 38 0 3 0;
#X connect 39 0 3 0;
#X connect 40 0 3 0;
#X connect 41 0 3 0;
#X connect 42 0 3 0;
#X connect 43 0 14 0;
#X connect 44 0 14 0;
#X connect 45 0 14 0;
#X connect 46 0 14 0;
#X connect 47 0 14 0;
#X connect 48 0 14 0;
#X connect 49 0 14 0;
#X connect 50 0 14 0;
#X connect 51 0 14 0;
#X connect 53 0 14 0;
#X connect 54 0 38 0;
#X restore 439 346 pd fx;
#X f 39;
#X obj 441 283 bng 15 250 50 0 empty empty empty 17 7 0 10 -262144
-1 -1;
#X obj 462 283 bng 15 250 50 0 empty empty empty 17 7 0 10 -262144
-1 -1;
#X obj 483 283 bng 15 250 50 0 empty empty empty 17 7 0 10 -262144
-1 -1;
#X obj 504 283 bng 15 250 50 0 empty empty empty 17 7 0 10 -262144
-1 -1;
#X obj 525 283 bng 15 250 50 0 empty empty empty 17 7 0 10 -262144
-1 -1;
#X obj 546 283 bng 15 250 50 0 empty empty empty 17 7 0 10 -262144
-1 -1;
#X obj 567 283 bng 15 250 50 0 empty empty empty 17 7 0 10 -262144
-1 -1;
#X obj 588 283 bng 15 250 50 0 empty empty empty 17 7 0 10 -262144
-1 -1;
#X obj 608 282 bng 15 250 50 0 empty empty empty 17 7 0 10 -262144
-1 -1;
#X obj 629 282 bng 15 250 50 0 empty empty empty 17 7 0 10 -262144
-1 -1;
#X obj 650 282 bng 15 250 50 0 empty empty empty 17 7 0 10 -262144
-1 -1;
#X obj 671 282 bng 15 250 50 0 empty empty empty 17 7 0 10 -262144
-1 -1;
#N canvas 1 67 912 424 atmos 0;
#X floatatom 10 92 5 0 0 0 - - -;
#X floatatom 43 92 5 0 0 0 - - -;
#X floatatom 76 92 5 0 0 0 - - -;
#X obj 10 70 unpack 0 0 0 0 0 0 0 0 0 0 0 0 0 0 0 0 0 0 0, f 93;
#X floatatom 108 93 5 0 0 0 - - -;
#X floatatom 141 93 5 0 0 0 - - -;
#X floatatom 174 93 5 0 0 0 - - -;
#X floatatom 206 93 5 0 0 0 - - -;
#X floatatom 239 93 5 0 0 0 - - -;
#X floatatom 272 93 5 0 0 0 - - -;
#X floatatom 304 94 5 0 0 0 - - -;
#X floatatom 337 94 5 0 0 0 - - -;
#X floatatom 370 94 5 0 0 0 - - -;
#X obj 8 388 outlet~;
#X obj 9 362 *~ 0.3;
#X obj 9 185 bng 15 250 50 0 empty empty empty 17 7 0 10 -262144 -1
-1;
#X obj 10 10 inlet;
#X obj 47 10 inlet;
#X obj 84 10 inlet;
#X obj 122 11 inlet;
#X obj 159 11 inlet;
#X obj 196 11 inlet;
#X obj 234 11 inlet;
#X obj 271 11 inlet;
#X obj 308 11 inlet;
#X obj 346 12 inlet;
#X obj 383 12 inlet;
#X obj 420 12 inlet;
#X obj 47 129 bng 15 250 50 0 empty empty empty 17 7 0 10 -262144 -1
-1;
#X obj 82 208 bng 15 250 50 0 empty empty empty 17 7 0 10 -262144 -1
-1;
#X obj 124 153 bng 15 250 50 0 empty empty empty 17 7 0 10 -262144
-1 -1;
#X obj 159 119 bng 15 250 50 0 empty empty empty 17 7 0 10 -262144
-1 -1;
#X obj 197 202 bng 15 250 50 0 empty empty empty 17 7 0 10 -262144
-1 -1;
#X obj 234 153 bng 15 250 50 0 empty empty empty 17 7 0 10 -262144
-1 -1;
#X obj 270 121 bng 15 250 50 0 empty empty empty 17 7 0 10 -262144
-1 -1;
#X obj 307 195 bng 15 250 50 0 empty empty empty 17 7 0 10 -262144
-1 -1;
#X obj 347 152 bng 15 250 50 0 empty empty empty 17 7 0 10 -262144
-1 -1;
#X obj 383 226 bng 15 250 50 0 empty empty empty 17 7 0 10 -262144
-1 -1;
#X msg 512 198 1 2 3 4 5 6 7 8 9 10 11 12 13 14;
#X msg 511 219 15 16 17 18 19 20 21 22 23 24 25 26 27 28;
#X msg 511 242 30 31 32 33 34 35 36 37 38 39 40 41 42 43;
#X msg 511 265 44 45 46 47 48 49 50 51 52 53 54 55 56 57;
#X msg 511 287 60 61 62 63 64 65 66 67 68 69 70 71 72 73;
#X obj 9 227 atmos_channel;
#X obj 47 171 atmos_channel;
#X obj 82 250 atmos_channel;
#X obj 124 195 atmos_channel;
#X obj 159 161 atmos_channel;
#X obj 197 244 atmos_channel;
#X obj 234 195 atmos_channel;
#X obj 272 160 atmos_channel;
#X obj 307 237 atmos_channel;
#X obj 347 194 atmos_channel;
#X obj 383 268 atmos_channel;
#X obj 511 171 loadbang;
#X obj 628 92 random 4;
#X obj 629 116 sel 0 1 2 3 4;
#X obj 627 60 bng 15 250 50 0 empty empty empty 17 7 0 10 -262144 -1
-1;
#X obj 628 159 bng 15 250 50 0 empty empty empty 17 7 0 10 -262144
-1 -1;
#X obj 645 160 bng 15 250 50 0 empty empty empty 17 7 0 10 -262144
-1 -1;
#X obj 663 159 bng 15 250 50 0 empty empty empty 17 7 0 10 -262144
-1 -1;
#X obj 679 159 bng 15 250 50 0 empty empty empty 17 7 0 10 -262144
-1 -1;
#X obj 696 159 bng 15 250 50 0 empty empty empty 17 7 0 10 -262144
-1 -1;
#X connect 0 0 43 1;
#X connect 1 0 44 1;
#X connect 2 0 45 1;
#X connect 3 0 0 0;
#X connect 3 1 1 0;
#X connect 3 2 2 0;
#X connect 3 3 4 0;
#X connect 3 4 5 0;
#X connect 3 5 6 0;
#X connect 3 6 7 0;
#X connect 3 7 8 0;
#X connect 3 8 9 0;
#X connect 3 9 10 0;
#X connect 3 10 11 0;
#X connect 3 11 12 0;
#X connect 4 0 46 1;
#X connect 5 0 47 1;
#X connect 6 0 48 1;
#X connect 7 0 49 1;
#X connect 8 0 50 1;
#X connect 9 0 51 1;
#X connect 10 0 52 1;
#X connect 11 0 53 1;
#X connect 14 0 13 0;
#X connect 15 0 43 0;
#X connect 16 0 15 0;
#X connect 17 0 28 0;
#X connect 18 0 29 0;
#X connect 19 0 30 0;
#X connect 20 0 31 0;
#X connect 20 0 47 0;
#X connect 21 0 32 0;
#X connect 22 0 33 0;
#X connect 23 0 34 0;
#X connect 24 0 35 0;
#X connect 25 0 36 0;
#X connect 26 0 37 0;
#X connect 27 0 57 0;
#X connect 28 0 44 0;
#X connect 29 0 45 0;
#X connect 30 0 46 0;
#X connect 31 0 47 0;
#X connect 32 0 48 0;
#X connect 33 0 49 0;
#X connect 34 0 50 0;
#X connect 35 0 51 0;
#X connect 36 0 52 0;
#X connect 37 0 53 0;
#X connect 38 0 3 0;
#X connect 39 0 3 0;
#X connect 40 0 3 0;
#X connect 41 0 3 0;
#X connect 42 0 3 0;
#X connect 43 0 14 0;
#X connect 44 0 14 0;
#X connect 45 0 14 0;
#X connect 46 0 14 0;
#X connect 47 0 14 0;
#X connect 48 0 14 0;
#X connect 49 0 14 0;
#X connect 50 0 14 0;
#X connect 51 0 14 0;
#X connect 53 0 14 0;
#X connect 54 0 38 0;
#X connect 55 0 56 0;
#X connect 56 0 58 0;
#X connect 56 1 59 0;
#X connect 56 2 60 0;
#X connect 56 3 61 0;
#X connect 56 4 62 0;
#X connect 57 0 55 0;
#X connect 58 0 38 0;
#X connect 59 0 39 0;
#X connect 60 0 40 0;
#X connect 61 0 41 0;
#X restore 439 300 pd atmos;
#X f 39;
#X obj 447 241 bng 15 250 50 0 empty empty empty 17 7 0 10 -262144
-1 -1;
#X obj 468 241 bng 15 250 50 0 empty empty empty 17 7 0 10 -262144
-1 -1;
#X obj 488 241 bng 15 250 50 0 empty empty empty 17 7 0 10 -262144
-1 -1;
#X obj 531 241 bng 15 250 50 0 empty empty empty 17 7 0 10 -262144
-1 -1;
#X obj 552 241 bng 15 250 50 0 empty empty empty 17 7 0 10 -262144
-1 -1;
#X obj 573 241 bng 15 250 50 0 empty empty empty 17 7 0 10 -262144
-1 -1;
#X obj 594 241 bng 15 250 50 0 empty empty empty 17 7 0 10 -262144
-1 -1;
#X obj 614 240 bng 15 250 50 0 empty empty empty 17 7 0 10 -262144
-1 -1;
#X obj 635 240 bng 15 250 50 0 empty empty empty 17 7 0 10 -262144
-1 -1;
#X obj 656 240 bng 15 250 50 0 empty empty empty 17 7 0 10 -262144
-1 -1;
#X obj 677 240 bng 15 250 50 0 empty empty empty 17 7 0 10 -262144
-1 -1;
#N canvas 1 67 914 424 bass 0;
#X floatatom 10 92 5 0 0 0 - - -;
#X floatatom 43 92 5 0 0 0 - - -;
#X floatatom 76 92 5 0 0 0 - - -;
#X obj 10 70 unpack 0 0 0 0 0 0 0 0 0 0 0 0 0 0 0 0 0 0 0, f 93;
#X floatatom 108 93 5 0 0 0 - - -;
#X floatatom 141 93 5 0 0 0 - - -;
#X floatatom 174 93 5 0 0 0 - - -;
#X floatatom 206 93 5 0 0 0 - - -;
#X floatatom 239 93 5 0 0 0 - - -;
#X floatatom 272 93 5 0 0 0 - - -;
#X floatatom 304 94 5 0 0 0 - - -;
#X floatatom 337 94 5 0 0 0 - - -;
#X floatatom 370 94 5 0 0 0 - - -;
#X obj 8 388 outlet~;
#X obj 9 362 *~ 0.3;
#X obj 9 185 bng 15 250 50 0 empty empty empty 17 7 0 10 -262144 -1
-1;
#X obj 10 10 inlet;
#X obj 47 10 inlet;
#X obj 84 10 inlet;
#X obj 122 11 inlet;
#X obj 159 11 inlet;
#X obj 196 11 inlet;
#X obj 234 11 inlet;
#X obj 271 11 inlet;
#X obj 308 11 inlet;
#X obj 346 12 inlet;
#X obj 383 12 inlet;
#X obj 420 12 inlet;
#X obj 47 129 bng 15 250 50 0 empty empty empty 17 7 0 10 -262144 -1
-1;
#X obj 82 208 bng 15 250 50 0 empty empty empty 17 7 0 10 -262144 -1
-1;
#X obj 124 153 bng 15 250 50 0 empty empty empty 17 7 0 10 -262144
-1 -1;
#X obj 159 119 bng 15 250 50 0 empty empty empty 17 7 0 10 -262144
-1 -1;
#X obj 197 202 bng 15 250 50 0 empty empty empty 17 7 0 10 -262144
-1 -1;
#X obj 234 153 bng 15 250 50 0 empty empty empty 17 7 0 10 -262144
-1 -1;
#X obj 270 121 bng 15 250 50 0 empty empty empty 17 7 0 10 -262144
-1 -1;
#X obj 307 195 bng 15 250 50 0 empty empty empty 17 7 0 10 -262144
-1 -1;
#X obj 347 152 bng 15 250 50 0 empty empty empty 17 7 0 10 -262144
-1 -1;
#X obj 383 226 bng 15 250 50 0 empty empty empty 17 7 0 10 -262144
-1 -1;
#X msg 512 198 1 2 3 4 5 6 7 8 9 10 11 12 13 14;
#X msg 511 219 15 16 17 18 19 20 21 22 23 24 25 26 27 28;
#X obj 9 227 bass_channel;
#X obj 47 171 bass_channel;
#X obj 82 250 bass_channel;
#X obj 124 195 bass_channel;
#X obj 159 161 bass_channel;
#X obj 197 244 bass_channel;
#X obj 234 195 bass_channel;
#X obj 272 160 bass_channel;
#X obj 307 237 bass_channel;
#X obj 347 194 bass_channel;
#X obj 383 268 bass_channel;
#X obj 511 171 loadbang;
#X obj 627 60 bng 15 250 50 0 empty empty empty 17 7 0 10 -262144 -1
-1;
#X obj 628 159 bng 15 250 50 0 empty empty empty 17 7 0 10 -262144
-1 -1;
#X obj 645 160 bng 15 250 50 0 empty empty empty 17 7 0 10 -262144
-1 -1;
#X obj 663 159 bng 15 250 50 0 empty empty empty 17 7 0 10 -262144
-1 -1;
#X obj 679 159 bng 15 250 50 0 empty empty empty 17 7 0 10 -262144
-1 -1;
#X obj 696 159 bng 15 250 50 0 empty empty empty 17 7 0 10 -262144
-1 -1;
#X obj 629 116 sel 0 1;
#X obj 628 91 random 2;
#X connect 0 0 40 1;
#X connect 1 0 41 1;
#X connect 2 0 42 1;
#X connect 3 0 0 0;
#X connect 3 1 1 0;
#X connect 3 2 2 0;
#X connect 3 3 4 0;
#X connect 3 4 5 0;
#X connect 3 5 6 0;
#X connect 3 6 7 0;
#X connect 3 7 8 0;
#X connect 3 8 9 0;
#X connect 3 9 10 0;
#X connect 3 10 11 0;
#X connect 3 11 12 0;
#X connect 4 0 43 1;
#X connect 5 0 44 1;
#X connect 6 0 45 1;
#X connect 7 0 46 1;
#X connect 8 0 47 1;
#X connect 9 0 48 1;
#X connect 10 0 49 1;
#X connect 11 0 50 1;
#X connect 14 0 13 0;
#X connect 15 0 40 0;
#X connect 16 0 15 0;
#X connect 17 0 28 0;
#X connect 18 0 29 0;
#X connect 19 0 30 0;
#X connect 20 0 31 0;
#X connect 20 0 44 0;
#X connect 21 0 32 0;
#X connect 22 0 33 0;
#X connect 23 0 34 0;
#X connect 24 0 35 0;
#X connect 25 0 36 0;
#X connect 26 0 37 0;
#X connect 27 0 52 0;
#X connect 28 0 41 0;
#X connect 29 0 42 0;
#X connect 30 0 43 0;
#X connect 31 0 44 0;
#X connect 32 0 45 0;
#X connect 33 0 46 0;
#X connect 34 0 47 0;
#X connect 35 0 48 0;
#X connect 36 0 49 0;
#X connect 37 0 50 0;
#X connect 38 0 3 0;
#X connect 39 0 3 0;
#X connect 40 0 14 0;
#X connect 41 0 14 0;
#X connect 42 0 14 0;
#X connect 43 0 14 0;
#X connect 44 0 14 0;
#X connect 45 0 14 0;
#X connect 46 0 14 0;
#X connect 47 0 14 0;
#X connect 48 0 14 0;
#X connect 50 0 14 0;
#X connect 51 0 38 0;
#X connect 52 0 59 0;
#X connect 53 0 38 0;
#X connect 54 0 39 0;
#X connect 58 0 53 0;
#X connect 58 1 54 0;
#X connect 58 2 55 0;
#X connect 59 0 58 0;
#X restore 445 258 pd bass;
#X f 39;
#X obj 171 64 transport, f 44;
#X obj 171 35 tgl 15 0 empty empty empty 17 7 0 10 -262144 -1 -1 1
1;
#X obj 170 85 bng 15 250 50 0 empty empty empty 17 7 0 10 -262144 -1
-1;
#X obj 214 85 bng 15 250 50 0 empty empty empty 17 7 0 10 -262144 -1
-1;
#X obj 257 85 bng 15 250 50 0 empty empty empty 17 7 0 10 -262144 -1
-1;
#X obj 300 85 bng 15 250 50 0 empty empty empty 17 7 0 10 -262144 -1
-1;
#X obj 345 85 bng 15 250 50 0 empty empty empty 17 7 0 10 -262144 -1
-1;
#X obj 389 91 bng 15 250 50 0 empty empty empty 17 7 0 10 -262144 -1
-1;
#X obj 432 86 bng 15 250 50 0 empty empty empty 17 7 0 10 -262144 -1
-1;
#X obj 43 423 freeverb~;
#X obj 378 344 *~ 0.2;
#X obj 300 288 *~ 1.4;
#X obj 372 374 *~ 0.4;
#X obj 343 218 *~ 0.7;
#X text 13 7 algobeat 4;
#X obj 785 127 bng 15 250 50 0 empty empty empty 17 7 0 10 -262144
-1 -1;
#X obj 831 106 del 89;
#X obj 785 106 del 356;
#X obj 871 106 del 89;
#X obj 508 241 bng 15 250 50 0 empty empty empty 17 7 0 10 -262144
-1 -1;
#X obj 785 70 bng 15 250 50 0 empty empty empty 17 7 0 10 -262144 -1
-1;
#X obj 832 127 bng 15 250 50 0 empty empty empty 17 7 0 10 -262144
-1 -1;
#X obj 873 128 bng 15 250 50 0 empty empty empty 17 7 0 10 -262144
-1 -1;
#X obj 832 143 bng 15 250 50 0 empty empty empty 17 7 0 10 -262144
-1 -1;
#X obj 847 246 bng 15 250 50 0 empty empty empty 17 7 0 10 -262144
-1 -1;
#X obj 893 225 del 89;
#X obj 933 225 del 89;
#X obj 847 189 bng 15 250 50 0 empty empty empty 17 7 0 10 -262144
-1 -1;
#X obj 894 246 bng 15 250 50 0 empty empty empty 17 7 0 10 -262144
-1 -1;
#X obj 935 247 bng 15 250 50 0 empty empty empty 17 7 0 10 -262144
-1 -1;
#X obj 894 262 bng 15 250 50 0 empty empty empty 17 7 0 10 -262144
-1 -1;
#X obj 842 352 bng 15 250 50 0 empty empty empty 17 7 0 10 -262144
-1 -1;
#X obj 888 331 del 89;
#X obj 928 331 del 89;
#X obj 842 295 bng 15 250 50 0 empty empty empty 17 7 0 10 -262144
-1 -1;
#X obj 889 352 bng 15 250 50 0 empty empty empty 17 7 0 10 -262144
-1 -1;
#X obj 930 353 bng 15 250 50 0 empty empty empty 17 7 0 10 -262144
-1 -1;
#X obj 890 368 bng 15 250 50 0 empty empty empty 17 7 0 10 -262144
-1 -1;
#X obj 840 486 bng 15 250 50 0 empty empty empty 17 7 0 10 -262144
-1 -1;
#X obj 886 465 del 89;
#X obj 926 465 del 89;
#X obj 840 429 bng 15 250 50 0 empty empty empty 17 7 0 10 -262144
-1 -1;
#X obj 887 486 bng 15 250 50 0 empty empty empty 17 7 0 10 -262144
-1 -1;
#X obj 928 487 bng 15 250 50 0 empty empty empty 17 7 0 10 -262144
-1 -1;
#X obj 888 502 bng 15 250 50 0 empty empty empty 17 7 0 10 -262144
-1 -1;
#X obj 847 225 del 712;
#X obj 842 331 del 712;
#X obj 840 465 del 712;
#X obj 975 484 bng 15 250 50 0 empty empty empty 17 7 0 10 -262144
-1 -1;
#X obj 1021 463 del 89;
#X obj 1061 463 del 89;
#X obj 975 427 bng 15 250 50 0 empty empty empty 17 7 0 10 -262144
-1 -1;
#X obj 1022 484 bng 15 250 50 0 empty empty empty 17 7 0 10 -262144
-1 -1;
#X obj 1063 485 bng 15 250 50 0 empty empty empty 17 7 0 10 -262144
-1 -1;
#X obj 1023 500 bng 15 250 50 0 empty empty empty 17 7 0 10 -262144
-1 -1;
#X obj 975 463 del 712;
#X obj 1008 389 bng 15 250 50 0 empty empty empty 17 7 0 10 -262144
-1 -1;
#X obj 1054 368 del 89;
#X obj 1094 368 del 89;
#X obj 1008 332 bng 15 250 50 0 empty empty empty 17 7 0 10 -262144
-1 -1;
#X obj 1055 389 bng 15 250 50 0 empty empty empty 17 7 0 10 -262144
-1 -1;
#X obj 1096 390 bng 15 250 50 0 empty empty empty 17 7 0 10 -262144
-1 -1;
#X obj 1056 405 bng 15 250 50 0 empty empty empty 17 7 0 10 -262144
-1 -1;
#X obj 1008 368 del 712;
#X obj 1034 241 bng 15 250 50 0 empty empty empty 17 7 0 10 -262144
-1 -1;
#X obj 1080 220 del 89;
#X obj 1120 220 del 89;
#X obj 1034 184 bng 15 250 50 0 empty empty empty 17 7 0 10 -262144
-1 -1;
#X obj 1081 241 bng 15 250 50 0 empty empty empty 17 7 0 10 -262144
-1 -1;
#X obj 1122 242 bng 15 250 50 0 empty empty empty 17 7 0 10 -262144
-1 -1;
#X obj 1082 257 bng 15 250 50 0 empty empty empty 17 7 0 10 -262144
-1 -1;
#X obj 1034 220 del 712;
#X obj 550 33 del 712;
#X obj 140 163 spigot;
#X obj 188 163 spigot;
#X obj 103 110 tgl 15 0 empty empty empty 17 7 0 10 -262144 -1 -1 0
1;
#X obj 338 127 spigot;
#X obj 363 18 tgl 15 0 empty empty empty 17 7 0 10 -262144 -1 -1 0
1;
#X obj 462 153 bng 15 250 50 0 empty empty empty 17 7 0 10 -262144
-1 -1;
#X obj 510 82 del 89;
#X obj 589 64 del 89;
#X obj 636 53 del 89;
#X obj 443 33 spigot;
#X obj 510 16 tgl 15 0 empty empty empty 17 7 0 10 -262144 -1 -1 1
1;
#X obj 665 25 del 712;
#X obj 763 26 del 712;
#X obj 934 39 random 100;
#X obj 934 85 sel 1;
#X obj 1028 39 random 100;
#X obj 1028 85 sel 1;
#X obj 1028 62 > 60;
#X msg 19 313 dry 0.9;
#X obj 832 16 del 1236;
#X obj 17 249 loadbang;
#X obj 268 176 del 89;
#X obj 345 312 *~ 0.5;
#X obj 19 179 channel2;
#X obj 15 154 bng 15 250 50 0 empty empty empty 17 7 0 10 -262144 -1
-1;
#X obj 44 149 bng 15 250 50 0 empty empty empty 17 7 0 10 -262144 -1
-1;
#X floatatom 64 113 5 0 0 0 - - -;
#X obj 64 134 pack \$1;
#X obj 19 202 *~ 0.3;
#X obj 66 48 metro 89;
#X obj 131 3 random 100;
#X obj 131 49 sel 1;
#X obj 131 26 > 60;
#X obj 26 49 tgl 15 0 empty empty empty 17 7 0 10 -262144 -1 -1 1 1
;
#X obj 98 21 bng 15 250 50 0 empty empty empty 17 7 0 10 -262144 -1
-1;
#X msg 64 156 ./sound/perc/\$1.wav;
#X obj 929 123 del 1;
#X obj 1028 111 del 2;
#X obj 934 62 > 60;
#X obj 1071 91 random 100;
#X obj 1071 137 sel 1;
#X obj 1071 114 > 60;
#X obj 1151 109 random 100;
#X obj 1151 155 sel 1;
#X obj 1151 132 > 60;
#X obj 1159 25 random 100;
#X obj 1159 71 sel 1;
#X obj 1159 48 > 60;
#X obj 707 496 del 89;
#X obj 381 406 *~ 0.25;
#X obj 1135 497 bng 15 250 50 0 empty empty empty 17 7 0 10 -262144
-1 -1;
#X obj 1161 498 bng 15 250 50 0 empty empty empty 17 7 0 10 -262144
-1 -1;
#X obj 1182 498 bng 15 250 50 0 empty empty empty 17 7 0 10 -262144
-1 -1;
#X obj 1203 498 bng 15 250 50 0 empty empty empty 17 7 0 10 -262144
-1 -1;
#X obj 1224 498 bng 15 250 50 0 empty empty empty 17 7 0 10 -262144
-1 -1;
#X obj 1245 498 bng 15 250 50 0 empty empty empty 17 7 0 10 -262144
-1 -1;
#X obj 1266 498 bng 15 250 50 0 empty empty empty 17 7 0 10 -262144
-1 -1;
#X obj 1287 498 bng 15 250 50 0 empty empty empty 17 7 0 10 -262144
-1 -1;
#X obj 1307 497 bng 15 250 50 0 empty empty empty 17 7 0 10 -262144
-1 -1;
#X obj 1328 497 bng 15 250 50 0 empty empty empty 17 7 0 10 -262144
-1 -1;
#X obj 1349 497 bng 15 250 50 0 empty empty empty 17 7 0 10 -262144
-1 -1;
#X obj 1370 497 bng 15 250 50 0 empty empty empty 17 7 0 10 -262144
-1 -1;
#N canvas 1 67 911 424 misc 0;
#X floatatom 10 92 5 0 0 0 - - -;
#X floatatom 43 92 5 0 0 0 - - -;
#X floatatom 76 92 5 0 0 0 - - -;
#X obj 10 70 unpack 0 0 0 0 0 0 0 0 0 0 0 0 0 0 0 0 0 0 0, f 93;
#X floatatom 108 93 5 0 0 0 - - -;
#X floatatom 141 93 5 0 0 0 - - -;
#X floatatom 174 93 5 0 0 0 - - -;
#X floatatom 206 93 5 0 0 0 - - -;
#X floatatom 239 93 5 0 0 0 - - -;
#X floatatom 272 93 5 0 0 0 - - -;
#X floatatom 304 94 5 0 0 0 - - -;
#X floatatom 337 94 5 0 0 0 - - -;
#X floatatom 370 94 5 0 0 0 - - -;
#X obj 8 388 outlet~;
#X obj 9 362 *~ 0.3;
#X obj 9 185 bng 15 250 50 0 empty empty empty 17 7 0 10 -262144 -1
-1;
#X obj 10 10 inlet;
#X obj 47 10 inlet;
#X obj 84 10 inlet;
#X obj 122 11 inlet;
#X obj 159 11 inlet;
#X obj 196 11 inlet;
#X obj 234 11 inlet;
#X obj 271 11 inlet;
#X obj 308 11 inlet;
#X obj 346 12 inlet;
#X obj 383 12 inlet;
#X obj 420 12 inlet;
#X obj 47 129 bng 15 250 50 0 empty empty empty 17 7 0 10 -262144 -1
-1;
#X obj 82 208 bng 15 250 50 0 empty empty empty 17 7 0 10 -262144 -1
-1;
#X obj 124 153 bng 15 250 50 0 empty empty empty 17 7 0 10 -262144
-1 -1;
#X obj 159 119 bng 15 250 50 0 empty empty empty 17 7 0 10 -262144
-1 -1;
#X obj 197 202 bng 15 250 50 0 empty empty empty 17 7 0 10 -262144
-1 -1;
#X obj 234 153 bng 15 250 50 0 empty empty empty 17 7 0 10 -262144
-1 -1;
#X obj 270 121 bng 15 250 50 0 empty empty empty 17 7 0 10 -262144
-1 -1;
#X obj 307 195 bng 15 250 50 0 empty empty empty 17 7 0 10 -262144
-1 -1;
#X obj 347 152 bng 15 250 50 0 empty empty empty 17 7 0 10 -262144
-1 -1;
#X obj 383 226 bng 15 250 50 0 empty empty empty 17 7 0 10 -262144
-1 -1;
#X msg 513 197 1 2 3 4 5 6 7 8 9 10 11 12 13 14;
#X msg 511 219 15 16 17 18 19 20 21 22 23 24 25 26 27 28;
#X msg 511 242 30 31 32 33 34 35 36 37 38 39 40 41 42 43;
#X msg 511 265 44 45 46 47 48 49 50 51 52 53 54 55 56 57;
#X msg 511 287 60 61 62 63 64 65 66 67 68 69 70 71 72 73;
#X obj 507 148 loadbang;
#X obj 628 92 random 4;
#X obj 629 116 sel 0 1 2 3 4;
#X obj 627 60 bng 15 250 50 0 empty empty empty 17 7 0 10 -262144 -1
-1;
#X obj 628 159 bng 15 250 50 0 empty empty empty 17 7 0 10 -262144
-1 -1;
#X obj 645 160 bng 15 250 50 0 empty empty empty 17 7 0 10 -262144
-1 -1;
#X obj 663 159 bng 15 250 50 0 empty empty empty 17 7 0 10 -262144
-1 -1;
#X obj 679 159 bng 15 250 50 0 empty empty empty 17 7 0 10 -262144
-1 -1;
#X obj 696 159 bng 15 250 50 0 empty empty empty 17 7 0 10 -262144
-1 -1;
#X obj 9 227 misc_channel;
#X obj 47 171 misc_channel;
#X obj 82 250 misc_channel;
#X obj 124 195 misc_channel;
#X obj 159 161 misc_channel;
#X obj 197 244 misc_channel;
#X obj 234 195 misc_channel;
#X obj 272 160 misc_channel;
#X obj 307 237 misc_channel;
#X obj 347 194 misc_channel;
#X obj 383 268 misc_channel;
#X connect 0 0 52 1;
#X connect 1 0 53 1;
#X connect 2 0 54 1;
#X connect 3 0 0 0;
#X connect 3 1 1 0;
#X connect 3 2 2 0;
#X connect 3 3 4 0;
#X connect 3 4 5 0;
#X connect 3 5 6 0;
#X connect 3 6 7 0;
#X connect 3 7 8 0;
#X connect 3 8 9 0;
#X connect 3 9 10 0;
#X connect 3 10 11 0;
#X connect 3 11 12 0;
#X connect 4 0 55 1;
#X connect 5 0 56 1;
#X connect 6 0 57 1;
#X connect 7 0 58 1;
#X connect 8 0 59 1;
#X connect 9 0 60 1;
#X connect 10 0 61 1;
#X connect 11 0 62 1;
#X connect 14 0 13 0;
#X connect 15 0 52 0;
#X connect 16 0 15 0;
#X connect 17 0 28 0;
#X connect 18 0 29 0;
#X connect 19 0 30 0;
#X connect 20 0 31 0;
#X connect 20 0 56 0;
#X connect 21 0 32 0;
#X connect 22 0 33 0;
#X connect 23 0 34 0;
#X connect 24 0 35 0;
#X connect 25 0 36 0;
#X connect 26 0 37 0;
#X connect 27 0 46 0;
#X connect 28 0 53 0;
#X connect 29 0 54 0;
#X connect 30 0 55 0;
#X connect 31 0 56 0;
#X connect 32 0 57 0;
#X connect 33 0 58 0;
#X connect 34 0 59 0;
#X connect 35 0 60 0;
#X connect 36 0 61 0;
#X connect 37 0 62 0;
#X connect 38 0 3 0;
#X connect 39 0 3 0;
#X connect 40 0 3 0;
#X connect 41 0 3 0;
#X connect 42 0 3 0;
#X connect 43 0 39 0;
#X connect 44 0 45 0;
#X connect 45 0 47 0;
#X connect 45 1 48 0;
#X connect 45 2 49 0;
#X connect 45 3 50 0;
#X connect 45 4 51 0;
#X connect 46 0 44 0;
#X connect 47 0 38 0;
#X connect 48 0 39 0;
#X connect 49 0 40 0;
#X connect 50 0 41 0;
#X connect 52 0 14 0;
#X connect 53 0 14 0;
#X connect 54 0 14 0;
#X connect 55 0 14 0;
#X connect 56 0 14 0;
#X connect 57 0 14 0;
#X connect 58 0 14 0;
#X connect 59 0 14 0;
#X connect 60 0 14 0;
#X connect 62 0 14 0;
#X restore 1138 515 pd misc;
#X f 39;
#X obj 1142 474 sel 0 1 2 3 4 5 6 7 8 9 10;
#X obj 216 20 bng 15 250 50 0 empty empty empty 17 7 0 10 -262144 -1
-1;
#X obj 1143 452 random 4;
#X obj 1140 538 *~ 1.7;
#X obj 68 79 random 18;
#X connect 1 0 0 1;
#X connect 1 0 0 0;
#X connect 1 0 7 0;
#X connect 2 0 1 1;
#X connect 3 0 2 0;
#X connect 4 0 3 0;
#X connect 5 0 9 0;
#X connect 5 1 10 0;
#X connect 6 0 8 0;
#X connect 7 0 6 0;
#X connect 8 0 5 0;
#X connect 11 0 124 0;
#X connect 12 0 24 0;
#X connect 13 0 24 1;
#X connect 14 0 24 2;
#X connect 15 0 24 3;
#X connect 16 0 24 4;
#X connect 17 0 24 5;
#X connect 18 0 24 6;
#X connect 19 0 24 7;
#X connect 20 0 24 8;
#X connect 21 0 24 9;
#X connect 22 0 24 10;
#X connect 23 0 24 11;
#X connect 24 0 11 0;
#X connect 25 0 37 0;
#X connect 26 0 37 1;
#X connect 27 0 37 2;
#X connect 28 0 37 3;
#X connect 29 0 37 4;
#X connect 30 0 37 5;
#X connect 31 0 37 6;
#X connect 32 0 37 7;
#X connect 33 0 37 8;
#X connect 34 0 37 9;
#X connect 35 0 37 10;
#X connect 36 0 37 11;
#X connect 38 0 50 0;
#X connect 39 0 50 1;
#X connect 40 0 50 2;
#X connect 41 0 50 3;
#X connect 42 0 50 4;
#X connect 43 0 50 5;
#X connect 44 0 50 6;
#X connect 45 0 50 7;
#X connect 46 0 50 8;
#X connect 47 0 50 9;
#X connect 48 0 50 10;
#X connect 49 0 50 11;
#X connect 50 0 11 0;
#X connect 51 0 63 0;
#X connect 52 0 63 1;
#X connect 53 0 63 2;
#X connect 54 0 63 3;
#X connect 55 0 63 4;
#X connect 56 0 63 5;
#X connect 57 0 63 6;
#X connect 58 0 63 7;
#X connect 59 0 63 8;
#X connect 60 0 63 9;
#X connect 61 0 63 10;
#X connect 62 0 63 11;
#X connect 63 0 237 0;
#X connect 64 0 76 0;
#X connect 65 0 76 1;
#X connect 66 0 76 2;
#X connect 67 0 76 3;
#X connect 68 0 76 4;
#X connect 69 0 76 5;
#X connect 70 0 76 6;
#X connect 71 0 76 7;
#X connect 72 0 76 8;
#X connect 73 0 76 9;
#X connect 74 0 76 10;
#X connect 75 0 76 11;
#X connect 76 0 127 0;
#X connect 77 0 89 0;
#X connect 78 0 89 1;
#X connect 79 0 89 2;
#X connect 80 0 89 3;
#X connect 81 0 89 4;
#X connect 82 0 89 5;
#X connect 83 0 89 6;
#X connect 84 0 89 7;
#X connect 85 0 89 8;
#X connect 86 0 89 9;
#X connect 87 0 89 10;
#X connect 88 0 89 11;
#X connect 89 0 125 0;
#X connect 90 0 102 0;
#X connect 91 0 102 1;
#X connect 92 0 102 2;
#X connect 93 0 102 3;
#X connect 94 0 102 4;
#X connect 95 0 102 5;
#X connect 96 0 102 6;
#X connect 97 0 102 7;
#X connect 98 0 102 8;
#X connect 99 0 102 9;
#X connect 100 0 102 10;
#X connect 101 0 102 11;
#X connect 103 0 114 0;
#X connect 104 0 114 1;
#X connect 105 0 114 2;
#X connect 106 0 114 4;
#X connect 107 0 114 5;
#X connect 108 0 114 6;
#X connect 109 0 114 7;
#X connect 110 0 114 8;
#X connect 111 0 114 9;
#X connect 112 0 114 10;
#X connect 113 0 114 11;
#X connect 114 0 126 0;
#X connect 115 0 117 0;
#X connect 115 1 118 0;
#X connect 115 2 119 0;
#X connect 115 3 120 0;
#X connect 115 4 121 0;
#X connect 115 5 122 0;
#X connect 115 6 123 0;
#X connect 116 0 115 0;
#X connect 117 0 188 0;
#X connect 118 0 189 0;
#X connect 119 0 43 0;
#X connect 120 0 12 0;
#X connect 120 0 197 0;
#X connect 121 0 191 0;
#X connect 121 0 199 0;
#X connect 121 0 209 0;
#X connect 121 0 106 0;
#X connect 122 0 59 0;
#X connect 122 0 203 0;
#X connect 122 0 134 0;
#X connect 122 0 85 0;
#X connect 123 0 174 0;
#X connect 123 0 182 0;
#X connect 123 0 27 0;
#X connect 123 0 187 0;
#X connect 123 0 201 0;
#X connect 123 0 78 0;
#X connect 123 0 252 0;
#X connect 123 0 84 0;
#X connect 124 0 1 0;
#X connect 125 0 11 0;
#X connect 126 0 11 0;
#X connect 127 0 11 0;
#X connect 128 0 11 0;
#X connect 130 0 138 0;
#X connect 131 0 130 0;
#X connect 131 0 133 0;
#X connect 131 0 136 0;
#X connect 132 0 130 0;
#X connect 132 0 131 0;
#X connect 133 0 130 0;
#X connect 133 0 137 0;
#X connect 134 0 114 3;
#X connect 135 0 132 0;
#X connect 135 0 142 0;
#X connect 136 0 138 0;
#X connect 137 0 138 0;
#X connect 138 0 67 0;
#X connect 139 0 145 0;
#X connect 140 0 139 0;
#X connect 140 0 141 0;
#X connect 140 0 143 0;
#X connect 141 0 139 0;
#X connect 141 0 144 0;
#X connect 142 0 149 0;
#X connect 142 0 160 0;
#X connect 143 0 145 0;
#X connect 144 0 145 0;
#X connect 145 0 110 0;
#X connect 146 0 152 0;
#X connect 147 0 146 0;
#X connect 147 0 148 0;
#X connect 147 0 150 0;
#X connect 148 0 146 0;
#X connect 148 0 151 0;
#X connect 149 0 156 0;
#X connect 149 0 161 0;
#X connect 150 0 152 0;
#X connect 151 0 152 0;
#X connect 152 0 109 0;
#X connect 153 0 159 0;
#X connect 154 0 153 0;
#X connect 154 0 155 0;
#X connect 154 0 157 0;
#X connect 155 0 153 0;
#X connect 155 0 158 0;
#X connect 156 0 162 0;
#X connect 156 0 166 0;
#X connect 157 0 159 0;
#X connect 158 0 159 0;
#X connect 159 0 112 0;
#X connect 160 0 139 0;
#X connect 160 0 140 0;
#X connect 161 0 146 0;
#X connect 161 0 147 0;
#X connect 162 0 153 0;
#X connect 162 0 154 0;
#X connect 163 0 169 0;
#X connect 164 0 163 0;
#X connect 164 0 165 0;
#X connect 164 0 167 0;
#X connect 165 0 163 0;
#X connect 165 0 168 0;
#X connect 166 0 170 0;
#X connect 167 0 169 0;
#X connect 168 0 169 0;
#X connect 169 0 67 0;
#X connect 169 0 174 0;
#X connect 170 0 163 0;
#X connect 170 0 164 0;
#X connect 171 0 177 0;
#X connect 172 0 171 0;
#X connect 172 0 173 0;
#X connect 172 0 175 0;
#X connect 173 0 171 0;
#X connect 173 0 176 0;
#X connect 174 0 178 0;
#X connect 174 0 103 0;
#X connect 175 0 177 0;
#X connect 176 0 177 0;
#X connect 176 0 230 0;
#X connect 178 0 171 0;
#X connect 178 0 172 0;
#X connect 179 0 185 0;
#X connect 180 0 179 0;
#X connect 180 0 181 0;
#X connect 180 0 183 0;
#X connect 181 0 179 0;
#X connect 181 0 184 0;
#X connect 182 0 186 0;
#X connect 183 0 185 0;
#X connect 184 0 185 0;
#X connect 185 0 108 0;
#X connect 185 0 107 0;
#X connect 186 0 179 0;
#X connect 186 0 180 0;
#X connect 187 0 58 0;
#X connect 188 0 54 0;
#X connect 189 0 56 0;
#X connect 190 0 189 1;
#X connect 190 0 188 1;
#X connect 190 0 222 0;
#X connect 191 0 135 0;
#X connect 191 0 86 0;
#X connect 192 0 191 1;
#X connect 193 0 25 0;
#X connect 193 0 195 0;
#X connect 194 0 193 0;
#X connect 195 0 25 0;
#X connect 195 0 196 0;
#X connect 196 0 29 0;
#X connect 196 0 25 0;
#X connect 197 0 25 0;
#X connect 197 0 194 0;
#X connect 198 0 197 1;
#X connect 199 0 198 0;
#X connect 200 0 192 0;
#X connect 200 0 207 0;
#X connect 201 0 226 0;
#X connect 202 0 200 0;
#X connect 202 0 224 0;
#X connect 203 0 205 0;
#X connect 204 0 190 0;
#X connect 204 0 225 0;
#X connect 205 0 204 0;
#X connect 206 0 124 0;
#X connect 207 0 192 0;
#X connect 208 0 206 0;
#X connect 208 0 116 0;
#X connect 209 0 43 0;
#X connect 210 0 11 0;
#X connect 211 0 216 0;
#X connect 212 0 211 0;
#X connect 213 0 211 1;
#X connect 214 0 213 0;
#X connect 214 0 215 0;
#X connect 215 0 223 0;
#X connect 216 0 11 0;
#X connect 217 0 255 0;
#X connect 218 0 220 0;
#X connect 219 0 221 0;
#X connect 220 0 219 0;
#X connect 221 0 217 0;
#X connect 222 0 218 0;
#X connect 223 0 211 2;
#X connect 224 0 233 0;
#X connect 225 0 227 0;
#X connect 226 0 202 0;
#X connect 227 0 229 0;
#X connect 228 0 23 0;
#X connect 229 0 228 0;
#X connect 230 0 232 0;
#X connect 231 0 236 0;
#X connect 232 0 231 0;
#X connect 233 0 235 0;
#X connect 234 0 62 0;
#X connect 235 0 234 0;
#X connect 236 0 49 0;
#X connect 237 0 11 0;
#X connect 238 0 250 0;
#X connect 239 0 250 1;
#X connect 240 0 250 2;
#X connect 241 0 250 3;
#X connect 242 0 250 4;
#X connect 243 0 250 5;
#X connect 244 0 250 6;
#X connect 245 0 250 7;
#X connect 246 0 250 8;
#X connect 247 0 250 9;
#X connect 248 0 250 10;
#X connect 249 0 250 11;
#X connect 250 0 254 0;
#X connect 251 1 239 0;
#X connect 251 2 240 0;
#X connect 251 3 241 0;
#X connect 251 4 242 0;
#X connect 251 5 243 0;
#X connect 251 6 244 0;
#X connect 251 7 245 0;
#X connect 251 8 246 0;
#X connect 251 9 247 0;
#X connect 251 10 248 0;
#X connect 252 0 253 0;
#X connect 253 0 251 0;
#X connect 254 0 11 0;
#X connect 255 0 214 0;
