#N canvas 230 149 800 524 10;
#X text 13 7 algobeat 2;
#X obj 53 468 dac~;
#X obj 58 431 *~ 0.4;
#X floatatom 90 408 0 0 0 0 - - -;
#X obj 91 385 dbtorms;
#X floatatom 94 362 0 0 160 0 - - -;
#X obj 154 337 vu 15 120 empty empty -1 -8 0 10 -66577 -1 1 0;
#X obj 154 293 - 100;
#X obj 154 272 env~;
#X floatatom 154 315 5 0 0 0 - - -;
#X floatatom 131 474 5 0 0 0 - - -;
#X floatatom 168 475 5 0 0 0 - - -;
#X obj 38 409 *~ 0.4;
#X obj 26 156 channel2;
#X obj 22 131 bng 15 250 50 0 empty empty empty 17 7 0 10 -262144 -1
-1;
#X obj 51 126 bng 15 250 50 0 empty empty empty 17 7 0 10 -262144 -1
-1;
#X msg 71 133 ./sound/bass/\$1.wav;
#X floatatom 71 90 5 0 0 0 - - -;
#X text 13 22 atmos: 24 samples bass: 55 samples fx: 48 samples hihats:
53 samples kick: 55 samples perc: 14 samples snare: 61 samples synth:
18 samples;
#X obj 71 111 pack \$1;
#X obj 474 408 bng 15 250 50 0 empty empty empty 17 7 0 10 -262144
-1 -1;
#X obj 495 408 bng 15 250 50 0 empty empty empty 17 7 0 10 -262144
-1 -1;
#X obj 516 408 bng 15 250 50 0 empty empty empty 17 7 0 10 -262144
-1 -1;
#X obj 537 408 bng 15 250 50 0 empty empty empty 17 7 0 10 -262144
-1 -1;
#X obj 558 408 bng 15 250 50 0 empty empty empty 17 7 0 10 -262144
-1 -1;
#X obj 579 408 bng 15 250 50 0 empty empty empty 17 7 0 10 -262144
-1 -1;
#X obj 600 408 bng 15 250 50 0 empty empty empty 17 7 0 10 -262144
-1 -1;
#X obj 621 408 bng 15 250 50 0 empty empty empty 17 7 0 10 -262144
-1 -1;
#X obj 641 407 bng 15 250 50 0 empty empty empty 17 7 0 10 -262144
-1 -1;
#X obj 662 407 bng 15 250 50 0 empty empty empty 17 7 0 10 -262144
-1 -1;
#X obj 683 407 bng 15 250 50 0 empty empty empty 17 7 0 10 -262144
-1 -1;
#X obj 704 407 bng 15 250 50 0 empty empty empty 17 7 0 10 -262144
-1 -1;
#N canvas 1 67 911 424 snare 0;
#X floatatom 10 92 5 0 0 0 - - -;
#X floatatom 43 92 5 0 0 0 - - -;
#X floatatom 76 92 5 0 0 0 - - -;
#X obj 10 70 unpack 0 0 0 0 0 0 0 0 0 0 0 0 0 0 0 0 0 0 0, f 93;
#X floatatom 108 93 5 0 0 0 - - -;
#X floatatom 141 93 5 0 0 0 - - -;
#X floatatom 174 93 5 0 0 0 - - -;
#X floatatom 206 93 5 0 0 0 - - -;
#X floatatom 239 93 5 0 0 0 - - -;
#X floatatom 272 93 5 0 0 0 - - -;
#X floatatom 304 94 5 0 0 0 - - -;
#X floatatom 337 94 5 0 0 0 - - -;
#X floatatom 370 94 5 0 0 0 - - -;
#X obj 8 388 outlet~;
#X obj 9 362 *~ 0.3;
#X obj 9 185 bng 15 250 50 0 empty empty empty 17 7 0 10 -262144 -1
-1;
#X obj 10 10 inlet;
#X obj 47 10 inlet;
#X obj 84 10 inlet;
#X obj 122 11 inlet;
#X obj 159 11 inlet;
#X obj 196 11 inlet;
#X obj 234 11 inlet;
#X obj 271 11 inlet;
#X obj 308 11 inlet;
#X obj 346 12 inlet;
#X obj 383 12 inlet;
#X obj 420 12 inlet;
#X obj 47 129 bng 15 250 50 0 empty empty empty 17 7 0 10 -262144 -1
-1;
#X obj 82 208 bng 15 250 50 0 empty empty empty 17 7 0 10 -262144 -1
-1;
#X obj 124 153 bng 15 250 50 0 empty empty empty 17 7 0 10 -262144
-1 -1;
#X obj 159 119 bng 15 250 50 0 empty empty empty 17 7 0 10 -262144
-1 -1;
#X obj 197 202 bng 15 250 50 0 empty empty empty 17 7 0 10 -262144
-1 -1;
#X obj 234 153 bng 15 250 50 0 empty empty empty 17 7 0 10 -262144
-1 -1;
#X obj 270 121 bng 15 250 50 0 empty empty empty 17 7 0 10 -262144
-1 -1;
#X obj 307 195 bng 15 250 50 0 empty empty empty 17 7 0 10 -262144
-1 -1;
#X obj 347 152 bng 15 250 50 0 empty empty empty 17 7 0 10 -262144
-1 -1;
#X obj 383 226 bng 15 250 50 0 empty empty empty 17 7 0 10 -262144
-1 -1;
#X msg 513 197 1 2 3 4 5 6 7 8 9 10 11 12 13 14;
#X msg 511 219 15 16 17 18 19 20 21 22 23 24 25 26 27 28;
#X msg 511 242 30 31 32 33 34 35 36 37 38 39 40 41 42 43;
#X msg 511 265 44 45 46 47 48 49 50 51 52 53 54 55 56 57;
#X obj 9 227 snare_channel;
#X obj 47 171 snare_channel;
#X obj 82 250 snare_channel;
#X obj 124 195 snare_channel;
#X obj 159 161 snare_channel;
#X obj 197 244 snare_channel;
#X obj 234 195 snare_channel;
#X obj 270 163 snare_channel;
#X obj 307 237 snare_channel;
#X obj 347 194 snare_channel;
#X obj 383 268 snare_channel;
#X msg 511 287 60 61 62 63 64 65 66 67 68 69 70 71 72 73;
#X obj 511 171 loadbang;
#X connect 0 0 42 1;
#X connect 1 0 43 1;
#X connect 2 0 44 1;
#X connect 3 0 0 0;
#X connect 3 1 1 0;
#X connect 3 2 2 0;
#X connect 3 3 4 0;
#X connect 3 4 5 0;
#X connect 3 5 6 0;
#X connect 3 6 7 0;
#X connect 3 7 8 0;
#X connect 3 8 9 0;
#X connect 3 9 10 0;
#X connect 3 10 11 0;
#X connect 3 11 12 0;
#X connect 4 0 45 1;
#X connect 5 0 46 1;
#X connect 6 0 47 1;
#X connect 7 0 48 1;
#X connect 8 0 49 1;
#X connect 9 0 50 1;
#X connect 10 0 51 1;
#X connect 11 0 52 1;
#X connect 14 0 13 0;
#X connect 15 0 42 0;
#X connect 16 0 15 0;
#X connect 17 0 28 0;
#X connect 18 0 29 0;
#X connect 19 0 30 0;
#X connect 20 0 31 0;
#X connect 20 0 46 0;
#X connect 21 0 32 0;
#X connect 22 0 33 0;
#X connect 23 0 34 0;
#X connect 24 0 35 0;
#X connect 25 0 36 0;
#X connect 26 0 37 0;
#X connect 28 0 43 0;
#X connect 29 0 44 0;
#X connect 30 0 45 0;
#X connect 31 0 46 0;
#X connect 32 0 47 0;
#X connect 33 0 48 0;
#X connect 34 0 49 0;
#X connect 35 0 50 0;
#X connect 36 0 51 0;
#X connect 37 0 52 0;
#X connect 38 0 3 0;
#X connect 39 0 3 0;
#X connect 40 0 3 0;
#X connect 41 0 3 0;
#X connect 42 0 14 0;
#X connect 43 0 14 0;
#X connect 44 0 14 0;
#X connect 45 0 14 0;
#X connect 46 0 14 0;
#X connect 47 0 14 0;
#X connect 48 0 14 0;
#X connect 49 0 14 0;
#X connect 50 0 14 0;
#X connect 52 0 14 0;
#X connect 53 0 3 0;
#X connect 54 0 38 0;
#X restore 474 427 pd snare;
#X f 39;
#X obj 477 136 bng 15 250 50 0 empty empty empty 17 7 0 10 -262144
-1 -1;
#X obj 498 136 bng 15 250 50 0 empty empty empty 17 7 0 10 -262144
-1 -1;
#X obj 519 136 bng 15 250 50 0 empty empty empty 17 7 0 10 -262144
-1 -1;
#X obj 540 136 bng 15 250 50 0 empty empty empty 17 7 0 10 -262144
-1 -1;
#X obj 561 136 bng 15 250 50 0 empty empty empty 17 7 0 10 -262144
-1 -1;
#X obj 582 136 bng 15 250 50 0 empty empty empty 17 7 0 10 -262144
-1 -1;
#X obj 603 136 bng 15 250 50 0 empty empty empty 17 7 0 10 -262144
-1 -1;
#X obj 624 136 bng 15 250 50 0 empty empty empty 17 7 0 10 -262144
-1 -1;
#X obj 644 135 bng 15 250 50 0 empty empty empty 17 7 0 10 -262144
-1 -1;
#X obj 665 135 bng 15 250 50 0 empty empty empty 17 7 0 10 -262144
-1 -1;
#X obj 686 135 bng 15 250 50 0 empty empty empty 17 7 0 10 -262144
-1 -1;
#X obj 707 135 bng 15 250 50 0 empty empty empty 17 7 0 10 -262144
-1 -1;
#N canvas 1 67 911 424 synth 0;
#X floatatom 10 92 5 0 0 0 - - -;
#X floatatom 43 92 5 0 0 0 - - -;
#X floatatom 76 92 5 0 0 0 - - -;
#X obj 10 70 unpack 0 0 0 0 0 0 0 0 0 0 0 0 0 0 0 0 0 0 0, f 93;
#X floatatom 108 93 5 0 0 0 - - -;
#X floatatom 141 93 5 0 0 0 - - -;
#X floatatom 174 93 5 0 0 0 - - -;
#X floatatom 206 93 5 0 0 0 - - -;
#X floatatom 239 93 5 0 0 0 - - -;
#X floatatom 272 93 5 0 0 0 - - -;
#X floatatom 304 94 5 0 0 0 - - -;
#X floatatom 337 94 5 0 0 0 - - -;
#X floatatom 370 94 5 0 0 0 - - -;
#X obj 8 388 outlet~;
#X obj 9 362 *~ 0.3;
#X obj 9 185 bng 15 250 50 0 empty empty empty 17 7 0 10 -262144 -1
-1;
#X obj 10 10 inlet;
#X obj 47 10 inlet;
#X obj 84 10 inlet;
#X obj 122 11 inlet;
#X obj 159 11 inlet;
#X obj 196 11 inlet;
#X obj 234 11 inlet;
#X obj 271 11 inlet;
#X obj 308 11 inlet;
#X obj 346 12 inlet;
#X obj 383 12 inlet;
#X obj 420 12 inlet;
#X obj 47 129 bng 15 250 50 0 empty empty empty 17 7 0 10 -262144 -1
-1;
#X obj 82 208 bng 15 250 50 0 empty empty empty 17 7 0 10 -262144 -1
-1;
#X obj 124 153 bng 15 250 50 0 empty empty empty 17 7 0 10 -262144
-1 -1;
#X obj 159 119 bng 15 250 50 0 empty empty empty 17 7 0 10 -262144
-1 -1;
#X obj 197 202 bng 15 250 50 0 empty empty empty 17 7 0 10 -262144
-1 -1;
#X obj 234 153 bng 15 250 50 0 empty empty empty 17 7 0 10 -262144
-1 -1;
#X obj 270 121 bng 15 250 50 0 empty empty empty 17 7 0 10 -262144
-1 -1;
#X obj 307 195 bng 15 250 50 0 empty empty empty 17 7 0 10 -262144
-1 -1;
#X obj 347 152 bng 15 250 50 0 empty empty empty 17 7 0 10 -262144
-1 -1;
#X obj 383 226 bng 15 250 50 0 empty empty empty 17 7 0 10 -262144
-1 -1;
#X msg 513 197 1 2 3 4 5 6 7 8 9 10 11 12 13 14;
#X msg 511 219 15 16 17 18 19 20 21 22 23 24 25 26 27 28;
#X msg 511 242 30 31 32 33 34 35 36 37 38 39 40 41 42 43;
#X msg 511 265 44 45 46 47 48 49 50 51 52 53 54 55 56 57;
#X msg 511 287 60 61 62 63 64 65 66 67 68 69 70 71 72 73;
#X obj 9 227 synth_channel;
#X obj 47 171 synth_channel;
#X obj 82 250 synth_channel;
#X obj 159 161 synth_channel;
#X obj 197 244 synth_channel;
#X obj 234 195 synth_channel;
#X obj 272 160 synth_channel;
#X obj 307 237 synth_channel;
#X obj 347 194 synth_channel;
#X obj 383 268 synth_channel;
#X obj 124 195 synth_channel;
#X obj 511 171 loadbang;
#X connect 0 0 43 1;
#X connect 1 0 44 1;
#X connect 2 0 45 1;
#X connect 3 0 0 0;
#X connect 3 1 1 0;
#X connect 3 2 2 0;
#X connect 3 3 4 0;
#X connect 3 4 5 0;
#X connect 3 5 6 0;
#X connect 3 6 7 0;
#X connect 3 7 8 0;
#X connect 3 8 9 0;
#X connect 3 9 10 0;
#X connect 3 10 11 0;
#X connect 3 11 12 0;
#X connect 4 0 53 1;
#X connect 5 0 46 1;
#X connect 6 0 47 1;
#X connect 7 0 48 1;
#X connect 8 0 49 1;
#X connect 9 0 50 1;
#X connect 10 0 51 1;
#X connect 11 0 52 1;
#X connect 14 0 13 0;
#X connect 15 0 43 0;
#X connect 16 0 15 0;
#X connect 17 0 28 0;
#X connect 18 0 29 0;
#X connect 19 0 30 0;
#X connect 20 0 31 0;
#X connect 20 0 46 0;
#X connect 21 0 32 0;
#X connect 22 0 33 0;
#X connect 23 0 34 0;
#X connect 24 0 35 0;
#X connect 25 0 36 0;
#X connect 26 0 37 0;
#X connect 28 0 44 0;
#X connect 29 0 45 0;
#X connect 30 0 53 0;
#X connect 31 0 46 0;
#X connect 32 0 47 0;
#X connect 33 0 48 0;
#X connect 34 0 49 0;
#X connect 35 0 50 0;
#X connect 36 0 51 0;
#X connect 37 0 52 0;
#X connect 38 0 3 0;
#X connect 39 0 3 0;
#X connect 40 0 3 0;
#X connect 41 0 3 0;
#X connect 42 0 3 0;
#X connect 43 0 14 0;
#X connect 44 0 14 0;
#X connect 45 0 14 0;
#X connect 46 0 14 0;
#X connect 47 0 14 0;
#X connect 48 0 14 0;
#X connect 49 0 14 0;
#X connect 50 0 14 0;
#X connect 52 0 14 0;
#X connect 53 0 14 0;
#X connect 54 0 38 0;
#X restore 475 153 pd synth;
#X f 39;
#X obj 476 451 bng 15 250 50 0 empty empty empty 17 7 0 10 -262144
-1 -1;
#X obj 497 451 bng 15 250 50 0 empty empty empty 17 7 0 10 -262144
-1 -1;
#X obj 518 451 bng 15 250 50 0 empty empty empty 17 7 0 10 -262144
-1 -1;
#X obj 539 451 bng 15 250 50 0 empty empty empty 17 7 0 10 -262144
-1 -1;
#X obj 560 451 bng 15 250 50 0 empty empty empty 17 7 0 10 -262144
-1 -1;
#X obj 581 451 bng 15 250 50 0 empty empty empty 17 7 0 10 -262144
-1 -1;
#X obj 602 451 bng 15 250 50 0 empty empty empty 17 7 0 10 -262144
-1 -1;
#X obj 623 451 bng 15 250 50 0 empty empty empty 17 7 0 10 -262144
-1 -1;
#X obj 643 450 bng 15 250 50 0 empty empty empty 17 7 0 10 -262144
-1 -1;
#X obj 664 450 bng 15 250 50 0 empty empty empty 17 7 0 10 -262144
-1 -1;
#X obj 685 450 bng 15 250 50 0 empty empty empty 17 7 0 10 -262144
-1 -1;
#X obj 706 450 bng 15 250 50 0 empty empty empty 17 7 0 10 -262144
-1 -1;
#N canvas 1 67 911 424 kick 0;
#X floatatom 10 92 5 0 0 0 - - -;
#X floatatom 43 92 5 0 0 0 - - -;
#X floatatom 76 92 5 0 0 0 - - -;
#X obj 10 70 unpack 0 0 0 0 0 0 0 0 0 0 0 0 0 0 0 0 0 0 0, f 93;
#X floatatom 108 93 5 0 0 0 - - -;
#X floatatom 141 93 5 0 0 0 - - -;
#X floatatom 174 93 5 0 0 0 - - -;
#X floatatom 206 93 5 0 0 0 - - -;
#X floatatom 239 93 5 0 0 0 - - -;
#X floatatom 272 93 5 0 0 0 - - -;
#X floatatom 304 94 5 0 0 0 - - -;
#X floatatom 337 94 5 0 0 0 - - -;
#X floatatom 370 94 5 0 0 0 - - -;
#X obj 8 388 outlet~;
#X obj 9 362 *~ 0.3;
#X obj 9 185 bng 15 250 50 0 empty empty empty 17 7 0 10 -262144 -1
-1;
#X obj 10 10 inlet;
#X obj 47 10 inlet;
#X obj 84 10 inlet;
#X obj 122 11 inlet;
#X obj 159 11 inlet;
#X obj 196 11 inlet;
#X obj 234 11 inlet;
#X obj 271 11 inlet;
#X obj 308 11 inlet;
#X obj 346 12 inlet;
#X obj 383 12 inlet;
#X obj 420 12 inlet;
#X obj 47 129 bng 15 250 50 0 empty empty empty 17 7 0 10 -262144 -1
-1;
#X obj 82 208 bng 15 250 50 0 empty empty empty 17 7 0 10 -262144 -1
-1;
#X obj 124 153 bng 15 250 50 0 empty empty empty 17 7 0 10 -262144
-1 -1;
#X obj 159 119 bng 15 250 50 0 empty empty empty 17 7 0 10 -262144
-1 -1;
#X obj 197 202 bng 15 250 50 0 empty empty empty 17 7 0 10 -262144
-1 -1;
#X obj 234 153 bng 15 250 50 0 empty empty empty 17 7 0 10 -262144
-1 -1;
#X obj 270 121 bng 15 250 50 0 empty empty empty 17 7 0 10 -262144
-1 -1;
#X obj 307 195 bng 15 250 50 0 empty empty empty 17 7 0 10 -262144
-1 -1;
#X obj 347 152 bng 15 250 50 0 empty empty empty 17 7 0 10 -262144
-1 -1;
#X obj 383 226 bng 15 250 50 0 empty empty empty 17 7 0 10 -262144
-1 -1;
#X msg 513 197 1 2 3 4 5 6 7 8 9 10 11 12 13 14;
#X msg 511 219 15 16 17 18 19 20 21 22 23 24 25 26 27 28;
#X msg 511 242 30 31 32 33 34 35 36 37 38 39 40 41 42 43;
#X msg 511 265 44 45 46 47 48 49 50 51 52 53 54 55 56 57;
#X msg 511 287 60 61 62 63 64 65 66 67 68 69 70 71 72 73;
#X obj 9 227 kick_channel;
#X obj 47 171 kick_channel;
#X obj 82 250 kick_channel;
#X obj 124 195 kick_channel;
#X obj 159 161 kick_channel;
#X obj 197 244 kick_channel;
#X obj 234 195 kick_channel;
#X obj 272 160 kick_channel;
#X obj 307 237 kick_channel;
#X obj 347 194 kick_channel;
#X obj 383 268 kick_channel;
#X obj 511 171 loadbang;
#X connect 0 0 43 1;
#X connect 1 0 44 1;
#X connect 2 0 45 1;
#X connect 3 0 0 0;
#X connect 3 1 1 0;
#X connect 3 2 2 0;
#X connect 3 3 4 0;
#X connect 3 4 5 0;
#X connect 3 5 6 0;
#X connect 3 6 7 0;
#X connect 3 7 8 0;
#X connect 3 8 9 0;
#X connect 3 9 10 0;
#X connect 3 10 11 0;
#X connect 3 11 12 0;
#X connect 4 0 46 1;
#X connect 5 0 47 1;
#X connect 6 0 48 1;
#X connect 7 0 49 1;
#X connect 8 0 50 1;
#X connect 9 0 51 1;
#X connect 10 0 52 1;
#X connect 11 0 53 1;
#X connect 14 0 13 0;
#X connect 15 0 43 0;
#X connect 16 0 15 0;
#X connect 17 0 28 0;
#X connect 18 0 29 0;
#X connect 19 0 30 0;
#X connect 20 0 31 0;
#X connect 20 0 47 0;
#X connect 21 0 32 0;
#X connect 22 0 33 0;
#X connect 23 0 34 0;
#X connect 24 0 35 0;
#X connect 25 0 36 0;
#X connect 26 0 37 0;
#X connect 28 0 44 0;
#X connect 29 0 45 0;
#X connect 30 0 46 0;
#X connect 31 0 47 0;
#X connect 32 0 48 0;
#X connect 33 0 49 0;
#X connect 34 0 50 0;
#X connect 35 0 51 0;
#X connect 36 0 52 0;
#X connect 37 0 53 0;
#X connect 38 0 3 0;
#X connect 39 0 3 0;
#X connect 40 0 3 0;
#X connect 41 0 3 0;
#X connect 42 0 3 0;
#X connect 43 0 14 0;
#X connect 44 0 14 0;
#X connect 45 0 14 0;
#X connect 46 0 14 0;
#X connect 47 0 14 0;
#X connect 48 0 14 0;
#X connect 49 0 14 0;
#X connect 50 0 14 0;
#X connect 51 0 14 0;
#X connect 53 0 14 0;
#X connect 54 0 38 0;
#X restore 474 468 pd kick;
#X f 39;
#X obj 477 362 bng 15 250 50 0 empty empty empty 17 7 0 10 -262144
-1 -1;
#X obj 498 362 bng 15 250 50 0 empty empty empty 17 7 0 10 -262144
-1 -1;
#X obj 519 362 bng 15 250 50 0 empty empty empty 17 7 0 10 -262144
-1 -1;
#X obj 540 362 bng 15 250 50 0 empty empty empty 17 7 0 10 -262144
-1 -1;
#X obj 561 362 bng 15 250 50 0 empty empty empty 17 7 0 10 -262144
-1 -1;
#X obj 582 362 bng 15 250 50 0 empty empty empty 17 7 0 10 -262144
-1 -1;
#X obj 603 362 bng 15 250 50 0 empty empty empty 17 7 0 10 -262144
-1 -1;
#X obj 624 362 bng 15 250 50 0 empty empty empty 17 7 0 10 -262144
-1 -1;
#X obj 644 361 bng 15 250 50 0 empty empty empty 17 7 0 10 -262144
-1 -1;
#X obj 665 361 bng 15 250 50 0 empty empty empty 17 7 0 10 -262144
-1 -1;
#X obj 686 361 bng 15 250 50 0 empty empty empty 17 7 0 10 -262144
-1 -1;
#X obj 707 361 bng 15 250 50 0 empty empty empty 17 7 0 10 -262144
-1 -1;
#N canvas 1 67 911 424 hihats 0;
#X floatatom 10 92 5 0 0 0 - - -;
#X floatatom 43 92 5 0 0 0 - - -;
#X floatatom 76 92 5 0 0 0 - - -;
#X obj 10 70 unpack 0 0 0 0 0 0 0 0 0 0 0 0 0 0 0 0 0 0 0, f 93;
#X floatatom 108 93 5 0 0 0 - - -;
#X floatatom 141 93 5 0 0 0 - - -;
#X floatatom 174 93 5 0 0 0 - - -;
#X floatatom 206 93 5 0 0 0 - - -;
#X floatatom 239 93 5 0 0 0 - - -;
#X floatatom 272 93 5 0 0 0 - - -;
#X floatatom 304 94 5 0 0 0 - - -;
#X floatatom 337 94 5 0 0 0 - - -;
#X floatatom 370 94 5 0 0 0 - - -;
#X obj 8 388 outlet~;
#X obj 9 362 *~ 0.3;
#X obj 9 185 bng 15 250 50 0 empty empty empty 17 7 0 10 -262144 -1
-1;
#X obj 10 10 inlet;
#X obj 47 10 inlet;
#X obj 84 10 inlet;
#X obj 122 11 inlet;
#X obj 159 11 inlet;
#X obj 196 11 inlet;
#X obj 234 11 inlet;
#X obj 271 11 inlet;
#X obj 308 11 inlet;
#X obj 346 12 inlet;
#X obj 383 12 inlet;
#X obj 420 12 inlet;
#X obj 47 129 bng 15 250 50 0 empty empty empty 17 7 0 10 -262144 -1
-1;
#X obj 82 208 bng 15 250 50 0 empty empty empty 17 7 0 10 -262144 -1
-1;
#X obj 124 153 bng 15 250 50 0 empty empty empty 17 7 0 10 -262144
-1 -1;
#X obj 159 119 bng 15 250 50 0 empty empty empty 17 7 0 10 -262144
-1 -1;
#X obj 197 202 bng 15 250 50 0 empty empty empty 17 7 0 10 -262144
-1 -1;
#X obj 234 153 bng 15 250 50 0 empty empty empty 17 7 0 10 -262144
-1 -1;
#X obj 270 121 bng 15 250 50 0 empty empty empty 17 7 0 10 -262144
-1 -1;
#X obj 307 195 bng 15 250 50 0 empty empty empty 17 7 0 10 -262144
-1 -1;
#X obj 347 152 bng 15 250 50 0 empty empty empty 17 7 0 10 -262144
-1 -1;
#X obj 383 226 bng 15 250 50 0 empty empty empty 17 7 0 10 -262144
-1 -1;
#X msg 513 197 1 2 3 4 5 6 7 8 9 10 11 12 13 14;
#X msg 511 219 15 16 17 18 19 20 21 22 23 24 25 26 27 28;
#X msg 511 242 30 31 32 33 34 35 36 37 38 39 40 41 42 43;
#X msg 511 265 44 45 46 47 48 49 50 51 52 53 54 55 56 57;
#X msg 511 287 60 61 62 63 64 65 66 67 68 69 70 71 72 73;
#X obj 9 227 hihats_channel;
#X obj 47 171 hihats_channel;
#X obj 82 250 hihats_channel;
#X obj 124 195 hihats_channel;
#X obj 159 161 hihats_channel;
#X obj 197 244 hihats_channel;
#X obj 234 195 hihats_channel;
#X obj 272 160 hihats_channel;
#X obj 307 237 hihats_channel;
#X obj 347 194 hihats_channel;
#X obj 383 268 hihats_channel;
#X obj 511 171 loadbang;
#X connect 0 0 43 1;
#X connect 1 0 44 1;
#X connect 2 0 45 1;
#X connect 3 0 0 0;
#X connect 3 1 1 0;
#X connect 3 2 2 0;
#X connect 3 3 4 0;
#X connect 3 4 5 0;
#X connect 3 5 6 0;
#X connect 3 6 7 0;
#X connect 3 7 8 0;
#X connect 3 8 9 0;
#X connect 3 9 10 0;
#X connect 3 10 11 0;
#X connect 3 11 12 0;
#X connect 4 0 46 1;
#X connect 5 0 47 1;
#X connect 6 0 48 1;
#X connect 7 0 49 1;
#X connect 8 0 50 1;
#X connect 9 0 51 1;
#X connect 10 0 52 1;
#X connect 11 0 53 1;
#X connect 14 0 13 0;
#X connect 15 0 43 0;
#X connect 16 0 15 0;
#X connect 17 0 28 0;
#X connect 18 0 29 0;
#X connect 19 0 30 0;
#X connect 20 0 31 0;
#X connect 20 0 47 0;
#X connect 21 0 32 0;
#X connect 22 0 33 0;
#X connect 23 0 34 0;
#X connect 24 0 35 0;
#X connect 25 0 36 0;
#X connect 26 0 37 0;
#X connect 28 0 44 0;
#X connect 29 0 45 0;
#X connect 30 0 46 0;
#X connect 31 0 47 0;
#X connect 32 0 48 0;
#X connect 33 0 49 0;
#X connect 34 0 50 0;
#X connect 35 0 51 0;
#X connect 36 0 52 0;
#X connect 37 0 53 0;
#X connect 38 0 3 0;
#X connect 39 0 3 0;
#X connect 40 0 3 0;
#X connect 41 0 3 0;
#X connect 42 0 3 0;
#X connect 43 0 14 0;
#X connect 44 0 14 0;
#X connect 45 0 14 0;
#X connect 46 0 14 0;
#X connect 47 0 14 0;
#X connect 48 0 14 0;
#X connect 49 0 14 0;
#X connect 50 0 14 0;
#X connect 51 0 14 0;
#X connect 53 0 14 0;
#X connect 54 0 38 0;
#X restore 475 379 pd hihats;
#X f 39;
#X obj 478 317 bng 15 250 50 0 empty empty empty 17 7 0 10 -262144
-1 -1;
#X obj 499 317 bng 15 250 50 0 empty empty empty 17 7 0 10 -262144
-1 -1;
#X obj 520 317 bng 15 250 50 0 empty empty empty 17 7 0 10 -262144
-1 -1;
#X obj 541 317 bng 15 250 50 0 empty empty empty 17 7 0 10 -262144
-1 -1;
#X obj 562 317 bng 15 250 50 0 empty empty empty 17 7 0 10 -262144
-1 -1;
#X obj 583 317 bng 15 250 50 0 empty empty empty 17 7 0 10 -262144
-1 -1;
#X obj 604 317 bng 15 250 50 0 empty empty empty 17 7 0 10 -262144
-1 -1;
#X obj 625 317 bng 15 250 50 0 empty empty empty 17 7 0 10 -262144
-1 -1;
#X obj 645 316 bng 15 250 50 0 empty empty empty 17 7 0 10 -262144
-1 -1;
#X obj 666 316 bng 15 250 50 0 empty empty empty 17 7 0 10 -262144
-1 -1;
#X obj 687 316 bng 15 250 50 0 empty empty empty 17 7 0 10 -262144
-1 -1;
#X obj 708 316 bng 15 250 50 0 empty empty empty 17 7 0 10 -262144
-1 -1;
#N canvas 1 67 911 424 perc 0;
#X floatatom 10 92 5 0 0 0 - - -;
#X floatatom 43 92 5 0 0 0 - - -;
#X floatatom 76 92 5 0 0 0 - - -;
#X obj 10 70 unpack 0 0 0 0 0 0 0 0 0 0 0 0 0 0 0 0 0 0 0, f 93;
#X floatatom 108 93 5 0 0 0 - - -;
#X floatatom 141 93 5 0 0 0 - - -;
#X floatatom 174 93 5 0 0 0 - - -;
#X floatatom 206 93 5 0 0 0 - - -;
#X floatatom 239 93 5 0 0 0 - - -;
#X floatatom 272 93 5 0 0 0 - - -;
#X floatatom 304 94 5 0 0 0 - - -;
#X floatatom 337 94 5 0 0 0 - - -;
#X floatatom 370 94 5 0 0 0 - - -;
#X obj 8 388 outlet~;
#X obj 9 362 *~ 0.3;
#X obj 9 185 bng 15 250 50 0 empty empty empty 17 7 0 10 -262144 -1
-1;
#X obj 10 10 inlet;
#X obj 47 10 inlet;
#X obj 84 10 inlet;
#X obj 122 11 inlet;
#X obj 159 11 inlet;
#X obj 196 11 inlet;
#X obj 234 11 inlet;
#X obj 271 11 inlet;
#X obj 308 11 inlet;
#X obj 346 12 inlet;
#X obj 383 12 inlet;
#X obj 420 12 inlet;
#X obj 47 129 bng 15 250 50 0 empty empty empty 17 7 0 10 -262144 -1
-1;
#X obj 82 208 bng 15 250 50 0 empty empty empty 17 7 0 10 -262144 -1
-1;
#X obj 124 153 bng 15 250 50 0 empty empty empty 17 7 0 10 -262144
-1 -1;
#X obj 159 119 bng 15 250 50 0 empty empty empty 17 7 0 10 -262144
-1 -1;
#X obj 197 202 bng 15 250 50 0 empty empty empty 17 7 0 10 -262144
-1 -1;
#X obj 234 153 bng 15 250 50 0 empty empty empty 17 7 0 10 -262144
-1 -1;
#X obj 270 121 bng 15 250 50 0 empty empty empty 17 7 0 10 -262144
-1 -1;
#X obj 307 195 bng 15 250 50 0 empty empty empty 17 7 0 10 -262144
-1 -1;
#X obj 347 152 bng 15 250 50 0 empty empty empty 17 7 0 10 -262144
-1 -1;
#X obj 383 226 bng 15 250 50 0 empty empty empty 17 7 0 10 -262144
-1 -1;
#X msg 512 198 1 2 3 4 5 6 7 8 9 10 11 12 13 14;
#X msg 511 219 15 16 17 18 19 20 21 22 23 24 25 26 27 28;
#X msg 511 242 30 31 32 33 34 35 36 37 38 39 40 41 42 43;
#X msg 511 265 44 45 46 47 48 49 50 51 52 53 54 55 56 57;
#X msg 511 287 60 61 62 63 64 65 66 67 68 69 70 71 72 73;
#X obj 9 227 perc_channel;
#X obj 47 171 perc_channel;
#X obj 82 250 perc_channel;
#X obj 124 195 perc_channel;
#X obj 159 161 perc_channel;
#X obj 197 244 perc_channel;
#X obj 234 195 perc_channel;
#X obj 272 160 perc_channel;
#X obj 307 237 perc_channel;
#X obj 347 194 perc_channel;
#X obj 383 268 perc_channel;
#X obj 511 171 loadbang;
#X connect 0 0 43 1;
#X connect 1 0 44 1;
#X connect 2 0 45 1;
#X connect 3 0 0 0;
#X connect 3 1 1 0;
#X connect 3 2 2 0;
#X connect 3 3 4 0;
#X connect 3 4 5 0;
#X connect 3 5 6 0;
#X connect 3 6 7 0;
#X connect 3 7 8 0;
#X connect 3 8 9 0;
#X connect 3 9 10 0;
#X connect 3 10 11 0;
#X connect 3 11 12 0;
#X connect 4 0 46 1;
#X connect 5 0 47 1;
#X connect 6 0 48 1;
#X connect 7 0 49 1;
#X connect 8 0 50 1;
#X connect 9 0 51 1;
#X connect 10 0 52 1;
#X connect 11 0 53 1;
#X connect 14 0 13 0;
#X connect 15 0 43 0;
#X connect 16 0 15 0;
#X connect 17 0 28 0;
#X connect 18 0 29 0;
#X connect 19 0 30 0;
#X connect 20 0 31 0;
#X connect 20 0 47 0;
#X connect 21 0 32 0;
#X connect 22 0 33 0;
#X connect 23 0 34 0;
#X connect 24 0 35 0;
#X connect 25 0 36 0;
#X connect 26 0 37 0;
#X connect 28 0 44 0;
#X connect 29 0 45 0;
#X connect 30 0 46 0;
#X connect 31 0 47 0;
#X connect 32 0 48 0;
#X connect 33 0 49 0;
#X connect 34 0 50 0;
#X connect 35 0 51 0;
#X connect 36 0 52 0;
#X connect 37 0 53 0;
#X connect 38 0 3 0;
#X connect 39 0 3 0;
#X connect 40 0 3 0;
#X connect 41 0 3 0;
#X connect 42 0 3 0;
#X connect 43 0 14 0;
#X connect 44 0 14 0;
#X connect 45 0 14 0;
#X connect 46 0 14 0;
#X connect 47 0 14 0;
#X connect 48 0 14 0;
#X connect 49 0 14 0;
#X connect 50 0 14 0;
#X connect 51 0 14 0;
#X connect 53 0 14 0;
#X connect 54 0 38 0;
#X restore 476 334 pd perc;
#X f 39;
#X obj 478 273 bng 15 250 50 0 empty empty empty 17 7 0 10 -262144
-1 -1;
#X obj 499 273 bng 15 250 50 0 empty empty empty 17 7 0 10 -262144
-1 -1;
#X obj 520 273 bng 15 250 50 0 empty empty empty 17 7 0 10 -262144
-1 -1;
#X obj 541 273 bng 15 250 50 0 empty empty empty 17 7 0 10 -262144
-1 -1;
#X obj 562 273 bng 15 250 50 0 empty empty empty 17 7 0 10 -262144
-1 -1;
#X obj 583 273 bng 15 250 50 0 empty empty empty 17 7 0 10 -262144
-1 -1;
#X obj 604 273 bng 15 250 50 0 empty empty empty 17 7 0 10 -262144
-1 -1;
#X obj 625 273 bng 15 250 50 0 empty empty empty 17 7 0 10 -262144
-1 -1;
#X obj 645 272 bng 15 250 50 0 empty empty empty 17 7 0 10 -262144
-1 -1;
#X obj 666 272 bng 15 250 50 0 empty empty empty 17 7 0 10 -262144
-1 -1;
#X obj 687 272 bng 15 250 50 0 empty empty empty 17 7 0 10 -262144
-1 -1;
#X obj 708 272 bng 15 250 50 0 empty empty empty 17 7 0 10 -262144
-1 -1;
#N canvas 1 67 911 424 fx 0;
#X floatatom 10 92 5 0 0 0 - - -;
#X floatatom 43 92 5 0 0 0 - - -;
#X floatatom 76 92 5 0 0 0 - - -;
#X obj 10 70 unpack 0 0 0 0 0 0 0 0 0 0 0 0 0 0 0 0 0 0 0, f 93;
#X floatatom 108 93 5 0 0 0 - - -;
#X floatatom 141 93 5 0 0 0 - - -;
#X floatatom 174 93 5 0 0 0 - - -;
#X floatatom 206 93 5 0 0 0 - - -;
#X floatatom 239 93 5 0 0 0 - - -;
#X floatatom 272 93 5 0 0 0 - - -;
#X floatatom 304 94 5 0 0 0 - - -;
#X floatatom 337 94 5 0 0 0 - - -;
#X floatatom 370 94 5 0 0 0 - - -;
#X obj 8 388 outlet~;
#X obj 9 362 *~ 0.3;
#X obj 9 185 bng 15 250 50 0 empty empty empty 17 7 0 10 -262144 -1
-1;
#X obj 10 10 inlet;
#X obj 47 10 inlet;
#X obj 84 10 inlet;
#X obj 122 11 inlet;
#X obj 159 11 inlet;
#X obj 196 11 inlet;
#X obj 234 11 inlet;
#X obj 271 11 inlet;
#X obj 308 11 inlet;
#X obj 346 12 inlet;
#X obj 383 12 inlet;
#X obj 420 12 inlet;
#X obj 47 129 bng 15 250 50 0 empty empty empty 17 7 0 10 -262144 -1
-1;
#X obj 82 208 bng 15 250 50 0 empty empty empty 17 7 0 10 -262144 -1
-1;
#X obj 124 153 bng 15 250 50 0 empty empty empty 17 7 0 10 -262144
-1 -1;
#X obj 159 119 bng 15 250 50 0 empty empty empty 17 7 0 10 -262144
-1 -1;
#X obj 197 202 bng 15 250 50 0 empty empty empty 17 7 0 10 -262144
-1 -1;
#X obj 234 153 bng 15 250 50 0 empty empty empty 17 7 0 10 -262144
-1 -1;
#X obj 270 121 bng 15 250 50 0 empty empty empty 17 7 0 10 -262144
-1 -1;
#X obj 307 195 bng 15 250 50 0 empty empty empty 17 7 0 10 -262144
-1 -1;
#X obj 347 152 bng 15 250 50 0 empty empty empty 17 7 0 10 -262144
-1 -1;
#X obj 383 226 bng 15 250 50 0 empty empty empty 17 7 0 10 -262144
-1 -1;
#X msg 512 198 1 2 3 4 5 6 7 8 9 10 11 12 13 14;
#X msg 511 219 15 16 17 18 19 20 21 22 23 24 25 26 27 28;
#X msg 511 242 30 31 32 33 34 35 36 37 38 39 40 41 42 43;
#X msg 511 265 44 45 46 47 48 49 50 51 52 53 54 55 56 57;
#X msg 511 287 60 61 62 63 64 65 66 67 68 69 70 71 72 73;
#X obj 9 227 fx_channel;
#X obj 47 171 fx_channel;
#X obj 82 250 fx_channel;
#X obj 124 195 fx_channel;
#X obj 159 161 fx_channel;
#X obj 197 244 fx_channel;
#X obj 234 195 fx_channel;
#X obj 272 160 fx_channel;
#X obj 307 237 fx_channel;
#X obj 347 194 fx_channel;
#X obj 383 268 fx_channel;
#X obj 511 171 loadbang;
#X connect 0 0 43 1;
#X connect 1 0 44 1;
#X connect 2 0 45 1;
#X connect 3 0 0 0;
#X connect 3 1 1 0;
#X connect 3 2 2 0;
#X connect 3 3 4 0;
#X connect 3 4 5 0;
#X connect 3 5 6 0;
#X connect 3 6 7 0;
#X connect 3 7 8 0;
#X connect 3 8 9 0;
#X connect 3 9 10 0;
#X connect 3 10 11 0;
#X connect 3 11 12 0;
#X connect 4 0 46 1;
#X connect 5 0 47 1;
#X connect 6 0 48 1;
#X connect 7 0 49 1;
#X connect 8 0 50 1;
#X connect 9 0 51 1;
#X connect 10 0 52 1;
#X connect 11 0 53 1;
#X connect 14 0 13 0;
#X connect 15 0 43 0;
#X connect 16 0 15 0;
#X connect 17 0 28 0;
#X connect 18 0 29 0;
#X connect 19 0 30 0;
#X connect 20 0 31 0;
#X connect 20 0 47 0;
#X connect 21 0 32 0;
#X connect 22 0 33 0;
#X connect 23 0 34 0;
#X connect 24 0 35 0;
#X connect 25 0 36 0;
#X connect 26 0 37 0;
#X connect 28 0 44 0;
#X connect 29 0 45 0;
#X connect 30 0 46 0;
#X connect 31 0 47 0;
#X connect 32 0 48 0;
#X connect 33 0 49 0;
#X connect 34 0 50 0;
#X connect 35 0 51 0;
#X connect 36 0 52 0;
#X connect 37 0 53 0;
#X connect 38 0 3 0;
#X connect 39 0 3 0;
#X connect 40 0 3 0;
#X connect 41 0 3 0;
#X connect 42 0 3 0;
#X connect 43 0 14 0;
#X connect 44 0 14 0;
#X connect 45 0 14 0;
#X connect 46 0 14 0;
#X connect 47 0 14 0;
#X connect 48 0 14 0;
#X connect 49 0 14 0;
#X connect 50 0 14 0;
#X connect 51 0 14 0;
#X connect 53 0 14 0;
#X connect 54 0 38 0;
#X restore 476 290 pd fx;
#X f 39;
#X obj 478 228 bng 15 250 50 0 empty empty empty 17 7 0 10 -262144
-1 -1;
#X obj 499 228 bng 15 250 50 0 empty empty empty 17 7 0 10 -262144
-1 -1;
#X obj 520 228 bng 15 250 50 0 empty empty empty 17 7 0 10 -262144
-1 -1;
#X obj 541 228 bng 15 250 50 0 empty empty empty 17 7 0 10 -262144
-1 -1;
#X obj 562 228 bng 15 250 50 0 empty empty empty 17 7 0 10 -262144
-1 -1;
#X obj 583 228 bng 15 250 50 0 empty empty empty 17 7 0 10 -262144
-1 -1;
#X obj 604 228 bng 15 250 50 0 empty empty empty 17 7 0 10 -262144
-1 -1;
#X obj 625 228 bng 15 250 50 0 empty empty empty 17 7 0 10 -262144
-1 -1;
#X obj 645 227 bng 15 250 50 0 empty empty empty 17 7 0 10 -262144
-1 -1;
#X obj 666 227 bng 15 250 50 0 empty empty empty 17 7 0 10 -262144
-1 -1;
#X obj 687 227 bng 15 250 50 0 empty empty empty 17 7 0 10 -262144
-1 -1;
#X obj 708 227 bng 15 250 50 0 empty empty empty 17 7 0 10 -262144
-1 -1;
#N canvas 1 67 911 424 atmos 0;
#X floatatom 10 92 5 0 0 0 - - -;
#X floatatom 43 92 5 0 0 0 - - -;
#X floatatom 76 92 5 0 0 0 - - -;
#X obj 10 70 unpack 0 0 0 0 0 0 0 0 0 0 0 0 0 0 0 0 0 0 0, f 93;
#X floatatom 108 93 5 0 0 0 - - -;
#X floatatom 141 93 5 0 0 0 - - -;
#X floatatom 174 93 5 0 0 0 - - -;
#X floatatom 206 93 5 0 0 0 - - -;
#X floatatom 239 93 5 0 0 0 - - -;
#X floatatom 272 93 5 0 0 0 - - -;
#X floatatom 304 94 5 0 0 0 - - -;
#X floatatom 337 94 5 0 0 0 - - -;
#X floatatom 370 94 5 0 0 0 - - -;
#X obj 8 388 outlet~;
#X obj 9 362 *~ 0.3;
#X obj 9 185 bng 15 250 50 0 empty empty empty 17 7 0 10 -262144 -1
-1;
#X obj 10 10 inlet;
#X obj 47 10 inlet;
#X obj 84 10 inlet;
#X obj 122 11 inlet;
#X obj 159 11 inlet;
#X obj 196 11 inlet;
#X obj 234 11 inlet;
#X obj 271 11 inlet;
#X obj 308 11 inlet;
#X obj 346 12 inlet;
#X obj 383 12 inlet;
#X obj 420 12 inlet;
#X obj 47 129 bng 15 250 50 0 empty empty empty 17 7 0 10 -262144 -1
-1;
#X obj 82 208 bng 15 250 50 0 empty empty empty 17 7 0 10 -262144 -1
-1;
#X obj 124 153 bng 15 250 50 0 empty empty empty 17 7 0 10 -262144
-1 -1;
#X obj 159 119 bng 15 250 50 0 empty empty empty 17 7 0 10 -262144
-1 -1;
#X obj 197 202 bng 15 250 50 0 empty empty empty 17 7 0 10 -262144
-1 -1;
#X obj 234 153 bng 15 250 50 0 empty empty empty 17 7 0 10 -262144
-1 -1;
#X obj 270 121 bng 15 250 50 0 empty empty empty 17 7 0 10 -262144
-1 -1;
#X obj 307 195 bng 15 250 50 0 empty empty empty 17 7 0 10 -262144
-1 -1;
#X obj 347 152 bng 15 250 50 0 empty empty empty 17 7 0 10 -262144
-1 -1;
#X obj 383 226 bng 15 250 50 0 empty empty empty 17 7 0 10 -262144
-1 -1;
#X msg 512 198 1 2 3 4 5 6 7 8 9 10 11 12 13 14;
#X msg 511 219 15 16 17 18 19 20 21 22 23 24 25 26 27 28;
#X msg 511 242 30 31 32 33 34 35 36 37 38 39 40 41 42 43;
#X msg 511 265 44 45 46 47 48 49 50 51 52 53 54 55 56 57;
#X msg 511 287 60 61 62 63 64 65 66 67 68 69 70 71 72 73;
#X obj 9 227 atmos_channel;
#X obj 47 171 atmos_channel;
#X obj 82 250 atmos_channel;
#X obj 124 195 atmos_channel;
#X obj 159 161 atmos_channel;
#X obj 197 244 atmos_channel;
#X obj 234 195 atmos_channel;
#X obj 272 160 atmos_channel;
#X obj 307 237 atmos_channel;
#X obj 347 194 atmos_channel;
#X obj 383 268 atmos_channel;
#X obj 511 171 loadbang;
#X connect 0 0 43 1;
#X connect 1 0 44 1;
#X connect 2 0 45 1;
#X connect 3 0 0 0;
#X connect 3 1 1 0;
#X connect 3 2 2 0;
#X connect 3 3 4 0;
#X connect 3 4 5 0;
#X connect 3 5 6 0;
#X connect 3 6 7 0;
#X connect 3 7 8 0;
#X connect 3 8 9 0;
#X connect 3 9 10 0;
#X connect 3 10 11 0;
#X connect 3 11 12 0;
#X connect 4 0 46 1;
#X connect 5 0 47 1;
#X connect 6 0 48 1;
#X connect 7 0 49 1;
#X connect 8 0 50 1;
#X connect 9 0 51 1;
#X connect 10 0 52 1;
#X connect 11 0 53 1;
#X connect 14 0 13 0;
#X connect 15 0 43 0;
#X connect 16 0 15 0;
#X connect 17 0 28 0;
#X connect 18 0 29 0;
#X connect 19 0 30 0;
#X connect 20 0 31 0;
#X connect 20 0 47 0;
#X connect 21 0 32 0;
#X connect 22 0 33 0;
#X connect 23 0 34 0;
#X connect 24 0 35 0;
#X connect 25 0 36 0;
#X connect 26 0 37 0;
#X connect 28 0 44 0;
#X connect 29 0 45 0;
#X connect 30 0 46 0;
#X connect 31 0 47 0;
#X connect 32 0 48 0;
#X connect 33 0 49 0;
#X connect 34 0 50 0;
#X connect 35 0 51 0;
#X connect 36 0 52 0;
#X connect 37 0 53 0;
#X connect 38 0 3 0;
#X connect 39 0 3 0;
#X connect 40 0 3 0;
#X connect 41 0 3 0;
#X connect 42 0 3 0;
#X connect 43 0 14 0;
#X connect 44 0 14 0;
#X connect 45 0 14 0;
#X connect 46 0 14 0;
#X connect 47 0 14 0;
#X connect 48 0 14 0;
#X connect 49 0 14 0;
#X connect 50 0 14 0;
#X connect 51 0 14 0;
#X connect 53 0 14 0;
#X connect 54 0 38 0;
#X restore 476 245 pd atmos;
#X f 39;
#X obj 478 183 bng 15 250 50 0 empty empty empty 17 7 0 10 -262144
-1 -1;
#X obj 499 183 bng 15 250 50 0 empty empty empty 17 7 0 10 -262144
-1 -1;
#X obj 520 183 bng 15 250 50 0 empty empty empty 17 7 0 10 -262144
-1 -1;
#X obj 541 183 bng 15 250 50 0 empty empty empty 17 7 0 10 -262144
-1 -1;
#X obj 562 183 bng 15 250 50 0 empty empty empty 17 7 0 10 -262144
-1 -1;
#X obj 583 183 bng 15 250 50 0 empty empty empty 17 7 0 10 -262144
-1 -1;
#X obj 604 183 bng 15 250 50 0 empty empty empty 17 7 0 10 -262144
-1 -1;
#X obj 625 183 bng 15 250 50 0 empty empty empty 17 7 0 10 -262144
-1 -1;
#X obj 645 182 bng 15 250 50 0 empty empty empty 17 7 0 10 -262144
-1 -1;
#X obj 666 182 bng 15 250 50 0 empty empty empty 17 7 0 10 -262144
-1 -1;
#X obj 687 182 bng 15 250 50 0 empty empty empty 17 7 0 10 -262144
-1 -1;
#X obj 708 182 bng 15 250 50 0 empty empty empty 17 7 0 10 -262144
-1 -1;
#N canvas 1 67 914 424 bass 0;
#X floatatom 10 92 5 0 0 0 - - -;
#X floatatom 43 92 5 0 0 0 - - -;
#X floatatom 76 92 5 0 0 0 - - -;
#X obj 10 70 unpack 0 0 0 0 0 0 0 0 0 0 0 0 0 0 0 0 0 0 0, f 93;
#X floatatom 108 93 5 0 0 0 - - -;
#X floatatom 141 93 5 0 0 0 - - -;
#X floatatom 174 93 5 0 0 0 - - -;
#X floatatom 206 93 5 0 0 0 - - -;
#X floatatom 239 93 5 0 0 0 - - -;
#X floatatom 272 93 5 0 0 0 - - -;
#X floatatom 304 94 5 0 0 0 - - -;
#X floatatom 337 94 5 0 0 0 - - -;
#X floatatom 370 94 5 0 0 0 - - -;
#X obj 8 388 outlet~;
#X obj 9 362 *~ 0.3;
#X obj 9 185 bng 15 250 50 0 empty empty empty 17 7 0 10 -262144 -1
-1;
#X obj 10 10 inlet;
#X obj 47 10 inlet;
#X obj 84 10 inlet;
#X obj 122 11 inlet;
#X obj 159 11 inlet;
#X obj 196 11 inlet;
#X obj 234 11 inlet;
#X obj 271 11 inlet;
#X obj 308 11 inlet;
#X obj 346 12 inlet;
#X obj 383 12 inlet;
#X obj 420 12 inlet;
#X obj 47 129 bng 15 250 50 0 empty empty empty 17 7 0 10 -262144 -1
-1;
#X obj 82 208 bng 15 250 50 0 empty empty empty 17 7 0 10 -262144 -1
-1;
#X obj 124 153 bng 15 250 50 0 empty empty empty 17 7 0 10 -262144
-1 -1;
#X obj 159 119 bng 15 250 50 0 empty empty empty 17 7 0 10 -262144
-1 -1;
#X obj 197 202 bng 15 250 50 0 empty empty empty 17 7 0 10 -262144
-1 -1;
#X obj 234 153 bng 15 250 50 0 empty empty empty 17 7 0 10 -262144
-1 -1;
#X obj 270 121 bng 15 250 50 0 empty empty empty 17 7 0 10 -262144
-1 -1;
#X obj 307 195 bng 15 250 50 0 empty empty empty 17 7 0 10 -262144
-1 -1;
#X obj 347 152 bng 15 250 50 0 empty empty empty 17 7 0 10 -262144
-1 -1;
#X obj 383 226 bng 15 250 50 0 empty empty empty 17 7 0 10 -262144
-1 -1;
#X msg 512 198 1 2 3 4 5 6 7 8 9 10 11 12 13 14;
#X msg 511 219 15 16 17 18 19 20 21 22 23 24 25 26 27 28;
#X msg 511 242 30 31 32 33 34 35 36 37 38 39 40 41 42 43;
#X msg 511 265 44 45 46 47 48 49 50 51 52 53 54 55 56 57;
#X msg 511 287 60 61 62 63 64 65 66 67 68 69 70 71 72 73;
#X obj 9 227 bass_channel;
#X obj 47 171 bass_channel;
#X obj 82 250 bass_channel;
#X obj 124 195 bass_channel;
#X obj 159 161 bass_channel;
#X obj 197 244 bass_channel;
#X obj 234 195 bass_channel;
#X obj 272 160 bass_channel;
#X obj 307 237 bass_channel;
#X obj 347 194 bass_channel;
#X obj 383 268 bass_channel;
#X obj 511 171 loadbang;
#X connect 0 0 43 1;
#X connect 1 0 44 1;
#X connect 2 0 45 1;
#X connect 3 0 0 0;
#X connect 3 1 1 0;
#X connect 3 2 2 0;
#X connect 3 3 4 0;
#X connect 3 4 5 0;
#X connect 3 5 6 0;
#X connect 3 6 7 0;
#X connect 3 7 8 0;
#X connect 3 8 9 0;
#X connect 3 9 10 0;
#X connect 3 10 11 0;
#X connect 3 11 12 0;
#X connect 4 0 46 1;
#X connect 5 0 47 1;
#X connect 6 0 48 1;
#X connect 7 0 49 1;
#X connect 8 0 50 1;
#X connect 9 0 51 1;
#X connect 10 0 52 1;
#X connect 11 0 53 1;
#X connect 14 0 13 0;
#X connect 15 0 43 0;
#X connect 16 0 15 0;
#X connect 17 0 28 0;
#X connect 18 0 29 0;
#X connect 19 0 30 0;
#X connect 20 0 31 0;
#X connect 20 0 47 0;
#X connect 21 0 32 0;
#X connect 22 0 33 0;
#X connect 23 0 34 0;
#X connect 24 0 35 0;
#X connect 25 0 36 0;
#X connect 26 0 37 0;
#X connect 28 0 44 0;
#X connect 29 0 45 0;
#X connect 30 0 46 0;
#X connect 31 0 47 0;
#X connect 32 0 48 0;
#X connect 33 0 49 0;
#X connect 34 0 50 0;
#X connect 35 0 51 0;
#X connect 36 0 52 0;
#X connect 37 0 53 0;
#X connect 38 0 3 0;
#X connect 39 0 3 0;
#X connect 40 0 3 0;
#X connect 41 0 3 0;
#X connect 42 0 3 0;
#X connect 43 0 14 0;
#X connect 44 0 14 0;
#X connect 45 0 14 0;
#X connect 46 0 14 0;
#X connect 47 0 14 0;
#X connect 48 0 14 0;
#X connect 49 0 14 0;
#X connect 50 0 14 0;
#X connect 51 0 14 0;
#X connect 53 0 14 0;
#X connect 54 0 38 0;
#X restore 476 200 pd bass;
#X f 39;
#X connect 2 0 1 1;
#X connect 2 0 1 0;
#X connect 2 0 8 0;
#X connect 3 0 2 1;
#X connect 4 0 3 0;
#X connect 5 0 4 0;
#X connect 6 0 10 0;
#X connect 6 1 11 0;
#X connect 7 0 9 0;
#X connect 8 0 7 0;
#X connect 9 0 6 0;
#X connect 12 0 2 0;
#X connect 13 0 12 0;
#X connect 14 0 13 0;
#X connect 15 0 13 1;
#X connect 16 0 13 2;
#X connect 17 0 15 0;
#X connect 17 0 19 0;
#X connect 19 0 16 0;
#X connect 20 0 32 0;
#X connect 21 0 32 1;
#X connect 22 0 32 2;
#X connect 23 0 32 3;
#X connect 24 0 32 4;
#X connect 25 0 32 5;
#X connect 26 0 32 6;
#X connect 27 0 32 7;
#X connect 28 0 32 8;
#X connect 29 0 32 9;
#X connect 30 0 32 10;
#X connect 31 0 32 11;
#X connect 32 0 12 0;
#X connect 33 0 45 0;
#X connect 34 0 45 1;
#X connect 35 0 45 2;
#X connect 36 0 45 3;
#X connect 37 0 45 4;
#X connect 38 0 45 5;
#X connect 39 0 45 6;
#X connect 40 0 45 7;
#X connect 41 0 45 8;
#X connect 42 0 45 9;
#X connect 43 0 45 10;
#X connect 44 0 45 11;
#X connect 45 0 12 0;
#X connect 46 0 58 0;
#X connect 47 0 58 1;
#X connect 48 0 58 2;
#X connect 49 0 58 3;
#X connect 50 0 58 4;
#X connect 51 0 58 5;
#X connect 52 0 58 6;
#X connect 53 0 58 7;
#X connect 54 0 58 8;
#X connect 55 0 58 9;
#X connect 56 0 58 10;
#X connect 57 0 58 11;
#X connect 58 0 12 0;
#X connect 59 0 71 0;
#X connect 60 0 71 1;
#X connect 61 0 71 2;
#X connect 62 0 71 3;
#X connect 63 0 71 4;
#X connect 64 0 71 5;
#X connect 65 0 71 6;
#X connect 66 0 71 7;
#X connect 67 0 71 8;
#X connect 68 0 71 9;
#X connect 69 0 71 10;
#X connect 70 0 71 11;
#X connect 71 0 12 0;
#X connect 72 0 84 0;
#X connect 73 0 84 1;
#X connect 74 0 84 2;
#X connect 75 0 84 3;
#X connect 76 0 84 4;
#X connect 77 0 84 5;
#X connect 78 0 84 6;
#X connect 79 0 84 7;
#X connect 80 0 84 8;
#X connect 81 0 84 9;
#X connect 82 0 84 10;
#X connect 83 0 84 11;
#X connect 84 0 12 0;
#X connect 85 0 97 0;
#X connect 86 0 97 1;
#X connect 87 0 97 2;
#X connect 88 0 97 3;
#X connect 89 0 97 4;
#X connect 90 0 97 5;
#X connect 91 0 97 6;
#X connect 92 0 97 7;
#X connect 93 0 97 8;
#X connect 94 0 97 9;
#X connect 95 0 97 10;
#X connect 96 0 97 11;
#X connect 97 0 12 0;
#X connect 98 0 110 0;
#X connect 99 0 110 1;
#X connect 100 0 110 2;
#X connect 101 0 110 3;
#X connect 102 0 110 4;
#X connect 103 0 110 5;
#X connect 104 0 110 6;
#X connect 105 0 110 7;
#X connect 106 0 110 8;
#X connect 107 0 110 9;
#X connect 108 0 110 10;
#X connect 109 0 110 11;
#X connect 110 0 12 0;
#X connect 111 0 123 0;
#X connect 112 0 123 1;
#X connect 113 0 123 2;
#X connect 114 0 123 3;
#X connect 115 0 123 4;
#X connect 116 0 123 5;
#X connect 117 0 123 6;
#X connect 118 0 123 7;
#X connect 119 0 123 8;
#X connect 120 0 123 9;
#X connect 121 0 123 10;
#X connect 122 0 123 11;
#X connect 123 0 12 0;
