#N canvas 409 127 848 543 10;
#X text 12 -149 algobeat1 prototype;
#X obj 318 -109 metro 89;
#X obj 315 -134 tgl 15 0 empty empty empty 17 7 0 10 -262144 -1 -1
0 1;
#X obj 318 -86 bng 15 250 50 0 empty empty empty 17 7 0 10 -262144
-1 -1;
#X floatatom 318 -33 5 0 0 0 - - -;
#X obj 318 -57 f 0;
#X obj 348 -56 + 1;
#X obj 353 -10 mod 4;
#X obj 353 13 sel 0;
#X obj 353 36 bng 15 250 50 0 empty empty empty 17 7 0 10 -262144 -1
-1;
#X obj 393 12 sel 0;
#X obj 393 35 bng 15 250 50 0 empty empty empty 17 7 0 10 -262144 -1
-1;
#X obj 393 -11 mod 8;
#X obj 317 13 sel 0;
#X obj 317 36 bng 15 250 50 0 empty empty empty 17 7 0 10 -262144 -1
-1;
#X obj 317 -10 mod 2;
#X obj 427 11 sel 0;
#X obj 427 34 bng 15 250 50 0 empty empty empty 17 7 0 10 -262144 -1
-1;
#X obj 427 -12 mod 16;
#X obj 471 11 sel 0;
#X obj 488 53 bng 15 250 50 0 empty empty empty 17 7 0 10 -262144 -1
-1;
#X obj 471 -12 mod 32;
#X obj 516 10 sel 0;
#X obj 516 -13 mod 64;
#X obj 318 411 dac~;
#X obj 323 374 *~ 0.4;
#X floatatom 355 351 0 0 0 0 - - -;
#X obj 356 328 dbtorms;
#X floatatom 359 305 0 0 160 0 - - -;
#X obj 419 280 vu 15 120 empty empty -1 -8 0 10 -66577 -1 1 0;
#X obj 419 236 - 100;
#X obj 419 215 env~;
#X floatatom 419 258 5 0 0 0 - - -;
#X floatatom 396 417 5 0 0 0 - - -;
#X floatatom 433 418 5 0 0 0 - - -;
#X obj 315 178 tabplay~;
#X obj 334 125 bng 15 250 50 0 empty empty empty 17 7 0 10 -262144
-1 -1;
#X msg 323 154 bang;
#N canvas 18 151 1266 582 sample_bank 0;
#N canvas 0 50 450 250 (subpatch) 0;
#X array kick 23347 float 2;
#X coords 0 1 23347 -1 200 140 1;
#X restore 15 21 graph;
#X obj 224 88 openpanel;
#X obj 223 140 soundfiler;
#X obj 223 66 bng 15 250 50 0 empty empty empty 17 7 0 10 -262144 -1
-1;
#N canvas 0 50 450 250 (subpatch) 0;
#X array snare 19230 float 2;
#X coords 0 1 19230 -1 200 140 1 0 0;
#X restore 16 187 graph;
#X obj 224 259 openpanel;
#X obj 224 306 soundfiler;
#X obj 224 232 bng 15 250 50 0 empty empty empty 17 7 0 10 -262144
-1 -1;
#N canvas 0 50 450 250 (subpatch) 0;
#X array closedhat 9500 float 2;
#X coords 0 1 9500 -1 200 140 1 0 0;
#X restore 368 25 graph;
#X obj 576 97 openpanel;
#X obj 576 144 soundfiler;
#X obj 576 70 bng 15 250 50 0 empty empty empty 17 7 0 10 -262144 -1
-1;
#N canvas 0 50 450 250 (subpatch) 0;
#X array fx1 28595 float 2;
#X coords 0 1 28595 -1 200 140 1 0 0;
#X restore 373 190 graph;
#X obj 581 262 openpanel;
#X obj 581 309 soundfiler;
#X obj 581 235 bng 15 250 50 0 empty empty empty 17 7 0 10 -262144
-1 -1;
#N canvas 0 50 450 250 (subpatch) 0;
#X array perc1 3697 float 2;
#X coords 0 1 3697 -1 200 140 1 0 0;
#X restore 21 373 graph;
#X obj 229 445 openpanel;
#X obj 229 492 soundfiler;
#X obj 229 418 bng 15 250 50 0 empty empty empty 17 7 0 10 -262144
-1 -1;
#X obj 323 358 print;
#X msg 223 117 read -resize ./sound/kick/RE2_Kick_11.wav kick \;;
#X obj 253 28 loadbang;
#X msg 229 468 read -resize ./sound/perc/RE2_Perc_1.wav perc1 \;;
#X msg 578 119 read -resize ./sound/hihats/RE2_Hat_9.wav closedhat
\;;
#X msg 582 286 read -resize ./sound/bass/RE2_E_Syn_Bass_3.wav fx1 \;
;
#N canvas 0 50 450 250 (subpatch) 0;
#X array bass1 20416 float 2;
#X coords 0 1 20416 -1 200 140 1 0 0;
#X restore 368 370 graph;
#X obj 576 442 openpanel;
#X obj 576 489 soundfiler;
#X obj 576 415 bng 15 250 50 0 empty empty empty 17 7 0 10 -262144
-1 -1;
#X msg 576 465 read -resize ./sound/bass/RE2_E_Syn_Bass_4.wav bass1
\;;
#N canvas 0 50 450 250 (subpatch) 0;
#X array atmos1 615349 float 2;
#X coords 0 1 615349 -1 200 140 1 0 0;
#X restore 683 38 graph;
#X obj 891 110 openpanel;
#X obj 891 157 soundfiler;
#X obj 891 83 bng 15 250 50 0 empty empty empty 17 7 0 10 -262144 -1
-1;
#X msg 240 280 read -resize ./sound/snare/RE2_Snare_10.wav snare \;
;
#X msg 891 133 read -resize ./sound/atmos/RE2_D_Atmos_8.wav atmos1
\;;
#N canvas 0 50 450 250 (subpatch) 0;
#X array fx2 153800 float 2;
#X coords 0 1 153800 -1 200 140 1 0 0;
#X restore 678 206 graph;
#X obj 886 278 openpanel;
#X obj 886 325 soundfiler;
#X obj 886 251 bng 15 250 50 0 empty empty empty 17 7 0 10 -262144
-1 -1;
#X msg 887 302 read -resize \$1 fx2 \;;
#X connect 1 0 21 0;
#X connect 3 0 1 0;
#X connect 5 0 35 0;
#X connect 7 0 5 0;
#X connect 9 0 24 0;
#X connect 11 0 9 0;
#X connect 13 0 25 0;
#X connect 15 0 13 0;
#X connect 17 0 23 0;
#X connect 19 0 17 0;
#X connect 21 0 2 0;
#X connect 21 0 20 0;
#X connect 22 0 21 0;
#X connect 22 0 35 0;
#X connect 22 0 24 0;
#X connect 22 0 25 0;
#X connect 22 0 23 0;
#X connect 22 0 30 0;
#X connect 22 0 36 0;
#X connect 23 0 18 0;
#X connect 23 0 20 0;
#X connect 24 0 10 0;
#X connect 24 0 20 0;
#X connect 25 0 14 0;
#X connect 25 0 20 0;
#X connect 27 0 30 0;
#X connect 29 0 27 0;
#X connect 30 0 28 0;
#X connect 30 0 20 0;
#X connect 32 0 36 0;
#X connect 34 0 32 0;
#X connect 35 0 6 0;
#X connect 35 0 20 0;
#X connect 36 0 33 0;
#X connect 36 0 20 0;
#X connect 38 0 41 0;
#X connect 40 0 38 0;
#X connect 41 0 39 0;
#X restore 214 -130 pd sample_bank;
#X msg 315 86 set kick;
#X obj 376 179 tabplay~;
#X obj 392 123 bng 15 250 50 0 empty empty empty 17 7 0 10 -262144
-1 -1;
#X msg 384 155 bang;
#X obj 322 217 *~ 0.4;
#X msg 376 86 set snare;
#X obj 440 179 tabplay~;
#X obj 449 137 bng 15 250 50 0 empty empty empty 17 7 0 10 -262144
-1 -1;
#X msg 448 155 bang;
#X msg 440 86 set closedhat;
#X obj 635 217 tabplay~;
#X obj 669 170 bng 15 250 50 0 empty empty empty 17 7 0 10 -262144
-1 -1;
#X msg 643 193 bang;
#X msg 580 195 set fx1;
#X obj 263 13 bng 15 250 50 0 empty empty empty 17 7 0 10 -262144 -1
-1;
#X obj 679 273 freeverb~;
#X msg 720 225 wet \$1;
#X msg 768 225 dry \$1;
#X obj 723 170 hsl 128 15 0 1 0 0 empty empty empty -2 -8 0 10 -262144
-1 -1 10160 1;
#N canvas 1 80 450 300 inv 0;
#X obj 154 69 inlet;
#X obj 154 179 outlet;
#X msg 154 124 1;
#X obj 154 97 t b f;
#X obj 154 151 -;
#X connect 0 0 3 0;
#X connect 2 0 4 0;
#X connect 3 0 2 0;
#X connect 3 1 4 1;
#X connect 4 0 1 0;
#X restore 768 198 pd inv;
#X floatatom 826 223 5 0 0 0 - - -;
#X text 711 154 dry;
#X text 836 153 wet;
#X floatatom 727 199 5 0 0 0 - - -;
#X obj 136 189 tabplay~;
#X obj 145 147 bng 15 250 50 0 empty empty empty 17 7 0 10 -262144
-1 -1;
#X msg 144 165 bang;
#X msg 136 96 set perc1;
#X obj 476 111 del 100;
#X obj 256 96 bng 15 250 50 0 empty empty empty 17 7 0 10 -262144 -1
-1;
#X obj 257 115 del 640;
#X obj 193 63 spigot;
#X obj 246 51 tgl 15 0 empty empty empty 17 7 0 10 -262144 -1 -1 0
1;
#X obj 501 -109 loadbang;
#X obj 501 -86 del 500;
#X msg 759 128 0.8;
#X obj 62 266 tabplay~;
#X obj 71 224 bng 15 250 50 0 empty empty empty 17 7 0 10 -262144 -1
-1;
#X msg 70 242 bang;
#X msg 62 173 set bass1;
#X obj 40 82 tabplay~;
#X obj 49 40 bng 15 250 50 0 empty empty empty 17 7 0 10 -262144 -1
-1;
#X msg 48 58 bang;
#X msg 40 -11 set atmos1;
#X obj 40 105 *~ 0.5;
#X obj 122 228 del 600;
#X obj 676 -10 tabplay~;
#X obj 685 -52 bng 15 250 50 0 empty empty empty 17 7 0 10 -262144
-1 -1;
#X msg 684 -34 bang;
#X obj 676 13 *~ 0.5;
#X msg 676 -103 set fx2;
#X obj 208 211 *~ 0.3;
#X connect 1 0 3 0;
#X connect 2 0 1 0;
#X connect 3 0 5 0;
#X connect 4 0 7 0;
#X connect 4 0 12 0;
#X connect 4 0 15 0;
#X connect 4 0 18 0;
#X connect 4 0 21 0;
#X connect 4 0 23 0;
#X connect 4 0 53 0;
#X connect 5 0 6 0;
#X connect 5 0 4 0;
#X connect 6 0 5 1;
#X connect 7 0 8 0;
#X connect 8 0 9 0;
#X connect 9 0 36 0;
#X connect 10 0 11 0;
#X connect 11 0 41 0;
#X connect 12 0 10 0;
#X connect 13 0 14 0;
#X connect 14 0 46 0;
#X connect 15 0 13 0;
#X connect 16 0 17 0;
#X connect 18 0 16 0;
#X connect 19 0 20 0;
#X connect 20 0 67 0;
#X connect 20 0 71 0;
#X connect 21 0 19 0;
#X connect 22 0 68 0;
#X connect 22 0 80 0;
#X connect 22 0 86 0;
#X connect 23 0 22 0;
#X connect 25 0 24 1;
#X connect 25 0 24 0;
#X connect 25 0 31 0;
#X connect 26 0 25 1;
#X connect 27 0 26 0;
#X connect 28 0 27 0;
#X connect 29 0 33 0;
#X connect 29 1 34 0;
#X connect 30 0 32 0;
#X connect 31 0 30 0;
#X connect 32 0 29 0;
#X connect 35 0 43 0;
#X connect 36 0 37 0;
#X connect 37 0 35 0;
#X connect 39 0 35 0;
#X connect 40 0 43 0;
#X connect 41 0 42 0;
#X connect 42 0 40 0;
#X connect 43 0 25 0;
#X connect 44 0 40 0;
#X connect 45 0 43 0;
#X connect 46 0 47 0;
#X connect 47 0 45 0;
#X connect 48 0 45 0;
#X connect 49 0 54 0;
#X connect 50 0 51 0;
#X connect 51 0 49 0;
#X connect 52 0 49 0;
#X connect 53 0 70 0;
#X connect 54 0 43 0;
#X connect 55 0 54 0;
#X connect 56 0 54 0;
#X connect 57 0 55 0;
#X connect 57 0 58 0;
#X connect 57 0 62 0;
#X connect 58 0 56 0;
#X connect 58 0 59 0;
#X connect 63 0 90 0;
#X connect 64 0 65 0;
#X connect 65 0 63 0;
#X connect 66 0 63 0;
#X connect 67 0 36 0;
#X connect 67 0 84 0;
#X connect 68 0 69 0;
#X connect 69 0 36 0;
#X connect 70 0 64 0;
#X connect 71 0 70 1;
#X connect 72 0 73 0;
#X connect 73 0 66 0;
#X connect 73 0 39 0;
#X connect 73 0 44 0;
#X connect 73 0 48 0;
#X connect 73 0 74 0;
#X connect 73 0 82 0;
#X connect 73 0 78 0;
#X connect 73 0 89 0;
#X connect 74 0 57 0;
#X connect 75 0 43 0;
#X connect 76 0 77 0;
#X connect 77 0 75 0;
#X connect 78 0 75 0;
#X connect 79 0 83 0;
#X connect 80 0 81 0;
#X connect 81 0 79 0;
#X connect 82 0 79 0;
#X connect 83 0 43 0;
#X connect 84 0 76 0;
#X connect 85 0 88 0;
#X connect 86 0 87 0;
#X connect 87 0 85 0;
#X connect 88 0 43 0;
#X connect 89 0 85 0;
#X connect 90 0 43 0;
