#N canvas 1 67 1364 674 10;
#X obj 34 574 dac~;
#X obj 39 537 *~ 0.4;
#X floatatom 90 408 0 0 0 0 - - -;
#X obj 91 385 dbtorms;
#X floatatom 94 362 0 0 160 0 - - -;
#X obj 154 337 vu 15 120 empty empty -1 -8 0 10 -66577 -1 1 0;
#X obj 154 293 - 100;
#X obj 154 272 env~;
#X floatatom 154 315 5 0 0 0 - - -;
#X floatatom 131 474 5 0 0 0 - - -;
#X floatatom 168 475 5 0 0 0 - - -;
#X obj 38 409 *~ 0.4;
#X obj 26 156 channel2;
#X obj 22 131 bng 15 250 50 0 empty empty empty 17 7 0 10 -262144 -1
-1;
#X obj 51 126 bng 15 250 50 0 empty empty empty 17 7 0 10 -262144 -1
-1;
#X floatatom 71 90 5 0 0 0 - - -;
#X obj 71 111 pack \$1;
#X obj 452 484 bng 15 250 50 0 empty empty empty 17 7 0 10 -262144
-1 -1;
#X obj 473 484 bng 15 250 50 0 empty empty empty 17 7 0 10 -262144
-1 -1;
#X obj 494 484 bng 15 250 50 0 empty empty empty 17 7 0 10 -262144
-1 -1;
#X obj 515 484 bng 15 250 50 0 empty empty empty 17 7 0 10 -262144
-1 -1;
#X obj 536 484 bng 15 250 50 0 empty empty empty 17 7 0 10 -262144
-1 -1;
#X obj 557 484 bng 15 250 50 0 empty empty empty 17 7 0 10 -262144
-1 -1;
#X obj 578 484 bng 15 250 50 0 empty empty empty 17 7 0 10 -262144
-1 -1;
#X obj 599 484 bng 15 250 50 0 empty empty empty 17 7 0 10 -262144
-1 -1;
#X obj 619 483 bng 15 250 50 0 empty empty empty 17 7 0 10 -262144
-1 -1;
#X obj 640 483 bng 15 250 50 0 empty empty empty 17 7 0 10 -262144
-1 -1;
#X obj 661 483 bng 15 250 50 0 empty empty empty 17 7 0 10 -262144
-1 -1;
#X obj 682 483 bng 15 250 50 0 empty empty empty 17 7 0 10 -262144
-1 -1;
#N canvas 1 67 911 424 snare 0;
#X floatatom 10 92 5 0 0 0 - - -;
#X floatatom 43 92 5 0 0 0 - - -;
#X floatatom 76 92 5 0 0 0 - - -;
#X obj 10 70 unpack 0 0 0 0 0 0 0 0 0 0 0 0 0 0 0 0 0 0 0, f 93;
#X floatatom 108 93 5 0 0 0 - - -;
#X floatatom 141 93 5 0 0 0 - - -;
#X floatatom 174 93 5 0 0 0 - - -;
#X floatatom 206 93 5 0 0 0 - - -;
#X floatatom 239 93 5 0 0 0 - - -;
#X floatatom 272 93 5 0 0 0 - - -;
#X floatatom 304 94 5 0 0 0 - - -;
#X floatatom 337 94 5 0 0 0 - - -;
#X floatatom 370 94 5 0 0 0 - - -;
#X obj 8 388 outlet~;
#X obj 9 362 *~ 0.3;
#X obj 9 185 bng 15 250 50 0 empty empty empty 17 7 0 10 -262144 -1
-1;
#X obj 10 10 inlet;
#X obj 47 10 inlet;
#X obj 84 10 inlet;
#X obj 122 11 inlet;
#X obj 159 11 inlet;
#X obj 196 11 inlet;
#X obj 234 11 inlet;
#X obj 271 11 inlet;
#X obj 308 11 inlet;
#X obj 346 12 inlet;
#X obj 383 12 inlet;
#X obj 420 12 inlet;
#X obj 47 129 bng 15 250 50 0 empty empty empty 17 7 0 10 -262144 -1
-1;
#X obj 82 208 bng 15 250 50 0 empty empty empty 17 7 0 10 -262144 -1
-1;
#X obj 124 153 bng 15 250 50 0 empty empty empty 17 7 0 10 -262144
-1 -1;
#X obj 159 119 bng 15 250 50 0 empty empty empty 17 7 0 10 -262144
-1 -1;
#X obj 197 202 bng 15 250 50 0 empty empty empty 17 7 0 10 -262144
-1 -1;
#X obj 234 153 bng 15 250 50 0 empty empty empty 17 7 0 10 -262144
-1 -1;
#X obj 270 121 bng 15 250 50 0 empty empty empty 17 7 0 10 -262144
-1 -1;
#X obj 307 195 bng 15 250 50 0 empty empty empty 17 7 0 10 -262144
-1 -1;
#X obj 347 152 bng 15 250 50 0 empty empty empty 17 7 0 10 -262144
-1 -1;
#X obj 383 226 bng 15 250 50 0 empty empty empty 17 7 0 10 -262144
-1 -1;
#X msg 513 197 1 2 3 4 5 6 7 8 9 10 11 12 13 14;
#X msg 511 219 15 16 17 18 19 20 21 22 23 24 25 26 27 28;
#X msg 511 242 30 31 32 33 34 35 36 37 38 39 40 41 42 43;
#X msg 511 265 44 45 46 47 48 49 50 51 52 53 54 55 56 57;
#X obj 9 227 snare_channel;
#X obj 47 171 snare_channel;
#X obj 82 250 snare_channel;
#X obj 124 195 snare_channel;
#X obj 159 161 snare_channel;
#X obj 197 244 snare_channel;
#X obj 234 195 snare_channel;
#X obj 270 163 snare_channel;
#X obj 307 237 snare_channel;
#X obj 347 194 snare_channel;
#X obj 383 268 snare_channel;
#X msg 511 287 60 61 62 63 64 65 66 67 68 69 70 71 72 73;
#X obj 520 158 loadbang;
#X obj 628 92 random 4;
#X obj 629 116 sel 0 1 2 3 4;
#X obj 627 60 bng 15 250 50 0 empty empty empty 17 7 0 10 -262144 -1
-1;
#X obj 628 159 bng 15 250 50 0 empty empty empty 17 7 0 10 -262144
-1 -1;
#X obj 645 160 bng 15 250 50 0 empty empty empty 17 7 0 10 -262144
-1 -1;
#X obj 663 159 bng 15 250 50 0 empty empty empty 17 7 0 10 -262144
-1 -1;
#X obj 679 159 bng 15 250 50 0 empty empty empty 17 7 0 10 -262144
-1 -1;
#X obj 696 159 bng 15 250 50 0 empty empty empty 17 7 0 10 -262144
-1 -1;
#X connect 0 0 42 1;
#X connect 1 0 43 1;
#X connect 2 0 44 1;
#X connect 3 0 0 0;
#X connect 3 1 1 0;
#X connect 3 2 2 0;
#X connect 3 3 4 0;
#X connect 3 4 5 0;
#X connect 3 5 6 0;
#X connect 3 6 7 0;
#X connect 3 7 8 0;
#X connect 3 8 9 0;
#X connect 3 9 10 0;
#X connect 3 10 11 0;
#X connect 3 11 12 0;
#X connect 4 0 45 1;
#X connect 5 0 46 1;
#X connect 6 0 47 1;
#X connect 7 0 48 1;
#X connect 8 0 49 1;
#X connect 9 0 50 1;
#X connect 10 0 51 1;
#X connect 11 0 52 1;
#X connect 14 0 13 0;
#X connect 15 0 42 0;
#X connect 16 0 15 0;
#X connect 17 0 28 0;
#X connect 18 0 29 0;
#X connect 19 0 30 0;
#X connect 20 0 31 0;
#X connect 20 0 46 0;
#X connect 21 0 32 0;
#X connect 22 0 33 0;
#X connect 23 0 34 0;
#X connect 24 0 35 0;
#X connect 25 0 36 0;
#X connect 26 0 37 0;
#X connect 27 0 57 0;
#X connect 28 0 43 0;
#X connect 29 0 44 0;
#X connect 30 0 45 0;
#X connect 31 0 46 0;
#X connect 32 0 47 0;
#X connect 33 0 48 0;
#X connect 34 0 49 0;
#X connect 35 0 50 0;
#X connect 36 0 51 0;
#X connect 37 0 52 0;
#X connect 38 0 3 0;
#X connect 39 0 3 0;
#X connect 40 0 3 0;
#X connect 41 0 3 0;
#X connect 42 0 14 0;
#X connect 43 0 14 0;
#X connect 44 0 14 0;
#X connect 45 0 14 0;
#X connect 46 0 14 0;
#X connect 47 0 14 0;
#X connect 48 0 14 0;
#X connect 49 0 14 0;
#X connect 50 0 14 0;
#X connect 52 0 14 0;
#X connect 53 0 3 0;
#X connect 54 0 39 0;
#X connect 55 0 56 0;
#X connect 56 0 58 0;
#X connect 56 1 59 0;
#X connect 56 2 60 0;
#X connect 56 3 61 0;
#X connect 56 4 62 0;
#X connect 57 0 55 0;
#X connect 58 0 38 0;
#X connect 59 0 39 0;
#X connect 60 0 40 0;
#X connect 61 0 41 0;
#X restore 452 503 pd snare;
#X f 39;
#X obj 454 527 bng 15 250 50 0 empty empty empty 17 7 0 10 -262144
-1 -1;
#X obj 475 527 bng 15 250 50 0 empty empty empty 17 7 0 10 -262144
-1 -1;
#X obj 496 527 bng 15 250 50 0 empty empty empty 17 7 0 10 -262144
-1 -1;
#X obj 517 527 bng 15 250 50 0 empty empty empty 17 7 0 10 -262144
-1 -1;
#X obj 538 527 bng 15 250 50 0 empty empty empty 17 7 0 10 -262144
-1 -1;
#X obj 559 527 bng 15 250 50 0 empty empty empty 17 7 0 10 -262144
-1 -1;
#X obj 580 527 bng 15 250 50 0 empty empty empty 17 7 0 10 -262144
-1 -1;
#X obj 601 527 bng 15 250 50 0 empty empty empty 17 7 0 10 -262144
-1 -1;
#X obj 621 526 bng 15 250 50 0 empty empty empty 17 7 0 10 -262144
-1 -1;
#X obj 642 526 bng 15 250 50 0 empty empty empty 17 7 0 10 -262144
-1 -1;
#X obj 663 526 bng 15 250 50 0 empty empty empty 17 7 0 10 -262144
-1 -1;
#X obj 684 526 bng 15 250 50 0 empty empty empty 17 7 0 10 -262144
-1 -1;
#N canvas 1 67 911 424 kick 0;
#X floatatom 10 92 5 0 0 0 - - -;
#X floatatom 43 92 5 0 0 0 - - -;
#X floatatom 76 92 5 0 0 0 - - -;
#X obj 10 70 unpack 0 0 0 0 0 0 0 0 0 0 0 0 0 0 0 0 0 0 0, f 93;
#X floatatom 108 93 5 0 0 0 - - -;
#X floatatom 141 93 5 0 0 0 - - -;
#X floatatom 174 93 5 0 0 0 - - -;
#X floatatom 206 93 5 0 0 0 - - -;
#X floatatom 239 93 5 0 0 0 - - -;
#X floatatom 272 93 5 0 0 0 - - -;
#X floatatom 304 94 5 0 0 0 - - -;
#X floatatom 337 94 5 0 0 0 - - -;
#X floatatom 370 94 5 0 0 0 - - -;
#X obj 8 388 outlet~;
#X obj 9 362 *~ 0.3;
#X obj 9 185 bng 15 250 50 0 empty empty empty 17 7 0 10 -262144 -1
-1;
#X obj 10 10 inlet;
#X obj 47 10 inlet;
#X obj 84 10 inlet;
#X obj 122 11 inlet;
#X obj 159 11 inlet;
#X obj 196 11 inlet;
#X obj 234 11 inlet;
#X obj 271 11 inlet;
#X obj 308 11 inlet;
#X obj 346 12 inlet;
#X obj 383 12 inlet;
#X obj 420 12 inlet;
#X obj 47 129 bng 15 250 50 0 empty empty empty 17 7 0 10 -262144 -1
-1;
#X obj 82 208 bng 15 250 50 0 empty empty empty 17 7 0 10 -262144 -1
-1;
#X obj 124 153 bng 15 250 50 0 empty empty empty 17 7 0 10 -262144
-1 -1;
#X obj 159 119 bng 15 250 50 0 empty empty empty 17 7 0 10 -262144
-1 -1;
#X obj 197 202 bng 15 250 50 0 empty empty empty 17 7 0 10 -262144
-1 -1;
#X obj 234 153 bng 15 250 50 0 empty empty empty 17 7 0 10 -262144
-1 -1;
#X obj 270 121 bng 15 250 50 0 empty empty empty 17 7 0 10 -262144
-1 -1;
#X obj 307 195 bng 15 250 50 0 empty empty empty 17 7 0 10 -262144
-1 -1;
#X obj 347 152 bng 15 250 50 0 empty empty empty 17 7 0 10 -262144
-1 -1;
#X obj 383 226 bng 15 250 50 0 empty empty empty 17 7 0 10 -262144
-1 -1;
#X msg 513 197 1 2 3 4 5 6 7 8 9 10 11 12 13 14;
#X msg 511 219 15 16 17 18 19 20 21 22 23 24 25 26 27 28;
#X msg 511 242 30 31 32 33 34 35 36 37 38 39 40 41 42 43;
#X msg 511 265 44 45 46 47 48 49 50 51 52 53 54 55 56 57;
#X msg 511 287 60 61 62 63 64 65 66 67 68 69 70 71 72 73;
#X obj 9 227 kick_channel;
#X obj 47 171 kick_channel;
#X obj 82 250 kick_channel;
#X obj 124 195 kick_channel;
#X obj 159 161 kick_channel;
#X obj 197 244 kick_channel;
#X obj 234 195 kick_channel;
#X obj 272 160 kick_channel;
#X obj 307 237 kick_channel;
#X obj 347 194 kick_channel;
#X obj 383 268 kick_channel;
#X obj 511 171 loadbang;
#X obj 628 92 random 4;
#X obj 629 116 sel 0 1 2 3 4;
#X obj 627 60 bng 15 250 50 0 empty empty empty 17 7 0 10 -262144 -1
-1;
#X obj 628 159 bng 15 250 50 0 empty empty empty 17 7 0 10 -262144
-1 -1;
#X obj 645 160 bng 15 250 50 0 empty empty empty 17 7 0 10 -262144
-1 -1;
#X obj 663 159 bng 15 250 50 0 empty empty empty 17 7 0 10 -262144
-1 -1;
#X obj 679 159 bng 15 250 50 0 empty empty empty 17 7 0 10 -262144
-1 -1;
#X obj 696 159 bng 15 250 50 0 empty empty empty 17 7 0 10 -262144
-1 -1;
#X connect 0 0 43 1;
#X connect 1 0 44 1;
#X connect 2 0 45 1;
#X connect 3 0 0 0;
#X connect 3 1 1 0;
#X connect 3 2 2 0;
#X connect 3 3 4 0;
#X connect 3 4 5 0;
#X connect 3 5 6 0;
#X connect 3 6 7 0;
#X connect 3 7 8 0;
#X connect 3 8 9 0;
#X connect 3 9 10 0;
#X connect 3 10 11 0;
#X connect 3 11 12 0;
#X connect 4 0 46 1;
#X connect 5 0 47 1;
#X connect 6 0 48 1;
#X connect 7 0 49 1;
#X connect 8 0 50 1;
#X connect 9 0 51 1;
#X connect 10 0 52 1;
#X connect 11 0 53 1;
#X connect 14 0 13 0;
#X connect 15 0 43 0;
#X connect 16 0 15 0;
#X connect 17 0 28 0;
#X connect 18 0 29 0;
#X connect 19 0 30 0;
#X connect 20 0 31 0;
#X connect 20 0 47 0;
#X connect 21 0 32 0;
#X connect 22 0 33 0;
#X connect 23 0 34 0;
#X connect 24 0 35 0;
#X connect 25 0 36 0;
#X connect 26 0 37 0;
#X connect 27 0 57 0;
#X connect 28 0 44 0;
#X connect 29 0 45 0;
#X connect 30 0 46 0;
#X connect 31 0 47 0;
#X connect 32 0 48 0;
#X connect 33 0 49 0;
#X connect 34 0 50 0;
#X connect 35 0 51 0;
#X connect 36 0 52 0;
#X connect 37 0 53 0;
#X connect 38 0 3 0;
#X connect 39 0 3 0;
#X connect 40 0 3 0;
#X connect 41 0 3 0;
#X connect 42 0 3 0;
#X connect 43 0 14 0;
#X connect 44 0 14 0;
#X connect 45 0 14 0;
#X connect 46 0 14 0;
#X connect 47 0 14 0;
#X connect 48 0 14 0;
#X connect 49 0 14 0;
#X connect 50 0 14 0;
#X connect 51 0 14 0;
#X connect 53 0 14 0;
#X connect 54 0 38 0;
#X connect 55 0 56 0;
#X connect 56 0 58 0;
#X connect 56 1 59 0;
#X connect 56 2 60 0;
#X connect 56 3 61 0;
#X connect 56 4 62 0;
#X connect 57 0 55 0;
#X connect 58 0 38 0;
#X connect 59 0 39 0;
#X connect 60 0 40 0;
#X connect 61 0 41 0;
#X restore 452 544 pd kick;
#X f 39;
#X obj 455 438 bng 15 250 50 0 empty empty empty 17 7 0 10 -262144
-1 -1;
#X obj 476 438 bng 15 250 50 0 empty empty empty 17 7 0 10 -262144
-1 -1;
#X obj 497 438 bng 15 250 50 0 empty empty empty 17 7 0 10 -262144
-1 -1;
#X obj 518 438 bng 15 250 50 0 empty empty empty 17 7 0 10 -262144
-1 -1;
#X obj 539 438 bng 15 250 50 0 empty empty empty 17 7 0 10 -262144
-1 -1;
#X obj 560 438 bng 15 250 50 0 empty empty empty 17 7 0 10 -262144
-1 -1;
#X obj 581 438 bng 15 250 50 0 empty empty empty 17 7 0 10 -262144
-1 -1;
#X obj 602 438 bng 15 250 50 0 empty empty empty 17 7 0 10 -262144
-1 -1;
#X obj 622 437 bng 15 250 50 0 empty empty empty 17 7 0 10 -262144
-1 -1;
#X obj 643 437 bng 15 250 50 0 empty empty empty 17 7 0 10 -262144
-1 -1;
#X obj 664 437 bng 15 250 50 0 empty empty empty 17 7 0 10 -262144
-1 -1;
#X obj 685 437 bng 15 250 50 0 empty empty empty 17 7 0 10 -262144
-1 -1;
#N canvas 152 148 911 424 hihats 0;
#X floatatom 10 92 5 0 0 0 - - -;
#X floatatom 43 92 5 0 0 0 - - -;
#X floatatom 76 92 5 0 0 0 - - -;
#X obj 10 70 unpack 0 0 0 0 0 0 0 0 0 0 0 0 0 0 0 0 0 0 0, f 93;
#X floatatom 108 93 5 0 0 0 - - -;
#X floatatom 141 93 5 0 0 0 - - -;
#X floatatom 174 93 5 0 0 0 - - -;
#X floatatom 206 93 5 0 0 0 - - -;
#X floatatom 239 93 5 0 0 0 - - -;
#X floatatom 272 93 5 0 0 0 - - -;
#X floatatom 304 94 5 0 0 0 - - -;
#X floatatom 337 94 5 0 0 0 - - -;
#X floatatom 370 94 5 0 0 0 - - -;
#X obj 8 388 outlet~;
#X obj 9 362 *~ 0.3;
#X obj 9 185 bng 15 250 50 0 empty empty empty 17 7 0 10 -262144 -1
-1;
#X obj 10 10 inlet;
#X obj 47 10 inlet;
#X obj 84 10 inlet;
#X obj 122 11 inlet;
#X obj 159 11 inlet;
#X obj 196 11 inlet;
#X obj 234 11 inlet;
#X obj 271 11 inlet;
#X obj 308 11 inlet;
#X obj 346 12 inlet;
#X obj 383 12 inlet;
#X obj 420 12 inlet;
#X obj 47 129 bng 15 250 50 0 empty empty empty 17 7 0 10 -262144 -1
-1;
#X obj 82 208 bng 15 250 50 0 empty empty empty 17 7 0 10 -262144 -1
-1;
#X obj 124 153 bng 15 250 50 0 empty empty empty 17 7 0 10 -262144
-1 -1;
#X obj 159 119 bng 15 250 50 0 empty empty empty 17 7 0 10 -262144
-1 -1;
#X obj 197 202 bng 15 250 50 0 empty empty empty 17 7 0 10 -262144
-1 -1;
#X obj 234 153 bng 15 250 50 0 empty empty empty 17 7 0 10 -262144
-1 -1;
#X obj 270 121 bng 15 250 50 0 empty empty empty 17 7 0 10 -262144
-1 -1;
#X obj 307 195 bng 15 250 50 0 empty empty empty 17 7 0 10 -262144
-1 -1;
#X obj 347 152 bng 15 250 50 0 empty empty empty 17 7 0 10 -262144
-1 -1;
#X obj 383 226 bng 15 250 50 0 empty empty empty 17 7 0 10 -262144
-1 -1;
#X msg 513 197 1 2 3 4 5 6 7 8 9 10 11 12 13 14;
#X msg 511 219 15 16 17 18 19 20 21 22 23 24 25 26 27 28;
#X msg 511 242 30 31 32 33 34 35 36 37 38 39 40 41 42 43;
#X msg 511 265 44 45 46 47 48 49 50 51 52 53 54 55 56 57;
#X msg 511 287 60 61 62 63 64 65 66 67 68 69 70 71 72 73;
#X obj 9 227 hihats_channel;
#X obj 47 171 hihats_channel;
#X obj 82 250 hihats_channel;
#X obj 124 195 hihats_channel;
#X obj 159 161 hihats_channel;
#X obj 197 244 hihats_channel;
#X obj 234 195 hihats_channel;
#X obj 272 160 hihats_channel;
#X obj 307 237 hihats_channel;
#X obj 347 194 hihats_channel;
#X obj 383 268 hihats_channel;
#X obj 511 171 loadbang;
#X obj 628 92 random 4;
#X obj 629 116 sel 0 1 2 3 4;
#X obj 627 60 bng 15 250 50 0 empty empty empty 17 7 0 10 -262144 -1
-1;
#X obj 628 159 bng 15 250 50 0 empty empty empty 17 7 0 10 -262144
-1 -1;
#X obj 645 160 bng 15 250 50 0 empty empty empty 17 7 0 10 -262144
-1 -1;
#X obj 663 159 bng 15 250 50 0 empty empty empty 17 7 0 10 -262144
-1 -1;
#X obj 679 159 bng 15 250 50 0 empty empty empty 17 7 0 10 -262144
-1 -1;
#X obj 696 159 bng 15 250 50 0 empty empty empty 17 7 0 10 -262144
-1 -1;
#X connect 0 0 43 1;
#X connect 1 0 44 1;
#X connect 2 0 45 1;
#X connect 3 0 0 0;
#X connect 3 1 1 0;
#X connect 3 2 2 0;
#X connect 3 3 4 0;
#X connect 3 4 5 0;
#X connect 3 5 6 0;
#X connect 3 6 7 0;
#X connect 3 7 8 0;
#X connect 3 8 9 0;
#X connect 3 9 10 0;
#X connect 3 10 11 0;
#X connect 3 11 12 0;
#X connect 4 0 46 1;
#X connect 5 0 47 1;
#X connect 6 0 48 1;
#X connect 7 0 49 1;
#X connect 8 0 50 1;
#X connect 9 0 51 1;
#X connect 10 0 52 1;
#X connect 11 0 53 1;
#X connect 14 0 13 0;
#X connect 15 0 43 0;
#X connect 16 0 15 0;
#X connect 17 0 28 0;
#X connect 18 0 29 0;
#X connect 19 0 30 0;
#X connect 20 0 31 0;
#X connect 20 0 47 0;
#X connect 21 0 32 0;
#X connect 22 0 33 0;
#X connect 23 0 34 0;
#X connect 24 0 35 0;
#X connect 25 0 36 0;
#X connect 26 0 37 0;
#X connect 27 0 57 0;
#X connect 28 0 44 0;
#X connect 29 0 45 0;
#X connect 30 0 46 0;
#X connect 31 0 47 0;
#X connect 32 0 48 0;
#X connect 33 0 49 0;
#X connect 34 0 50 0;
#X connect 35 0 51 0;
#X connect 36 0 52 0;
#X connect 37 0 53 0;
#X connect 38 0 3 0;
#X connect 39 0 3 0;
#X connect 40 0 3 0;
#X connect 41 0 3 0;
#X connect 42 0 3 0;
#X connect 43 0 14 0;
#X connect 44 0 14 0;
#X connect 45 0 14 0;
#X connect 46 0 14 0;
#X connect 47 0 14 0;
#X connect 48 0 14 0;
#X connect 49 0 14 0;
#X connect 50 0 14 0;
#X connect 51 0 14 0;
#X connect 53 0 14 0;
#X connect 54 0 38 0;
#X connect 55 0 56 0;
#X connect 56 0 58 0;
#X connect 56 1 59 0;
#X connect 56 2 60 0;
#X connect 56 3 61 0;
#X connect 56 4 62 0;
#X connect 57 0 55 0;
#X connect 58 0 38 0;
#X connect 59 0 39 0;
#X connect 60 0 40 0;
#X connect 61 0 41 0;
#X restore 454 460 pd hihats;
#X f 39;
#X obj 456 393 bng 15 250 50 0 empty empty empty 17 7 0 10 -262144
-1 -1;
#X obj 477 393 bng 15 250 50 0 empty empty empty 17 7 0 10 -262144
-1 -1;
#X obj 498 393 bng 15 250 50 0 empty empty empty 17 7 0 10 -262144
-1 -1;
#X obj 519 393 bng 15 250 50 0 empty empty empty 17 7 0 10 -262144
-1 -1;
#X obj 540 393 bng 15 250 50 0 empty empty empty 17 7 0 10 -262144
-1 -1;
#X obj 561 393 bng 15 250 50 0 empty empty empty 17 7 0 10 -262144
-1 -1;
#X obj 582 393 bng 15 250 50 0 empty empty empty 17 7 0 10 -262144
-1 -1;
#X obj 603 393 bng 15 250 50 0 empty empty empty 17 7 0 10 -262144
-1 -1;
#X obj 623 392 bng 15 250 50 0 empty empty empty 17 7 0 10 -262144
-1 -1;
#X obj 644 392 bng 15 250 50 0 empty empty empty 17 7 0 10 -262144
-1 -1;
#X obj 665 392 bng 15 250 50 0 empty empty empty 17 7 0 10 -262144
-1 -1;
#X obj 686 392 bng 15 250 50 0 empty empty empty 17 7 0 10 -262144
-1 -1;
#N canvas 1 67 911 424 perc 0;
#X floatatom 10 92 5 0 0 0 - - -;
#X floatatom 43 92 5 0 0 0 - - -;
#X floatatom 76 92 5 0 0 0 - - -;
#X obj 10 70 unpack 0 0 0 0 0 0 0 0 0 0 0 0 0 0 0 0 0 0 0, f 93;
#X floatatom 108 93 5 0 0 0 - - -;
#X floatatom 141 93 5 0 0 0 - - -;
#X floatatom 174 93 5 0 0 0 - - -;
#X floatatom 206 93 5 0 0 0 - - -;
#X floatatom 239 93 5 0 0 0 - - -;
#X floatatom 272 93 5 0 0 0 - - -;
#X floatatom 304 94 5 0 0 0 - - -;
#X floatatom 337 94 5 0 0 0 - - -;
#X floatatom 370 94 5 0 0 0 - - -;
#X obj 8 388 outlet~;
#X obj 9 362 *~ 0.3;
#X obj 9 185 bng 15 250 50 0 empty empty empty 17 7 0 10 -262144 -1
-1;
#X obj 10 10 inlet;
#X obj 47 10 inlet;
#X obj 84 10 inlet;
#X obj 122 11 inlet;
#X obj 159 11 inlet;
#X obj 196 11 inlet;
#X obj 234 11 inlet;
#X obj 271 11 inlet;
#X obj 308 11 inlet;
#X obj 346 12 inlet;
#X obj 383 12 inlet;
#X obj 420 12 inlet;
#X obj 47 129 bng 15 250 50 0 empty empty empty 17 7 0 10 -262144 -1
-1;
#X obj 82 208 bng 15 250 50 0 empty empty empty 17 7 0 10 -262144 -1
-1;
#X obj 124 153 bng 15 250 50 0 empty empty empty 17 7 0 10 -262144
-1 -1;
#X obj 159 119 bng 15 250 50 0 empty empty empty 17 7 0 10 -262144
-1 -1;
#X obj 197 202 bng 15 250 50 0 empty empty empty 17 7 0 10 -262144
-1 -1;
#X obj 234 153 bng 15 250 50 0 empty empty empty 17 7 0 10 -262144
-1 -1;
#X obj 270 121 bng 15 250 50 0 empty empty empty 17 7 0 10 -262144
-1 -1;
#X obj 307 195 bng 15 250 50 0 empty empty empty 17 7 0 10 -262144
-1 -1;
#X obj 347 152 bng 15 250 50 0 empty empty empty 17 7 0 10 -262144
-1 -1;
#X obj 383 226 bng 15 250 50 0 empty empty empty 17 7 0 10 -262144
-1 -1;
#X msg 512 198 1 2 3 4 5 6 7 8 9 10 11 12 13 14;
#X msg 511 219 15 16 17 18 19 20 21 22 23 24 25 26 27 28;
#X msg 511 242 30 31 32 33 34 35 36 37 38 39 40 41 42 43;
#X msg 511 265 44 45 46 47 48 49 50 51 52 53 54 55 56 57;
#X msg 511 287 60 61 62 63 64 65 66 67 68 69 70 71 72 73;
#X obj 9 227 perc_channel;
#X obj 47 171 perc_channel;
#X obj 82 250 perc_channel;
#X obj 124 195 perc_channel;
#X obj 159 161 perc_channel;
#X obj 197 244 perc_channel;
#X obj 234 195 perc_channel;
#X obj 272 160 perc_channel;
#X obj 307 237 perc_channel;
#X obj 347 194 perc_channel;
#X obj 383 268 perc_channel;
#X obj 511 171 loadbang;
#X obj 628 92 random 4;
#X obj 629 116 sel 0 1 2 3 4;
#X obj 627 60 bng 15 250 50 0 empty empty empty 17 7 0 10 -262144 -1
-1;
#X obj 628 159 bng 15 250 50 0 empty empty empty 17 7 0 10 -262144
-1 -1;
#X obj 645 160 bng 15 250 50 0 empty empty empty 17 7 0 10 -262144
-1 -1;
#X obj 663 159 bng 15 250 50 0 empty empty empty 17 7 0 10 -262144
-1 -1;
#X obj 679 159 bng 15 250 50 0 empty empty empty 17 7 0 10 -262144
-1 -1;
#X obj 696 159 bng 15 250 50 0 empty empty empty 17 7 0 10 -262144
-1 -1;
#X connect 0 0 43 1;
#X connect 1 0 44 1;
#X connect 2 0 45 1;
#X connect 3 0 0 0;
#X connect 3 1 1 0;
#X connect 3 2 2 0;
#X connect 3 3 4 0;
#X connect 3 4 5 0;
#X connect 3 5 6 0;
#X connect 3 6 7 0;
#X connect 3 7 8 0;
#X connect 3 8 9 0;
#X connect 3 9 10 0;
#X connect 3 10 11 0;
#X connect 3 11 12 0;
#X connect 4 0 46 1;
#X connect 5 0 47 1;
#X connect 6 0 48 1;
#X connect 7 0 49 1;
#X connect 8 0 50 1;
#X connect 9 0 51 1;
#X connect 10 0 52 1;
#X connect 11 0 53 1;
#X connect 14 0 13 0;
#X connect 15 0 43 0;
#X connect 16 0 15 0;
#X connect 17 0 28 0;
#X connect 18 0 29 0;
#X connect 19 0 30 0;
#X connect 20 0 31 0;
#X connect 20 0 47 0;
#X connect 21 0 32 0;
#X connect 22 0 33 0;
#X connect 23 0 34 0;
#X connect 24 0 35 0;
#X connect 25 0 36 0;
#X connect 26 0 37 0;
#X connect 27 0 57 0;
#X connect 28 0 44 0;
#X connect 29 0 45 0;
#X connect 30 0 46 0;
#X connect 31 0 47 0;
#X connect 32 0 48 0;
#X connect 33 0 49 0;
#X connect 34 0 50 0;
#X connect 35 0 51 0;
#X connect 36 0 52 0;
#X connect 37 0 53 0;
#X connect 38 0 3 0;
#X connect 39 0 3 0;
#X connect 40 0 3 0;
#X connect 41 0 3 0;
#X connect 42 0 3 0;
#X connect 43 0 14 0;
#X connect 44 0 14 0;
#X connect 45 0 14 0;
#X connect 46 0 14 0;
#X connect 47 0 14 0;
#X connect 48 0 14 0;
#X connect 49 0 14 0;
#X connect 50 0 14 0;
#X connect 51 0 14 0;
#X connect 53 0 14 0;
#X connect 54 0 38 0;
#X connect 55 0 56 0;
#X connect 56 0 58 0;
#X connect 56 1 59 0;
#X connect 56 2 60 0;
#X connect 56 3 61 0;
#X connect 56 4 62 0;
#X connect 57 0 55 0;
#X connect 58 0 38 0;
#X connect 59 0 39 0;
#X connect 60 0 40 0;
#X connect 61 0 41 0;
#X restore 455 410 pd perc;
#X f 39;
#X obj 456 349 bng 15 250 50 0 empty empty empty 17 7 0 10 -262144
-1 -1;
#X obj 478 348 bng 15 250 50 0 empty empty empty 17 7 0 10 -262144
-1 -1;
#X obj 498 349 bng 15 250 50 0 empty empty empty 17 7 0 10 -262144
-1 -1;
#X obj 519 349 bng 15 250 50 0 empty empty empty 17 7 0 10 -262144
-1 -1;
#X obj 540 349 bng 15 250 50 0 empty empty empty 17 7 0 10 -262144
-1 -1;
#X obj 559 350 bng 15 250 50 0 empty empty empty 17 7 0 10 -262144
-1 -1;
#X obj 582 349 bng 15 250 50 0 empty empty empty 17 7 0 10 -262144
-1 -1;
#X obj 603 349 bng 15 250 50 0 empty empty empty 17 7 0 10 -262144
-1 -1;
#X obj 623 348 bng 15 250 50 0 empty empty empty 17 7 0 10 -262144
-1 -1;
#X obj 644 348 bng 15 250 50 0 empty empty empty 17 7 0 10 -262144
-1 -1;
#X obj 665 348 bng 15 250 50 0 empty empty empty 17 7 0 10 -262144
-1 -1;
#X obj 686 348 bng 15 250 50 0 empty empty empty 17 7 0 10 -262144
-1 -1;
#N canvas 1 67 911 424 fx 0;
#X floatatom 10 92 5 0 0 0 - - -;
#X floatatom 43 92 5 0 0 0 - - -;
#X floatatom 76 92 5 0 0 0 - - -;
#X obj 10 70 unpack 0 0 0 0 0 0 0 0 0 0 0 0 0 0 0 0 0 0 0, f 93;
#X floatatom 108 93 5 0 0 0 - - -;
#X floatatom 141 93 5 0 0 0 - - -;
#X floatatom 174 93 5 0 0 0 - - -;
#X floatatom 206 93 5 0 0 0 - - -;
#X floatatom 239 93 5 0 0 0 - - -;
#X floatatom 272 93 5 0 0 0 - - -;
#X floatatom 304 94 5 0 0 0 - - -;
#X floatatom 337 94 5 0 0 0 - - -;
#X floatatom 370 94 5 0 0 0 - - -;
#X obj 8 388 outlet~;
#X obj 9 362 *~ 0.3;
#X obj 9 185 bng 15 250 50 0 empty empty empty 17 7 0 10 -262144 -1
-1;
#X obj 10 10 inlet;
#X obj 47 10 inlet;
#X obj 84 10 inlet;
#X obj 122 11 inlet;
#X obj 159 11 inlet;
#X obj 196 11 inlet;
#X obj 234 11 inlet;
#X obj 271 11 inlet;
#X obj 308 11 inlet;
#X obj 346 12 inlet;
#X obj 383 12 inlet;
#X obj 420 12 inlet;
#X obj 47 129 bng 15 250 50 0 empty empty empty 17 7 0 10 -262144 -1
-1;
#X obj 82 208 bng 15 250 50 0 empty empty empty 17 7 0 10 -262144 -1
-1;
#X obj 124 153 bng 15 250 50 0 empty empty empty 17 7 0 10 -262144
-1 -1;
#X obj 159 119 bng 15 250 50 0 empty empty empty 17 7 0 10 -262144
-1 -1;
#X obj 197 202 bng 15 250 50 0 empty empty empty 17 7 0 10 -262144
-1 -1;
#X obj 234 153 bng 15 250 50 0 empty empty empty 17 7 0 10 -262144
-1 -1;
#X obj 270 121 bng 15 250 50 0 empty empty empty 17 7 0 10 -262144
-1 -1;
#X obj 307 195 bng 15 250 50 0 empty empty empty 17 7 0 10 -262144
-1 -1;
#X obj 347 152 bng 15 250 50 0 empty empty empty 17 7 0 10 -262144
-1 -1;
#X obj 383 226 bng 15 250 50 0 empty empty empty 17 7 0 10 -262144
-1 -1;
#X msg 512 198 1 2 3 4 5 6 7 8 9 10 11 12 13 14;
#X msg 511 219 15 16 17 18 19 20 21 22 23 24 25 26 27 28;
#X msg 511 242 30 31 32 33 34 35 36 37 38 39 40 41 42 43;
#X msg 511 265 44 45 46 47 48 49 50 51 52 53 54 55 56 57;
#X msg 511 287 60 61 62 63 64 65 66 67 68 69 70 71 72 73;
#X obj 9 227 fx_channel;
#X obj 47 171 fx_channel;
#X obj 82 250 fx_channel;
#X obj 124 195 fx_channel;
#X obj 159 161 fx_channel;
#X obj 197 244 fx_channel;
#X obj 234 195 fx_channel;
#X obj 272 160 fx_channel;
#X obj 307 237 fx_channel;
#X obj 347 194 fx_channel;
#X obj 383 268 fx_channel;
#X obj 511 171 loadbang;
#X connect 0 0 43 1;
#X connect 1 0 44 1;
#X connect 2 0 45 1;
#X connect 3 0 0 0;
#X connect 3 1 1 0;
#X connect 3 2 2 0;
#X connect 3 3 4 0;
#X connect 3 4 5 0;
#X connect 3 5 6 0;
#X connect 3 6 7 0;
#X connect 3 7 8 0;
#X connect 3 8 9 0;
#X connect 3 9 10 0;
#X connect 3 10 11 0;
#X connect 3 11 12 0;
#X connect 4 0 46 1;
#X connect 5 0 47 1;
#X connect 6 0 48 1;
#X connect 7 0 49 1;
#X connect 8 0 50 1;
#X connect 9 0 51 1;
#X connect 10 0 52 1;
#X connect 11 0 53 1;
#X connect 14 0 13 0;
#X connect 15 0 43 0;
#X connect 16 0 15 0;
#X connect 17 0 28 0;
#X connect 18 0 29 0;
#X connect 19 0 30 0;
#X connect 20 0 31 0;
#X connect 20 0 47 0;
#X connect 21 0 32 0;
#X connect 22 0 33 0;
#X connect 23 0 34 0;
#X connect 24 0 35 0;
#X connect 25 0 36 0;
#X connect 26 0 37 0;
#X connect 28 0 44 0;
#X connect 29 0 45 0;
#X connect 30 0 46 0;
#X connect 31 0 47 0;
#X connect 32 0 48 0;
#X connect 33 0 49 0;
#X connect 34 0 50 0;
#X connect 35 0 51 0;
#X connect 36 0 52 0;
#X connect 37 0 53 0;
#X connect 38 0 3 0;
#X connect 39 0 3 0;
#X connect 40 0 3 0;
#X connect 41 0 3 0;
#X connect 42 0 3 0;
#X connect 43 0 14 0;
#X connect 44 0 14 0;
#X connect 45 0 14 0;
#X connect 46 0 14 0;
#X connect 47 0 14 0;
#X connect 48 0 14 0;
#X connect 49 0 14 0;
#X connect 50 0 14 0;
#X connect 51 0 14 0;
#X connect 53 0 14 0;
#X connect 54 0 38 0;
#X restore 454 367 pd fx;
#X f 39;
#X obj 456 304 bng 15 250 50 0 empty empty empty 17 7 0 10 -262144
-1 -1;
#X obj 477 304 bng 15 250 50 0 empty empty empty 17 7 0 10 -262144
-1 -1;
#X obj 498 304 bng 15 250 50 0 empty empty empty 17 7 0 10 -262144
-1 -1;
#X obj 519 304 bng 15 250 50 0 empty empty empty 17 7 0 10 -262144
-1 -1;
#X obj 540 304 bng 15 250 50 0 empty empty empty 17 7 0 10 -262144
-1 -1;
#X obj 561 304 bng 15 250 50 0 empty empty empty 17 7 0 10 -262144
-1 -1;
#X obj 582 304 bng 15 250 50 0 empty empty empty 17 7 0 10 -262144
-1 -1;
#X obj 603 304 bng 15 250 50 0 empty empty empty 17 7 0 10 -262144
-1 -1;
#X obj 623 303 bng 15 250 50 0 empty empty empty 17 7 0 10 -262144
-1 -1;
#X obj 644 303 bng 15 250 50 0 empty empty empty 17 7 0 10 -262144
-1 -1;
#X obj 665 303 bng 15 250 50 0 empty empty empty 17 7 0 10 -262144
-1 -1;
#X obj 686 303 bng 15 250 50 0 empty empty empty 17 7 0 10 -262144
-1 -1;
#N canvas 1 67 911 424 atmos 0;
#X floatatom 10 92 5 0 0 0 - - -;
#X floatatom 43 92 5 0 0 0 - - -;
#X floatatom 76 92 5 0 0 0 - - -;
#X obj 10 70 unpack 0 0 0 0 0 0 0 0 0 0 0 0 0 0 0 0 0 0 0, f 93;
#X floatatom 108 93 5 0 0 0 - - -;
#X floatatom 141 93 5 0 0 0 - - -;
#X floatatom 174 93 5 0 0 0 - - -;
#X floatatom 206 93 5 0 0 0 - - -;
#X floatatom 239 93 5 0 0 0 - - -;
#X floatatom 272 93 5 0 0 0 - - -;
#X floatatom 304 94 5 0 0 0 - - -;
#X floatatom 337 94 5 0 0 0 - - -;
#X floatatom 370 94 5 0 0 0 - - -;
#X obj 8 388 outlet~;
#X obj 9 362 *~ 0.3;
#X obj 9 185 bng 15 250 50 0 empty empty empty 17 7 0 10 -262144 -1
-1;
#X obj 10 10 inlet;
#X obj 47 10 inlet;
#X obj 84 10 inlet;
#X obj 122 11 inlet;
#X obj 159 11 inlet;
#X obj 196 11 inlet;
#X obj 234 11 inlet;
#X obj 271 11 inlet;
#X obj 308 11 inlet;
#X obj 346 12 inlet;
#X obj 383 12 inlet;
#X obj 420 12 inlet;
#X obj 47 129 bng 15 250 50 0 empty empty empty 17 7 0 10 -262144 -1
-1;
#X obj 82 208 bng 15 250 50 0 empty empty empty 17 7 0 10 -262144 -1
-1;
#X obj 124 153 bng 15 250 50 0 empty empty empty 17 7 0 10 -262144
-1 -1;
#X obj 159 119 bng 15 250 50 0 empty empty empty 17 7 0 10 -262144
-1 -1;
#X obj 197 202 bng 15 250 50 0 empty empty empty 17 7 0 10 -262144
-1 -1;
#X obj 234 153 bng 15 250 50 0 empty empty empty 17 7 0 10 -262144
-1 -1;
#X obj 270 121 bng 15 250 50 0 empty empty empty 17 7 0 10 -262144
-1 -1;
#X obj 307 195 bng 15 250 50 0 empty empty empty 17 7 0 10 -262144
-1 -1;
#X obj 347 152 bng 15 250 50 0 empty empty empty 17 7 0 10 -262144
-1 -1;
#X obj 383 226 bng 15 250 50 0 empty empty empty 17 7 0 10 -262144
-1 -1;
#X msg 512 198 1 2 3 4 5 6 7 8 9 10 11 12 13 14;
#X msg 511 219 15 16 17 18 19 20 21 22 23 24 25 26 27 28;
#X msg 511 242 30 31 32 33 34 35 36 37 38 39 40 41 42 43;
#X msg 511 265 44 45 46 47 48 49 50 51 52 53 54 55 56 57;
#X msg 511 287 60 61 62 63 64 65 66 67 68 69 70 71 72 73;
#X obj 9 227 atmos_channel;
#X obj 47 171 atmos_channel;
#X obj 82 250 atmos_channel;
#X obj 124 195 atmos_channel;
#X obj 159 161 atmos_channel;
#X obj 197 244 atmos_channel;
#X obj 234 195 atmos_channel;
#X obj 272 160 atmos_channel;
#X obj 307 237 atmos_channel;
#X obj 347 194 atmos_channel;
#X obj 383 268 atmos_channel;
#X obj 511 171 loadbang;
#X obj 628 92 random 4;
#X obj 629 116 sel 0 1 2 3 4;
#X obj 627 60 bng 15 250 50 0 empty empty empty 17 7 0 10 -262144 -1
-1;
#X obj 628 159 bng 15 250 50 0 empty empty empty 17 7 0 10 -262144
-1 -1;
#X obj 645 160 bng 15 250 50 0 empty empty empty 17 7 0 10 -262144
-1 -1;
#X obj 663 159 bng 15 250 50 0 empty empty empty 17 7 0 10 -262144
-1 -1;
#X obj 679 159 bng 15 250 50 0 empty empty empty 17 7 0 10 -262144
-1 -1;
#X obj 696 159 bng 15 250 50 0 empty empty empty 17 7 0 10 -262144
-1 -1;
#X connect 0 0 43 1;
#X connect 1 0 44 1;
#X connect 2 0 45 1;
#X connect 3 0 0 0;
#X connect 3 1 1 0;
#X connect 3 2 2 0;
#X connect 3 3 4 0;
#X connect 3 4 5 0;
#X connect 3 5 6 0;
#X connect 3 6 7 0;
#X connect 3 7 8 0;
#X connect 3 8 9 0;
#X connect 3 9 10 0;
#X connect 3 10 11 0;
#X connect 3 11 12 0;
#X connect 4 0 46 1;
#X connect 5 0 47 1;
#X connect 6 0 48 1;
#X connect 7 0 49 1;
#X connect 8 0 50 1;
#X connect 9 0 51 1;
#X connect 10 0 52 1;
#X connect 11 0 53 1;
#X connect 14 0 13 0;
#X connect 15 0 43 0;
#X connect 16 0 15 0;
#X connect 17 0 28 0;
#X connect 18 0 29 0;
#X connect 19 0 30 0;
#X connect 20 0 31 0;
#X connect 20 0 47 0;
#X connect 21 0 32 0;
#X connect 22 0 33 0;
#X connect 23 0 34 0;
#X connect 24 0 35 0;
#X connect 25 0 36 0;
#X connect 26 0 37 0;
#X connect 27 0 57 0;
#X connect 28 0 44 0;
#X connect 29 0 45 0;
#X connect 30 0 46 0;
#X connect 31 0 47 0;
#X connect 32 0 48 0;
#X connect 33 0 49 0;
#X connect 34 0 50 0;
#X connect 35 0 51 0;
#X connect 36 0 52 0;
#X connect 37 0 53 0;
#X connect 38 0 3 0;
#X connect 39 0 3 0;
#X connect 40 0 3 0;
#X connect 41 0 3 0;
#X connect 42 0 3 0;
#X connect 43 0 14 0;
#X connect 44 0 14 0;
#X connect 45 0 14 0;
#X connect 46 0 14 0;
#X connect 47 0 14 0;
#X connect 48 0 14 0;
#X connect 49 0 14 0;
#X connect 50 0 14 0;
#X connect 51 0 14 0;
#X connect 53 0 14 0;
#X connect 54 0 38 0;
#X connect 55 0 56 0;
#X connect 56 0 58 0;
#X connect 56 1 59 0;
#X connect 56 2 60 0;
#X connect 56 3 61 0;
#X connect 56 4 62 0;
#X connect 57 0 55 0;
#X connect 58 0 38 0;
#X connect 59 0 39 0;
#X connect 60 0 40 0;
#X connect 61 0 41 0;
#X restore 454 322 pd atmos;
#X f 39;
#X obj 462 262 bng 15 250 50 0 empty empty empty 17 7 0 10 -262144
-1 -1;
#X obj 484 262 bng 15 250 50 0 empty empty empty 17 7 0 10 -262144
-1 -1;
#X obj 503 262 bng 15 250 50 0 empty empty empty 17 7 0 10 -262144
-1 -1;
#X obj 1011 165 bng 15 250 50 0 empty empty empty 17 7 0 10 -262144
-1 -1;
#X obj 543 258 bng 15 250 50 0 empty empty empty 17 7 0 10 -262144
-1 -1;
#X obj 567 262 bng 15 250 50 0 empty empty empty 17 7 0 10 -262144
-1 -1;
#X obj 588 262 bng 15 250 50 0 empty empty empty 17 7 0 10 -262144
-1 -1;
#X obj 609 262 bng 15 250 50 0 empty empty empty 17 7 0 10 -262144
-1 -1;
#X obj 629 261 bng 15 250 50 0 empty empty empty 17 7 0 10 -262144
-1 -1;
#X obj 650 261 bng 15 250 50 0 empty empty empty 17 7 0 10 -262144
-1 -1;
#X obj 671 261 bng 15 250 50 0 empty empty empty 17 7 0 10 -262144
-1 -1;
#X obj 818 242 bng 15 250 50 0 empty empty empty 17 7 0 10 -262144
-1 -1;
#N canvas 1 67 914 424 bass 0;
#X floatatom 10 92 5 0 0 0 - - -;
#X floatatom 43 92 5 0 0 0 - - -;
#X floatatom 76 92 5 0 0 0 - - -;
#X obj 10 70 unpack 0 0 0 0 0 0 0 0 0 0 0 0 0 0 0 0 0 0 0, f 93;
#X floatatom 108 93 5 0 0 0 - - -;
#X floatatom 141 93 5 0 0 0 - - -;
#X floatatom 174 93 5 0 0 0 - - -;
#X floatatom 206 93 5 0 0 0 - - -;
#X floatatom 239 93 5 0 0 0 - - -;
#X floatatom 272 93 5 0 0 0 - - -;
#X floatatom 304 94 5 0 0 0 - - -;
#X floatatom 337 94 5 0 0 0 - - -;
#X floatatom 370 94 5 0 0 0 - - -;
#X obj 8 388 outlet~;
#X obj 9 362 *~ 0.3;
#X obj 9 185 bng 15 250 50 0 empty empty empty 17 7 0 10 -262144 -1
-1;
#X obj 10 10 inlet;
#X obj 47 10 inlet;
#X obj 84 10 inlet;
#X obj 122 11 inlet;
#X obj 159 11 inlet;
#X obj 196 11 inlet;
#X obj 234 11 inlet;
#X obj 271 11 inlet;
#X obj 308 11 inlet;
#X obj 346 12 inlet;
#X obj 383 12 inlet;
#X obj 420 12 inlet;
#X obj 47 129 bng 15 250 50 0 empty empty empty 17 7 0 10 -262144 -1
-1;
#X obj 82 208 bng 15 250 50 0 empty empty empty 17 7 0 10 -262144 -1
-1;
#X obj 124 153 bng 15 250 50 0 empty empty empty 17 7 0 10 -262144
-1 -1;
#X obj 159 119 bng 15 250 50 0 empty empty empty 17 7 0 10 -262144
-1 -1;
#X obj 197 202 bng 15 250 50 0 empty empty empty 17 7 0 10 -262144
-1 -1;
#X obj 234 153 bng 15 250 50 0 empty empty empty 17 7 0 10 -262144
-1 -1;
#X obj 270 121 bng 15 250 50 0 empty empty empty 17 7 0 10 -262144
-1 -1;
#X obj 307 195 bng 15 250 50 0 empty empty empty 17 7 0 10 -262144
-1 -1;
#X obj 347 152 bng 15 250 50 0 empty empty empty 17 7 0 10 -262144
-1 -1;
#X obj 383 226 bng 15 250 50 0 empty empty empty 17 7 0 10 -262144
-1 -1;
#X msg 512 198 1 2 3 4 5 6 7 8 9 10 11 12 13 14;
#X msg 511 219 15 16 17 18 19 20 21 22 23 24 25 26 27 28;
#X obj 9 227 bass_channel;
#X obj 47 171 bass_channel;
#X obj 82 250 bass_channel;
#X obj 124 195 bass_channel;
#X obj 159 161 bass_channel;
#X obj 197 244 bass_channel;
#X obj 234 195 bass_channel;
#X obj 272 160 bass_channel;
#X obj 307 237 bass_channel;
#X obj 347 194 bass_channel;
#X obj 383 268 bass_channel;
#X obj 511 171 loadbang;
#X obj 457 11 inlet;
#X connect 0 0 40 1;
#X connect 1 0 41 1;
#X connect 2 0 42 1;
#X connect 3 0 0 0;
#X connect 3 1 1 0;
#X connect 3 2 2 0;
#X connect 3 3 4 0;
#X connect 3 4 5 0;
#X connect 3 5 6 0;
#X connect 3 6 7 0;
#X connect 3 7 8 0;
#X connect 3 8 9 0;
#X connect 3 9 10 0;
#X connect 3 10 11 0;
#X connect 3 11 12 0;
#X connect 4 0 43 1;
#X connect 5 0 44 1;
#X connect 6 0 45 1;
#X connect 7 0 46 1;
#X connect 8 0 47 1;
#X connect 9 0 48 1;
#X connect 10 0 49 1;
#X connect 11 0 50 1;
#X connect 14 0 13 0;
#X connect 15 0 40 0;
#X connect 16 0 15 0;
#X connect 17 0 28 0;
#X connect 18 0 29 0;
#X connect 19 0 30 0;
#X connect 20 0 31 0;
#X connect 20 0 44 0;
#X connect 21 0 32 0;
#X connect 22 0 33 0;
#X connect 23 0 34 0;
#X connect 24 0 35 0;
#X connect 25 0 36 0;
#X connect 26 0 37 0;
#X connect 27 0 38 0;
#X connect 28 0 41 0;
#X connect 29 0 42 0;
#X connect 30 0 43 0;
#X connect 31 0 44 0;
#X connect 32 0 45 0;
#X connect 33 0 46 0;
#X connect 34 0 47 0;
#X connect 35 0 48 0;
#X connect 36 0 49 0;
#X connect 37 0 50 0;
#X connect 38 0 3 0;
#X connect 39 0 3 0;
#X connect 40 0 14 0;
#X connect 41 0 14 0;
#X connect 42 0 14 0;
#X connect 43 0 14 0;
#X connect 44 0 14 0;
#X connect 45 0 14 0;
#X connect 46 0 14 0;
#X connect 47 0 14 0;
#X connect 48 0 14 0;
#X connect 50 0 14 0;
#X connect 51 0 38 0;
#X connect 52 0 39 0;
#X restore 460 279 pd bass;
#X f 39;
#X text 13 7 algobeat 3;
#X obj 214 128 transport, f 44;
#X obj 214 98 tgl 15 0 empty empty empty 17 7 0 10 -262144 -1 -1 1
1;
#X obj 213 149 bng 15 250 50 0 empty empty empty 17 7 0 10 -262144
-1 -1;
#X obj 257 149 bng 15 250 50 0 empty empty empty 17 7 0 10 -262144
-1 -1;
#X obj 300 149 bng 15 250 50 0 empty empty empty 17 7 0 10 -262144
-1 -1;
#X obj 343 149 bng 15 250 50 0 empty empty empty 17 7 0 10 -262144
-1 -1;
#X obj 388 149 bng 15 250 50 0 empty empty empty 17 7 0 10 -262144
-1 -1;
#X obj 431 151 bng 15 250 50 0 empty empty empty 17 7 0 10 -262144
-1 -1;
#X obj 475 150 bng 15 250 50 0 empty empty empty 17 7 0 10 -262144
-1 -1;
#X obj 213 213 spigot;
#X obj 247 194 tgl 15 0 empty empty empty 17 7 0 10 -262144 -1 -1 1
1;
#X obj 216 261 spigot;
#X obj 268 229 tgl 15 0 empty empty empty 17 7 0 10 -262144 -1 -1 1
1;
#X obj 26 217 freeverb~;
#X msg 704 104 wet \$1;
#X msg 752 104 dry \$1;
#X obj 718 52 hsl 128 15 0 1 0 0 empty empty empty -2 -8 0 10 -262144
-1 -1 0 1;
#N canvas 1 80 450 300 inv 0;
#X obj 154 69 inlet;
#X obj 154 179 outlet;
#X msg 154 124 1;
#X obj 154 97 t b f;
#X obj 154 151 -;
#X connect 0 0 3 0;
#X connect 2 0 4 0;
#X connect 3 0 2 0;
#X connect 3 1 4 1;
#X connect 4 0 1 0;
#X restore 752 77 pd inv;
#X floatatom 810 102 5 0 0 0 - - -;
#X text 695 33 dry;
#X text 820 32 wet;
#X floatatom 711 78 5 0 0 0 - - -;
#X obj 26 179 *~ 0.3;
#X obj 599 23 loadbang;
#X obj 375 455 *~ 0.3;
#X obj 37 472 freeverb~;
#X msg 760 148 dry 0.8;
#X obj 339 361 *~ 0.3;
#X obj 294 337 *~ 1.4;
#X obj 366 423 *~ 0.4;
#X obj 1052 127 del 89;
#X obj 999 127 del 356;
#X obj 1096 124 del 89;
#X obj 1142 123 del 89;
#X obj 714 506 bng 15 250 50 0 empty empty empty 17 7 0 10 -262144
-1 -1;
#X obj 737 505 bng 15 250 50 0 empty empty empty 17 7 0 10 -262144
-1 -1;
#X obj 758 505 bng 15 250 50 0 empty empty empty 17 7 0 10 -262144
-1 -1;
#X obj 779 505 bng 15 250 50 0 empty empty empty 17 7 0 10 -262144
-1 -1;
#X obj 800 505 bng 15 250 50 0 empty empty empty 17 7 0 10 -262144
-1 -1;
#X obj 821 505 bng 15 250 50 0 empty empty empty 17 7 0 10 -262144
-1 -1;
#X obj 842 505 bng 15 250 50 0 empty empty empty 17 7 0 10 -262144
-1 -1;
#X obj 863 505 bng 15 250 50 0 empty empty empty 17 7 0 10 -262144
-1 -1;
#X obj 883 504 bng 15 250 50 0 empty empty empty 17 7 0 10 -262144
-1 -1;
#X obj 904 504 bng 15 250 50 0 empty empty empty 17 7 0 10 -262144
-1 -1;
#X obj 925 504 bng 15 250 50 0 empty empty empty 17 7 0 10 -262144
-1 -1;
#X obj 946 504 bng 15 250 50 0 empty empty empty 17 7 0 10 -262144
-1 -1;
#N canvas 1 67 911 424 misc 0;
#X floatatom 10 92 5 0 0 0 - - -;
#X floatatom 43 92 5 0 0 0 - - -;
#X floatatom 76 92 5 0 0 0 - - -;
#X obj 10 70 unpack 0 0 0 0 0 0 0 0 0 0 0 0 0 0 0 0 0 0 0, f 93;
#X floatatom 108 93 5 0 0 0 - - -;
#X floatatom 141 93 5 0 0 0 - - -;
#X floatatom 174 93 5 0 0 0 - - -;
#X floatatom 206 93 5 0 0 0 - - -;
#X floatatom 239 93 5 0 0 0 - - -;
#X floatatom 272 93 5 0 0 0 - - -;
#X floatatom 304 94 5 0 0 0 - - -;
#X floatatom 337 94 5 0 0 0 - - -;
#X floatatom 370 94 5 0 0 0 - - -;
#X obj 8 388 outlet~;
#X obj 9 362 *~ 0.3;
#X obj 9 185 bng 15 250 50 0 empty empty empty 17 7 0 10 -262144 -1
-1;
#X obj 10 10 inlet;
#X obj 47 10 inlet;
#X obj 84 10 inlet;
#X obj 122 11 inlet;
#X obj 159 11 inlet;
#X obj 196 11 inlet;
#X obj 234 11 inlet;
#X obj 271 11 inlet;
#X obj 308 11 inlet;
#X obj 346 12 inlet;
#X obj 383 12 inlet;
#X obj 420 12 inlet;
#X obj 47 129 bng 15 250 50 0 empty empty empty 17 7 0 10 -262144 -1
-1;
#X obj 82 208 bng 15 250 50 0 empty empty empty 17 7 0 10 -262144 -1
-1;
#X obj 124 153 bng 15 250 50 0 empty empty empty 17 7 0 10 -262144
-1 -1;
#X obj 159 119 bng 15 250 50 0 empty empty empty 17 7 0 10 -262144
-1 -1;
#X obj 197 202 bng 15 250 50 0 empty empty empty 17 7 0 10 -262144
-1 -1;
#X obj 234 153 bng 15 250 50 0 empty empty empty 17 7 0 10 -262144
-1 -1;
#X obj 270 121 bng 15 250 50 0 empty empty empty 17 7 0 10 -262144
-1 -1;
#X obj 307 195 bng 15 250 50 0 empty empty empty 17 7 0 10 -262144
-1 -1;
#X obj 347 152 bng 15 250 50 0 empty empty empty 17 7 0 10 -262144
-1 -1;
#X obj 383 226 bng 15 250 50 0 empty empty empty 17 7 0 10 -262144
-1 -1;
#X msg 513 197 1 2 3 4 5 6 7 8 9 10 11 12 13 14;
#X msg 511 219 15 16 17 18 19 20 21 22 23 24 25 26 27 28;
#X msg 511 242 30 31 32 33 34 35 36 37 38 39 40 41 42 43;
#X msg 511 265 44 45 46 47 48 49 50 51 52 53 54 55 56 57;
#X msg 511 287 60 61 62 63 64 65 66 67 68 69 70 71 72 73;
#X obj 507 148 loadbang;
#X obj 628 92 random 4;
#X obj 629 116 sel 0 1 2 3 4;
#X obj 627 60 bng 15 250 50 0 empty empty empty 17 7 0 10 -262144 -1
-1;
#X obj 628 159 bng 15 250 50 0 empty empty empty 17 7 0 10 -262144
-1 -1;
#X obj 645 160 bng 15 250 50 0 empty empty empty 17 7 0 10 -262144
-1 -1;
#X obj 663 159 bng 15 250 50 0 empty empty empty 17 7 0 10 -262144
-1 -1;
#X obj 679 159 bng 15 250 50 0 empty empty empty 17 7 0 10 -262144
-1 -1;
#X obj 696 159 bng 15 250 50 0 empty empty empty 17 7 0 10 -262144
-1 -1;
#X obj 9 227 misc_channel;
#X obj 47 171 misc_channel;
#X obj 82 250 misc_channel;
#X obj 124 195 misc_channel;
#X obj 159 161 misc_channel;
#X obj 197 244 misc_channel;
#X obj 234 195 misc_channel;
#X obj 272 160 misc_channel;
#X obj 307 237 misc_channel;
#X obj 347 194 misc_channel;
#X obj 383 268 misc_channel;
#X connect 0 0 52 1;
#X connect 1 0 53 1;
#X connect 2 0 54 1;
#X connect 3 0 0 0;
#X connect 3 1 1 0;
#X connect 3 2 2 0;
#X connect 3 3 4 0;
#X connect 3 4 5 0;
#X connect 3 5 6 0;
#X connect 3 6 7 0;
#X connect 3 7 8 0;
#X connect 3 8 9 0;
#X connect 3 9 10 0;
#X connect 3 10 11 0;
#X connect 3 11 12 0;
#X connect 4 0 55 1;
#X connect 5 0 56 1;
#X connect 6 0 57 1;
#X connect 7 0 58 1;
#X connect 8 0 59 1;
#X connect 9 0 60 1;
#X connect 10 0 61 1;
#X connect 11 0 62 1;
#X connect 14 0 13 0;
#X connect 15 0 52 0;
#X connect 16 0 15 0;
#X connect 17 0 28 0;
#X connect 18 0 29 0;
#X connect 19 0 30 0;
#X connect 20 0 31 0;
#X connect 20 0 56 0;
#X connect 21 0 32 0;
#X connect 22 0 33 0;
#X connect 23 0 34 0;
#X connect 24 0 35 0;
#X connect 25 0 36 0;
#X connect 26 0 37 0;
#X connect 27 0 46 0;
#X connect 28 0 53 0;
#X connect 29 0 54 0;
#X connect 30 0 55 0;
#X connect 31 0 56 0;
#X connect 32 0 57 0;
#X connect 33 0 58 0;
#X connect 34 0 59 0;
#X connect 35 0 60 0;
#X connect 36 0 61 0;
#X connect 37 0 62 0;
#X connect 38 0 3 0;
#X connect 39 0 3 0;
#X connect 40 0 3 0;
#X connect 41 0 3 0;
#X connect 42 0 3 0;
#X connect 43 0 39 0;
#X connect 44 0 45 0;
#X connect 45 0 47 0;
#X connect 45 1 48 0;
#X connect 45 2 49 0;
#X connect 45 3 50 0;
#X connect 45 4 51 0;
#X connect 46 0 44 0;
#X connect 47 0 38 0;
#X connect 48 0 39 0;
#X connect 49 0 40 0;
#X connect 50 0 41 0;
#X connect 52 0 14 0;
#X connect 53 0 14 0;
#X connect 54 0 14 0;
#X connect 55 0 14 0;
#X connect 56 0 14 0;
#X connect 57 0 14 0;
#X connect 58 0 14 0;
#X connect 59 0 14 0;
#X connect 60 0 14 0;
#X connect 62 0 14 0;
#X restore 714 522 pd misc;
#X f 39;
#X obj 70 63 + 1;
#X obj 819 411 bng 15 250 50 0 empty empty empty 17 7 0 10 -262144
-1 -1;
#X obj 996 104 spigot;
#X obj 1033 64 tgl 15 0 empty empty empty 17 7 0 10 -262144 -1 -1 1
1;
#X obj 372 394 *~ 0.9;
#X obj 716 545 *~ 2;
#X msg 708 20 1, f 4;
#X obj 282 48 spigot;
#X obj 325 49 spigot;
#X obj 316 17 tgl 15 0 empty empty empty 17 7 0 10 -262144 -1 -1 0
1;
#X obj 837 243 bng 15 250 50 0 empty empty empty 17 7 0 10 -262144
-1 -1;
#X msg 746 22 0, f 4;
#X obj 718 481 sel 0 1 2 3 4;
#X obj 719 459 random 4;
#X msg 71 133 ./sound/hihats/\$1.wav;
#X obj 69 35 random 43;
#X obj 25 243 *~ 0.3;
#X obj 520 80 del 11000;
#X obj 536 105 del 13100;
#X obj 422 14 del 33000;
#X obj 372 514 *~ 2;
#X obj 373 570 *~ 2;
#X obj 608 102 del 45000;
#X obj 628 72 del 30000;
#X obj 138 66 spigot;
#X obj 177 46 tgl 15 0 empty empty empty 17 7 0 10 -262144 -1 -1 1
1;
#X obj 451 48 del 16000;
#X obj 842 153 del 60000;
#X obj 855 176 del 68000;
#X obj 867 196 del 69000;
#X connect 1 0 0 1;
#X connect 1 0 0 0;
#X connect 1 0 7 0;
#X connect 2 0 1 1;
#X connect 3 0 2 0;
#X connect 4 0 3 0;
#X connect 5 0 9 0;
#X connect 5 1 10 0;
#X connect 6 0 8 0;
#X connect 7 0 6 0;
#X connect 8 0 5 0;
#X connect 11 0 134 0;
#X connect 12 0 131 0;
#X connect 13 0 12 0;
#X connect 14 0 12 1;
#X connect 15 0 14 0;
#X connect 15 0 16 0;
#X connect 16 0 170 0;
#X connect 17 0 29 0;
#X connect 18 0 29 1;
#X connect 19 0 29 2;
#X connect 20 0 29 3;
#X connect 21 0 29 4;
#X connect 22 0 29 5;
#X connect 23 0 29 6;
#X connect 24 0 29 7;
#X connect 25 0 29 8;
#X connect 26 0 29 9;
#X connect 27 0 29 10;
#X connect 28 0 29 11;
#X connect 29 0 176 0;
#X connect 30 0 42 0;
#X connect 31 0 42 1;
#X connect 32 0 42 2;
#X connect 33 0 42 3;
#X connect 34 0 42 4;
#X connect 35 0 42 5;
#X connect 36 0 42 6;
#X connect 37 0 42 7;
#X connect 38 0 42 8;
#X connect 39 0 42 9;
#X connect 40 0 42 10;
#X connect 41 0 42 11;
#X connect 42 0 177 0;
#X connect 43 0 55 0;
#X connect 44 0 55 1;
#X connect 45 0 55 2;
#X connect 46 0 55 3;
#X connect 47 0 55 4;
#X connect 48 0 55 5;
#X connect 49 0 55 6;
#X connect 50 0 55 7;
#X connect 51 0 55 8;
#X connect 52 0 55 9;
#X connect 53 0 55 10;
#X connect 54 0 55 11;
#X connect 55 0 133 0;
#X connect 56 0 68 0;
#X connect 57 0 68 1;
#X connect 58 0 68 2;
#X connect 59 0 68 3;
#X connect 60 0 68 4;
#X connect 61 0 68 5;
#X connect 62 0 68 6;
#X connect 63 0 68 7;
#X connect 64 0 68 8;
#X connect 65 0 68 9;
#X connect 66 0 68 10;
#X connect 67 0 68 11;
#X connect 68 0 138 0;
#X connect 69 0 81 0;
#X connect 70 0 81 1;
#X connect 71 0 81 2;
#X connect 72 0 81 3;
#X connect 73 0 81 4;
#X connect 74 0 81 5;
#X connect 75 0 81 6;
#X connect 76 0 81 7;
#X connect 77 0 81 8;
#X connect 78 0 81 9;
#X connect 79 0 81 10;
#X connect 80 0 81 11;
#X connect 81 0 160 0;
#X connect 82 0 94 0;
#X connect 83 0 94 1;
#X connect 84 0 94 2;
#X connect 85 0 94 3;
#X connect 86 0 94 4;
#X connect 87 0 94 5;
#X connect 88 0 94 6;
#X connect 89 0 94 7;
#X connect 90 0 94 8;
#X connect 91 0 94 9;
#X connect 92 0 94 10;
#X connect 93 0 94 11;
#X connect 94 0 136 0;
#X connect 95 0 107 0;
#X connect 96 0 107 1;
#X connect 97 0 107 2;
#X connect 98 0 107 3;
#X connect 99 0 107 4;
#X connect 100 0 107 5;
#X connect 101 0 107 6;
#X connect 102 0 107 7;
#X connect 103 0 107 8;
#X connect 104 0 107 9;
#X connect 105 0 107 10;
#X connect 106 0 107 11;
#X connect 107 0 137 0;
#X connect 109 0 111 0;
#X connect 109 1 112 0;
#X connect 109 2 113 0;
#X connect 109 3 114 0;
#X connect 109 4 115 0;
#X connect 109 5 116 0;
#X connect 109 6 117 0;
#X connect 110 0 109 0;
#X connect 111 0 118 0;
#X connect 111 0 180 0;
#X connect 112 0 120 0;
#X connect 113 0 59 0;
#X connect 113 0 163 0;
#X connect 114 0 64 0;
#X connect 114 0 164 0;
#X connect 115 0 89 0;
#X connect 115 0 158 0;
#X connect 115 0 99 0;
#X connect 116 0 87 0;
#X connect 116 0 95 0;
#X connect 116 0 104 0;
#X connect 116 0 147 0;
#X connect 117 0 119 0;
#X connect 117 0 96 0;
#X connect 117 0 97 0;
#X connect 117 0 169 0;
#X connect 117 0 76 0;
#X connect 118 0 56 0;
#X connect 119 0 118 1;
#X connect 119 0 121 0;
#X connect 120 0 49 0;
#X connect 121 0 120 1;
#X connect 121 0 159 0;
#X connect 122 0 172 0;
#X connect 123 0 122 0;
#X connect 123 0 134 0;
#X connect 124 0 122 0;
#X connect 124 0 134 0;
#X connect 125 0 123 0;
#X connect 125 0 126 0;
#X connect 125 0 130 0;
#X connect 126 0 124 0;
#X connect 126 0 127 0;
#X connect 131 0 122 0;
#X connect 132 0 162 0;
#X connect 132 0 135 0;
#X connect 132 0 173 0;
#X connect 132 0 174 0;
#X connect 132 0 175 0;
#X connect 132 0 178 0;
#X connect 132 0 179 0;
#X connect 132 0 181 0;
#X connect 132 0 182 0;
#X connect 132 0 183 0;
#X connect 132 0 185 0;
#X connect 132 0 184 0;
#X connect 133 0 11 0;
#X connect 134 0 1 0;
#X connect 135 0 134 0;
#X connect 136 0 11 0;
#X connect 137 0 11 0;
#X connect 138 0 11 0;
#X connect 139 0 98 0;
#X connect 139 0 141 0;
#X connect 140 0 98 0;
#X connect 140 0 139 0;
#X connect 141 0 98 0;
#X connect 141 0 142 0;
#X connect 142 0 98 0;
#X connect 143 0 155 0;
#X connect 144 0 155 1;
#X connect 145 0 155 2;
#X connect 146 0 155 3;
#X connect 147 0 155 4;
#X connect 148 0 155 5;
#X connect 149 0 155 6;
#X connect 150 0 155 7;
#X connect 151 0 155 8;
#X connect 152 0 155 9;
#X connect 153 0 155 10;
#X connect 154 0 155 11;
#X connect 155 0 161 0;
#X connect 156 0 15 0;
#X connect 157 0 169 0;
#X connect 158 0 140 0;
#X connect 159 0 158 1;
#X connect 160 0 11 0;
#X connect 161 0 11 0;
#X connect 162 0 125 0;
#X connect 163 0 40 0;
#X connect 164 0 17 0;
#X connect 165 0 163 1;
#X connect 165 0 164 1;
#X connect 165 0 79 0;
#X connect 166 0 107 12;
#X connect 167 0 125 0;
#X connect 168 1 144 0;
#X connect 168 2 145 0;
#X connect 168 3 146 0;
#X connect 168 4 147 0;
#X connect 168 5 148 0;
#X connect 169 0 168 0;
#X connect 170 0 12 2;
#X connect 171 0 156 0;
#X connect 172 0 11 0;
#X connect 173 0 148 0;
#X connect 174 0 146 0;
#X connect 174 0 167 0;
#X connect 175 0 165 0;
#X connect 176 0 11 0;
#X connect 177 0 11 0;
#X connect 178 0 75 0;
#X connect 179 0 181 0;
#X connect 179 0 79 0;
#X connect 180 0 171 0;
#X connect 181 0 180 1;
#X connect 181 0 74 0;
#X connect 182 0 167 0;
#X connect 182 0 110 0;
#X connect 183 0 181 0;
#X connect 183 0 106 0;
#X connect 183 0 165 0;
#X connect 184 0 165 0;
#X connect 185 0 166 0;
#X connect 185 0 74 0;
