#N canvas 781 272 450 300 10;
#X floatatom 37 89 5 0 0 0 - - -;
#X obj 5 172 bng 15 250 50 0 empty empty empty 17 7 0 10 -262144 -1
-1;
#X obj 5 136 del 96;
#X obj 37 114 * 96;
#X obj 5 7 inlet;
#X obj 42 7 inlet;
#X obj 79 7 inlet;
#X obj 5 231 outlet;
#X connect 0 0 3 0;
#X connect 1 0 7 0;
#X connect 2 0 1 0;
#X connect 3 0 2 1;
#X connect 4 0 2 0;
#X connect 5 0 3 1;
#X connect 6 0 0 0;
