#N canvas 6 67 620 480 10;
#X obj 52 210 tabplay~;
#X obj 165 164 bng 15 250 50 0 empty empty empty 17 7 0 10 -262144
-1 -1;
#X msg 164 182 bang;
#X msg 117 173 stop;
#X obj 34 48 soundfiler;
#X obj 109 71 print;
#X floatatom 34 71 0 0 0 0 - - -;
#N canvas 1 67 450 250 (subpatch) 0;
#X array \$0-table 1.04212e+07 float 2;
#X coords 0 1 1.04212e+07 -1 200 140 1 0 0;
#X restore 275 -35 graph;
#X obj 37 -93 inlet;
#X obj 43 283 outlet~;
#X obj 196 -54 openpanel;
#X obj 195 -9 symbol;
#X msg 194 -31 bang;
#X obj 195 -73 bng 15 250 50 0 empty empty empty 17 7 0 10 -262144
-1 -1;
#X obj 199 -95 inlet;
#X obj 54 102 t b;
#X msg 34 21 read -resize \$1 \$0-table \;;
#X msg 38 155 set \$0;
#X connect 0 0 9 0;
#X connect 1 0 2 0;
#X connect 2 0 0 0;
#X connect 3 0 0 0;
#X connect 4 0 6 0;
#X connect 4 0 15 0;
#X connect 4 1 5 0;
#X connect 8 0 1 0;
#X connect 10 0 11 1;
#X connect 10 0 12 0;
#X connect 11 0 16 0;
#X connect 12 0 11 0;
#X connect 13 0 10 0;
#X connect 14 0 13 0;
#X connect 15 0 17 0;
#X connect 16 0 4 0;
#X connect 17 0 0 0;
