#N canvas 594 304 450 300 10;
#X obj 25 88 int;
#X obj 82 88 float;
#X floatatom 40 53 5 0 0 0 - - -;
#X floatatom 78 43 5 0 0 0 - - -;
#X obj 32 128 print;
#X obj 160 38 bng 15 250 50 0 empty empty empty 17 7 0 10 -262144 -1
-1;
#X msg 78 19 1.6;
#X connect 0 0 4 0;
#X connect 1 0 4 0;
#X connect 2 0 0 1;
#X connect 3 0 1 1;
#X connect 5 0 1 0;
#X connect 5 0 0 0;
#X connect 6 0 3 0;
#X connect 6 0 2 0;
