#N canvas 602 120 450 444 10;
#X floatatom 203 36 5 0 0 0 - - -;
#X obj 13 4 tgl 15 0 empty empty empty 17 7 0 10 -262144 -1 -1 0 1
;
#X msg 13 263 monz;
#X msg 77 263 woz;
#X msg 141 262 ere;
#X msg 206 262 wazup;
#X obj 30 366 print;
#N canvas 863 132 450 431 graph_on_parent 0;
#X obj 324 20 tgl 15 0 empty empty empty 17 7 0 10 -262144 -1 -1 0
1;
#X obj 324 42 metro 500;
#X obj 324 63 f 0;
#X obj 350 63 + 1;
#X obj 106 277 bng 15 250 50 0 empty empty empty 17 7 0 10 -262144
-1 -1;
#X obj 126 277 bng 15 250 50 0 empty empty empty 17 7 0 10 -262144
-1 -1;
#X obj 145 277 bng 15 250 50 0 empty empty empty 17 7 0 10 -262144
-1 -1;
#X obj 165 277 bng 15 250 50 0 empty empty empty 17 7 0 10 -262144
-1 -1;
#X obj 324 86 mod 4;
#X obj 324 108 sel 0 1 2 3, f 14;
#X obj 17 10 cnv 15 100 60 empty empty empty 20 12 0 14 -233017 -66577
0;
#X obj 15 400 outlet;
#X obj 58 400 outlet;
#X obj 101 400 outlet;
#X obj 144 400 outlet;
#X floatatom 262 106 5 0 0 0 - - -;
#X obj 148 11 inlet;
#X obj 120 34 inlet;
#X obj 117 146 hsl 128 15 0 127 0 0 empty empty empty -2 -8 0 10 -262144
-1 -1 0 1;
#X floatatom 114 166 5 0 0 0 - - -;
#X connect 0 0 1 0;
#X connect 1 0 2 0;
#X connect 2 0 3 0;
#X connect 2 0 8 0;
#X connect 3 0 2 1;
#X connect 4 0 11 0;
#X connect 5 0 12 0;
#X connect 6 0 13 0;
#X connect 7 0 14 0;
#X connect 8 0 9 0;
#X connect 9 0 4 0;
#X connect 9 1 5 0;
#X connect 9 2 6 0;
#X connect 9 3 7 0;
#X connect 15 0 1 1;
#X connect 16 0 15 0;
#X connect 17 0 0 0;
#X connect 18 0 19 0;
#X coords 0 -1 1 1 200 200 1 100 100;
#X restore 13 56 pd graph_on_parent;
#X connect 0 0 7 1;
#X connect 1 0 7 0;
#X connect 2 0 6 0;
#X connect 3 0 6 0;
#X connect 4 0 6 0;
#X connect 5 0 6 0;
#X connect 7 0 2 0;
#X connect 7 1 3 0;
#X connect 7 2 4 0;
#X connect 7 3 5 0;
