#N canvas 469 359 450 300 10;
#X obj 12 123 channel2;
#X obj 12 104 bng 15 250 50 0 empty empty empty 17 7 0 10 -262144 -1
-1;
#X obj 33 104 bng 15 250 50 0 empty empty empty 17 7 0 10 -262144 -1
-1;
#X floatatom 55 48 5 0 0 0 - - -;
#X obj 10 24 inlet;
#X obj 46 24 inlet;
#X obj 11 149 outlet~;
#X msg 57 99 ./sound/hihats/\$1.wav;
#X connect 0 0 6 0;
#X connect 1 0 0 0;
#X connect 2 0 0 1;
#X connect 3 0 2 0;
#X connect 3 0 7 0;
#X connect 4 0 2 0;
#X connect 5 0 3 0;
#X connect 7 0 0 2;
