#N canvas 456 273 450 300 10;
#X obj 61 74 list;
#X msg 66 31 monz woz ere;
#X obj 61 126 print;
#X obj 14 13 bng 15 250 50 0 empty empty empty 17 7 0 10 -262144 -1
-1;
#X obj 103 126 unpack s s s, f 44;
#X symbolatom 103 158 10 0 0 0 - - -;
#X symbolatom 233 159 10 0 0 0 - - -;
#X symbolatom 364 159 10 0 0 0 - - -;
#X connect 0 0 2 0;
#X connect 0 0 4 0;
#X connect 1 0 0 1;
#X connect 3 0 0 0;
#X connect 4 0 5 0;
#X connect 4 1 6 0;
#X connect 4 2 7 0;
