#N canvas 10 88 711 591 10;
#X obj 44 59 transport, f 44;
#X obj 44 11 tgl 15 0 empty empty empty 17 7 0 10 -262144 -1 -1 0 1
;
#X obj 43 80 bng 15 250 50 0 empty empty empty 17 7 0 10 -262144 -1
-1;
#X obj 88 80 bng 15 250 50 0 empty empty empty 17 7 0 10 -262144 -1
-1;
#X obj 130 80 bng 15 250 50 0 empty empty empty 17 7 0 10 -262144 -1
-1;
#X obj 173 80 bng 15 250 50 0 empty empty empty 17 7 0 10 -262144 -1
-1;
#X obj 218 80 bng 15 250 50 0 empty empty empty 17 7 0 10 -262144 -1
-1;
#X obj 262 81 bng 15 250 50 0 empty empty empty 17 7 0 10 -262144 -1
-1;
#X obj 305 81 bng 15 250 50 0 empty empty empty 17 7 0 10 -262144 -1
-1;
#X obj 75 414 vu 15 120 empty empty -1 -8 0 10 -66577 -1 1 0;
#X obj 75 370 - 100;
#X obj 75 349 env~;
#X floatatom 75 392 5 0 0 0 - - -;
#X floatatom 52 551 5 0 0 0 - - -;
#X floatatom 89 552 5 0 0 0 - - -;
#X obj 44 370 dac~;
#N canvas 417 205 450 300 drums 0;
#X obj 114 161 bng 15 250 50 0 empty empty empty 17 7 0 10 -262144
-1 -1;
#X obj 135 161 bng 15 250 50 0 empty empty empty 17 7 0 10 -262144
-1 -1;
#X obj 156 161 bng 15 250 50 0 empty empty empty 17 7 0 10 -262144
-1 -1;
#X obj 177 161 bng 15 250 50 0 empty empty empty 17 7 0 10 -262144
-1 -1;
#X obj 198 161 bng 15 250 50 0 empty empty empty 17 7 0 10 -262144
-1 -1;
#X obj 219 161 bng 15 250 50 0 empty empty empty 17 7 0 10 -262144
-1 -1;
#X obj 240 161 bng 15 250 50 0 empty empty empty 17 7 0 10 -262144
-1 -1;
#X obj 261 161 bng 15 250 50 0 empty empty empty 17 7 0 10 -262144
-1 -1;
#X obj 281 160 bng 15 250 50 0 empty empty empty 17 7 0 10 -262144
-1 -1;
#X obj 302 160 bng 15 250 50 0 empty empty empty 17 7 0 10 -262144
-1 -1;
#X obj 323 160 bng 15 250 50 0 empty empty empty 17 7 0 10 -262144
-1 -1;
#X obj 344 160 bng 15 250 50 0 empty empty empty 17 7 0 10 -262144
-1 -1;
#N canvas 1 67 911 424 snare 0;
#X floatatom 10 92 5 0 0 0 - - -;
#X floatatom 43 92 5 0 0 0 - - -;
#X floatatom 76 92 5 0 0 0 - - -;
#X obj 10 70 unpack 0 0 0 0 0 0 0 0 0 0 0 0 0 0 0 0 0 0 0, f 93;
#X floatatom 108 93 5 0 0 0 - - -;
#X floatatom 141 93 5 0 0 0 - - -;
#X floatatom 174 93 5 0 0 0 - - -;
#X floatatom 206 93 5 0 0 0 - - -;
#X floatatom 239 93 5 0 0 0 - - -;
#X floatatom 272 93 5 0 0 0 - - -;
#X floatatom 304 94 5 0 0 0 - - -;
#X floatatom 337 94 5 0 0 0 - - -;
#X floatatom 370 94 5 0 0 0 - - -;
#X obj 8 388 outlet~;
#X obj 9 362 *~ 0.3;
#X obj 9 185 bng 15 250 50 0 empty empty empty 17 7 0 10 -262144 -1
-1;
#X obj 10 10 inlet;
#X obj 47 10 inlet;
#X obj 84 10 inlet;
#X obj 122 11 inlet;
#X obj 159 11 inlet;
#X obj 196 11 inlet;
#X obj 234 11 inlet;
#X obj 271 11 inlet;
#X obj 308 11 inlet;
#X obj 346 12 inlet;
#X obj 383 12 inlet;
#X obj 420 12 inlet;
#X obj 47 129 bng 15 250 50 0 empty empty empty 17 7 0 10 -262144 -1
-1;
#X obj 82 208 bng 15 250 50 0 empty empty empty 17 7 0 10 -262144 -1
-1;
#X obj 124 153 bng 15 250 50 0 empty empty empty 17 7 0 10 -262144
-1 -1;
#X obj 159 119 bng 15 250 50 0 empty empty empty 17 7 0 10 -262144
-1 -1;
#X obj 197 202 bng 15 250 50 0 empty empty empty 17 7 0 10 -262144
-1 -1;
#X obj 234 153 bng 15 250 50 0 empty empty empty 17 7 0 10 -262144
-1 -1;
#X obj 270 121 bng 15 250 50 0 empty empty empty 17 7 0 10 -262144
-1 -1;
#X obj 307 195 bng 15 250 50 0 empty empty empty 17 7 0 10 -262144
-1 -1;
#X obj 347 152 bng 15 250 50 0 empty empty empty 17 7 0 10 -262144
-1 -1;
#X obj 383 226 bng 15 250 50 0 empty empty empty 17 7 0 10 -262144
-1 -1;
#X msg 513 197 1 2 3 4 5 6 7 8 9 10 11 12 13 14;
#X msg 511 219 15 16 17 18 19 20 21 22 23 24 25 26 27 28;
#X msg 511 242 30 31 32 33 34 35 36 37 38 39 40 41 42 43;
#X msg 511 265 44 45 46 47 48 49 50 51 52 53 54 55 56 57;
#X obj 9 227 snare_channel;
#X obj 47 171 snare_channel;
#X obj 82 250 snare_channel;
#X obj 124 195 snare_channel;
#X obj 159 161 snare_channel;
#X obj 197 244 snare_channel;
#X obj 234 195 snare_channel;
#X obj 270 163 snare_channel;
#X obj 307 237 snare_channel;
#X obj 347 194 snare_channel;
#X obj 383 268 snare_channel;
#X msg 511 287 60 61 62 63 64 65 66 67 68 69 70 71 72 73;
#X obj 511 171 loadbang;
#X obj 628 92 random 4;
#X obj 629 116 sel 0 1 2 3 4;
#X obj 627 60 bng 15 250 50 0 empty empty empty 17 7 0 10 -262144 -1
-1;
#X obj 628 159 bng 15 250 50 0 empty empty empty 17 7 0 10 -262144
-1 -1;
#X obj 645 160 bng 15 250 50 0 empty empty empty 17 7 0 10 -262144
-1 -1;
#X obj 663 159 bng 15 250 50 0 empty empty empty 17 7 0 10 -262144
-1 -1;
#X obj 679 159 bng 15 250 50 0 empty empty empty 17 7 0 10 -262144
-1 -1;
#X obj 696 159 bng 15 250 50 0 empty empty empty 17 7 0 10 -262144
-1 -1;
#X connect 0 0 42 1;
#X connect 1 0 43 1;
#X connect 2 0 44 1;
#X connect 3 0 0 0;
#X connect 3 1 1 0;
#X connect 3 2 2 0;
#X connect 3 3 4 0;
#X connect 3 4 5 0;
#X connect 3 5 6 0;
#X connect 3 6 7 0;
#X connect 3 7 8 0;
#X connect 3 8 9 0;
#X connect 3 9 10 0;
#X connect 3 10 11 0;
#X connect 3 11 12 0;
#X connect 4 0 45 1;
#X connect 5 0 46 1;
#X connect 6 0 47 1;
#X connect 7 0 48 1;
#X connect 8 0 49 1;
#X connect 9 0 50 1;
#X connect 10 0 51 1;
#X connect 11 0 52 1;
#X connect 14 0 13 0;
#X connect 15 0 42 0;
#X connect 16 0 15 0;
#X connect 17 0 28 0;
#X connect 18 0 29 0;
#X connect 19 0 30 0;
#X connect 20 0 31 0;
#X connect 20 0 46 0;
#X connect 21 0 32 0;
#X connect 22 0 33 0;
#X connect 23 0 34 0;
#X connect 24 0 35 0;
#X connect 25 0 36 0;
#X connect 26 0 37 0;
#X connect 27 0 57 0;
#X connect 28 0 43 0;
#X connect 29 0 44 0;
#X connect 30 0 45 0;
#X connect 31 0 46 0;
#X connect 32 0 47 0;
#X connect 33 0 48 0;
#X connect 34 0 49 0;
#X connect 35 0 50 0;
#X connect 36 0 51 0;
#X connect 37 0 52 0;
#X connect 38 0 3 0;
#X connect 39 0 3 0;
#X connect 40 0 3 0;
#X connect 41 0 3 0;
#X connect 42 0 14 0;
#X connect 43 0 14 0;
#X connect 44 0 14 0;
#X connect 45 0 14 0;
#X connect 46 0 14 0;
#X connect 47 0 14 0;
#X connect 48 0 14 0;
#X connect 49 0 14 0;
#X connect 50 0 14 0;
#X connect 52 0 14 0;
#X connect 53 0 3 0;
#X connect 54 0 38 0;
#X connect 55 0 56 0;
#X connect 56 0 58 0;
#X connect 56 1 59 0;
#X connect 56 2 60 0;
#X connect 56 3 61 0;
#X connect 56 4 62 0;
#X connect 57 0 55 0;
#X connect 58 0 38 0;
#X connect 59 0 39 0;
#X connect 60 0 40 0;
#X connect 61 0 41 0;
#X restore 114 180 pd snare;
#X f 39;
#X obj 116 204 bng 15 250 50 0 empty empty empty 17 7 0 10 -262144
-1 -1;
#X obj 137 204 bng 15 250 50 0 empty empty empty 17 7 0 10 -262144
-1 -1;
#X obj 158 204 bng 15 250 50 0 empty empty empty 17 7 0 10 -262144
-1 -1;
#X obj 179 204 bng 15 250 50 0 empty empty empty 17 7 0 10 -262144
-1 -1;
#X obj 200 204 bng 15 250 50 0 empty empty empty 17 7 0 10 -262144
-1 -1;
#X obj 221 204 bng 15 250 50 0 empty empty empty 17 7 0 10 -262144
-1 -1;
#X obj 242 204 bng 15 250 50 0 empty empty empty 17 7 0 10 -262144
-1 -1;
#X obj 263 204 bng 15 250 50 0 empty empty empty 17 7 0 10 -262144
-1 -1;
#X obj 283 203 bng 15 250 50 0 empty empty empty 17 7 0 10 -262144
-1 -1;
#X obj 304 203 bng 15 250 50 0 empty empty empty 17 7 0 10 -262144
-1 -1;
#X obj 325 203 bng 15 250 50 0 empty empty empty 17 7 0 10 -262144
-1 -1;
#X obj 346 203 bng 15 250 50 0 empty empty empty 17 7 0 10 -262144
-1 -1;
#N canvas 384 215 911 424 kick 0;
#X floatatom 10 92 5 0 0 0 - - -;
#X floatatom 43 92 5 0 0 0 - - -;
#X floatatom 76 92 5 0 0 0 - - -;
#X obj 10 70 unpack 0 0 0 0 0 0 0 0 0 0 0 0 0 0 0 0 0 0 0, f 93;
#X floatatom 108 93 5 0 0 0 - - -;
#X floatatom 141 93 5 0 0 0 - - -;
#X floatatom 174 93 5 0 0 0 - - -;
#X floatatom 206 93 5 0 0 0 - - -;
#X floatatom 239 93 5 0 0 0 - - -;
#X floatatom 272 93 5 0 0 0 - - -;
#X floatatom 304 94 5 0 0 0 - - -;
#X floatatom 337 94 5 0 0 0 - - -;
#X floatatom 370 94 5 0 0 0 - - -;
#X obj 8 388 outlet~;
#X obj 9 362 *~ 0.3;
#X obj 9 185 bng 15 250 50 0 empty empty empty 17 7 0 10 -262144 -1
-1;
#X obj 10 10 inlet;
#X obj 47 10 inlet;
#X obj 84 10 inlet;
#X obj 122 11 inlet;
#X obj 159 11 inlet;
#X obj 196 11 inlet;
#X obj 234 11 inlet;
#X obj 271 11 inlet;
#X obj 308 11 inlet;
#X obj 346 12 inlet;
#X obj 383 12 inlet;
#X obj 420 12 inlet;
#X obj 47 129 bng 15 250 50 0 empty empty empty 17 7 0 10 -262144 -1
-1;
#X obj 82 208 bng 15 250 50 0 empty empty empty 17 7 0 10 -262144 -1
-1;
#X obj 124 153 bng 15 250 50 0 empty empty empty 17 7 0 10 -262144
-1 -1;
#X obj 159 119 bng 15 250 50 0 empty empty empty 17 7 0 10 -262144
-1 -1;
#X obj 197 202 bng 15 250 50 0 empty empty empty 17 7 0 10 -262144
-1 -1;
#X obj 234 153 bng 15 250 50 0 empty empty empty 17 7 0 10 -262144
-1 -1;
#X obj 270 121 bng 15 250 50 0 empty empty empty 17 7 0 10 -262144
-1 -1;
#X obj 307 195 bng 15 250 50 0 empty empty empty 17 7 0 10 -262144
-1 -1;
#X obj 347 152 bng 15 250 50 0 empty empty empty 17 7 0 10 -262144
-1 -1;
#X obj 383 226 bng 15 250 50 0 empty empty empty 17 7 0 10 -262144
-1 -1;
#X msg 513 197 1 2 3 4 5 6 7 8 9 10 11 12 13 14;
#X msg 511 219 15 16 17 18 19 20 21 22 23 24 25 26 27 28;
#X msg 511 242 30 31 32 33 34 35 36 37 38 39 40 41 42 43;
#X msg 511 265 44 45 46 47 48 49 50 51 52 53 54 55 56 57;
#X msg 511 287 60 61 62 63 64 65 66 67 68 69 70 71 72 73;
#X obj 9 227 kick_channel;
#X obj 47 171 kick_channel;
#X obj 82 250 kick_channel;
#X obj 124 195 kick_channel;
#X obj 159 161 kick_channel;
#X obj 197 244 kick_channel;
#X obj 234 195 kick_channel;
#X obj 272 160 kick_channel;
#X obj 307 237 kick_channel;
#X obj 347 194 kick_channel;
#X obj 383 268 kick_channel;
#X obj 511 171 loadbang;
#X obj 628 92 random 4;
#X obj 629 116 sel 0 1 2 3 4;
#X obj 627 60 bng 15 250 50 0 empty empty empty 17 7 0 10 -262144 -1
-1;
#X obj 628 159 bng 15 250 50 0 empty empty empty 17 7 0 10 -262144
-1 -1;
#X obj 645 160 bng 15 250 50 0 empty empty empty 17 7 0 10 -262144
-1 -1;
#X obj 663 159 bng 15 250 50 0 empty empty empty 17 7 0 10 -262144
-1 -1;
#X obj 679 159 bng 15 250 50 0 empty empty empty 17 7 0 10 -262144
-1 -1;
#X obj 696 159 bng 15 250 50 0 empty empty empty 17 7 0 10 -262144
-1 -1;
#X connect 0 0 43 1;
#X connect 1 0 44 1;
#X connect 2 0 45 1;
#X connect 3 0 0 0;
#X connect 3 1 1 0;
#X connect 3 2 2 0;
#X connect 3 3 4 0;
#X connect 3 4 5 0;
#X connect 3 5 6 0;
#X connect 3 6 7 0;
#X connect 3 7 8 0;
#X connect 3 8 9 0;
#X connect 3 9 10 0;
#X connect 3 10 11 0;
#X connect 3 11 12 0;
#X connect 4 0 46 1;
#X connect 5 0 47 1;
#X connect 6 0 48 1;
#X connect 7 0 49 1;
#X connect 8 0 50 1;
#X connect 9 0 51 1;
#X connect 10 0 52 1;
#X connect 11 0 53 1;
#X connect 14 0 13 0;
#X connect 15 0 43 0;
#X connect 16 0 15 0;
#X connect 17 0 28 0;
#X connect 18 0 29 0;
#X connect 19 0 30 0;
#X connect 20 0 31 0;
#X connect 20 0 47 0;
#X connect 21 0 32 0;
#X connect 22 0 33 0;
#X connect 23 0 34 0;
#X connect 24 0 35 0;
#X connect 25 0 36 0;
#X connect 26 0 37 0;
#X connect 27 0 57 0;
#X connect 28 0 44 0;
#X connect 29 0 45 0;
#X connect 30 0 46 0;
#X connect 31 0 47 0;
#X connect 32 0 48 0;
#X connect 33 0 49 0;
#X connect 34 0 50 0;
#X connect 35 0 51 0;
#X connect 36 0 52 0;
#X connect 37 0 53 0;
#X connect 38 0 3 0;
#X connect 39 0 3 0;
#X connect 40 0 3 0;
#X connect 41 0 3 0;
#X connect 42 0 3 0;
#X connect 43 0 14 0;
#X connect 44 0 14 0;
#X connect 45 0 14 0;
#X connect 46 0 14 0;
#X connect 47 0 14 0;
#X connect 48 0 14 0;
#X connect 49 0 14 0;
#X connect 50 0 14 0;
#X connect 51 0 14 0;
#X connect 53 0 14 0;
#X connect 54 0 38 0;
#X connect 55 0 56 0;
#X connect 56 0 58 0;
#X connect 56 1 59 0;
#X connect 56 2 60 0;
#X connect 56 3 61 0;
#X connect 56 4 62 0;
#X connect 57 0 55 0;
#X connect 58 0 38 0;
#X connect 59 0 39 0;
#X connect 60 0 40 0;
#X connect 61 0 41 0;
#X restore 114 221 pd kick;
#X f 39;
#X obj 117 115 bng 15 250 50 0 empty empty empty 17 7 0 10 -262144
-1 -1;
#X obj 138 115 bng 15 250 50 0 empty empty empty 17 7 0 10 -262144
-1 -1;
#X obj 159 115 bng 15 250 50 0 empty empty empty 17 7 0 10 -262144
-1 -1;
#X obj 180 115 bng 15 250 50 0 empty empty empty 17 7 0 10 -262144
-1 -1;
#X obj 201 115 bng 15 250 50 0 empty empty empty 17 7 0 10 -262144
-1 -1;
#X obj 222 115 bng 15 250 50 0 empty empty empty 17 7 0 10 -262144
-1 -1;
#X obj 243 115 bng 15 250 50 0 empty empty empty 17 7 0 10 -262144
-1 -1;
#X obj 264 115 bng 15 250 50 0 empty empty empty 17 7 0 10 -262144
-1 -1;
#X obj 284 114 bng 15 250 50 0 empty empty empty 17 7 0 10 -262144
-1 -1;
#X obj 305 114 bng 15 250 50 0 empty empty empty 17 7 0 10 -262144
-1 -1;
#X obj 326 114 bng 15 250 50 0 empty empty empty 17 7 0 10 -262144
-1 -1;
#X obj 347 114 bng 15 250 50 0 empty empty empty 17 7 0 10 -262144
-1 -1;
#N canvas 1 67 911 424 hihats 0;
#X floatatom 10 92 5 0 0 0 - - -;
#X floatatom 43 92 5 0 0 0 - - -;
#X floatatom 76 92 5 0 0 0 - - -;
#X obj 10 70 unpack 0 0 0 0 0 0 0 0 0 0 0 0 0 0 0 0 0 0 0, f 93;
#X floatatom 108 93 5 0 0 0 - - -;
#X floatatom 141 93 5 0 0 0 - - -;
#X floatatom 174 93 5 0 0 0 - - -;
#X floatatom 206 93 5 0 0 0 - - -;
#X floatatom 239 93 5 0 0 0 - - -;
#X floatatom 272 93 5 0 0 0 - - -;
#X floatatom 304 94 5 0 0 0 - - -;
#X floatatom 337 94 5 0 0 0 - - -;
#X floatatom 370 94 5 0 0 0 - - -;
#X obj 8 388 outlet~;
#X obj 9 362 *~ 0.3;
#X obj 9 185 bng 15 250 50 0 empty empty empty 17 7 0 10 -262144 -1
-1;
#X obj 10 10 inlet;
#X obj 47 10 inlet;
#X obj 84 10 inlet;
#X obj 122 11 inlet;
#X obj 159 11 inlet;
#X obj 196 11 inlet;
#X obj 234 11 inlet;
#X obj 271 11 inlet;
#X obj 308 11 inlet;
#X obj 346 12 inlet;
#X obj 383 12 inlet;
#X obj 420 12 inlet;
#X obj 47 129 bng 15 250 50 0 empty empty empty 17 7 0 10 -262144 -1
-1;
#X obj 82 208 bng 15 250 50 0 empty empty empty 17 7 0 10 -262144 -1
-1;
#X obj 124 153 bng 15 250 50 0 empty empty empty 17 7 0 10 -262144
-1 -1;
#X obj 159 119 bng 15 250 50 0 empty empty empty 17 7 0 10 -262144
-1 -1;
#X obj 197 202 bng 15 250 50 0 empty empty empty 17 7 0 10 -262144
-1 -1;
#X obj 234 153 bng 15 250 50 0 empty empty empty 17 7 0 10 -262144
-1 -1;
#X obj 270 121 bng 15 250 50 0 empty empty empty 17 7 0 10 -262144
-1 -1;
#X obj 307 195 bng 15 250 50 0 empty empty empty 17 7 0 10 -262144
-1 -1;
#X obj 347 152 bng 15 250 50 0 empty empty empty 17 7 0 10 -262144
-1 -1;
#X obj 383 226 bng 15 250 50 0 empty empty empty 17 7 0 10 -262144
-1 -1;
#X msg 513 197 1 2 3 4 5 6 7 8 9 10 11 12 13 14;
#X msg 511 219 15 16 17 18 19 20 21 22 23 24 25 26 27 28;
#X msg 511 242 30 31 32 33 34 35 36 37 38 39 40 41 42 43;
#X msg 511 265 44 45 46 47 48 49 50 51 52 53 54 55 56 57;
#X msg 511 287 60 61 62 63 64 65 66 67 68 69 70 71 72 73;
#X obj 9 227 hihats_channel;
#X obj 47 171 hihats_channel;
#X obj 82 250 hihats_channel;
#X obj 124 195 hihats_channel;
#X obj 159 161 hihats_channel;
#X obj 197 244 hihats_channel;
#X obj 234 195 hihats_channel;
#X obj 272 160 hihats_channel;
#X obj 307 237 hihats_channel;
#X obj 347 194 hihats_channel;
#X obj 383 268 hihats_channel;
#X obj 511 171 loadbang;
#X obj 628 92 random 4;
#X obj 629 116 sel 0 1 2 3 4;
#X obj 627 60 bng 15 250 50 0 empty empty empty 17 7 0 10 -262144 -1
-1;
#X obj 628 159 bng 15 250 50 0 empty empty empty 17 7 0 10 -262144
-1 -1;
#X obj 645 160 bng 15 250 50 0 empty empty empty 17 7 0 10 -262144
-1 -1;
#X obj 663 159 bng 15 250 50 0 empty empty empty 17 7 0 10 -262144
-1 -1;
#X obj 679 159 bng 15 250 50 0 empty empty empty 17 7 0 10 -262144
-1 -1;
#X obj 696 159 bng 15 250 50 0 empty empty empty 17 7 0 10 -262144
-1 -1;
#X connect 0 0 43 1;
#X connect 1 0 44 1;
#X connect 2 0 45 1;
#X connect 3 0 0 0;
#X connect 3 1 1 0;
#X connect 3 2 2 0;
#X connect 3 3 4 0;
#X connect 3 4 5 0;
#X connect 3 5 6 0;
#X connect 3 6 7 0;
#X connect 3 7 8 0;
#X connect 3 8 9 0;
#X connect 3 9 10 0;
#X connect 3 10 11 0;
#X connect 3 11 12 0;
#X connect 4 0 46 1;
#X connect 5 0 47 1;
#X connect 6 0 48 1;
#X connect 7 0 49 1;
#X connect 8 0 50 1;
#X connect 9 0 51 1;
#X connect 10 0 52 1;
#X connect 11 0 53 1;
#X connect 14 0 13 0;
#X connect 15 0 43 0;
#X connect 16 0 15 0;
#X connect 17 0 28 0;
#X connect 18 0 29 0;
#X connect 19 0 30 0;
#X connect 20 0 31 0;
#X connect 20 0 47 0;
#X connect 21 0 32 0;
#X connect 22 0 33 0;
#X connect 23 0 34 0;
#X connect 24 0 35 0;
#X connect 25 0 36 0;
#X connect 26 0 37 0;
#X connect 27 0 57 0;
#X connect 28 0 44 0;
#X connect 29 0 45 0;
#X connect 30 0 46 0;
#X connect 31 0 47 0;
#X connect 32 0 48 0;
#X connect 33 0 49 0;
#X connect 34 0 50 0;
#X connect 35 0 51 0;
#X connect 36 0 52 0;
#X connect 37 0 53 0;
#X connect 38 0 3 0;
#X connect 39 0 3 0;
#X connect 40 0 3 0;
#X connect 41 0 3 0;
#X connect 42 0 3 0;
#X connect 43 0 14 0;
#X connect 44 0 14 0;
#X connect 45 0 14 0;
#X connect 46 0 14 0;
#X connect 47 0 14 0;
#X connect 48 0 14 0;
#X connect 49 0 14 0;
#X connect 50 0 14 0;
#X connect 51 0 14 0;
#X connect 53 0 14 0;
#X connect 54 0 38 0;
#X connect 55 0 56 0;
#X connect 56 0 58 0;
#X connect 56 1 59 0;
#X connect 56 2 60 0;
#X connect 56 3 61 0;
#X connect 56 4 62 0;
#X connect 57 0 55 0;
#X connect 58 0 38 0;
#X connect 59 0 39 0;
#X connect 60 0 40 0;
#X connect 61 0 41 0;
#X restore 115 132 pd hihats;
#X f 39;
#X obj 118 70 bng 15 250 50 0 empty empty empty 17 7 0 10 -262144 -1
-1;
#X obj 139 70 bng 15 250 50 0 empty empty empty 17 7 0 10 -262144 -1
-1;
#X obj 160 70 bng 15 250 50 0 empty empty empty 17 7 0 10 -262144 -1
-1;
#X obj 181 70 bng 15 250 50 0 empty empty empty 17 7 0 10 -262144 -1
-1;
#X obj 202 70 bng 15 250 50 0 empty empty empty 17 7 0 10 -262144 -1
-1;
#X obj 223 70 bng 15 250 50 0 empty empty empty 17 7 0 10 -262144 -1
-1;
#X obj 244 70 bng 15 250 50 0 empty empty empty 17 7 0 10 -262144 -1
-1;
#X obj 265 70 bng 15 250 50 0 empty empty empty 17 7 0 10 -262144 -1
-1;
#X obj 285 69 bng 15 250 50 0 empty empty empty 17 7 0 10 -262144 -1
-1;
#X obj 306 69 bng 15 250 50 0 empty empty empty 17 7 0 10 -262144 -1
-1;
#X obj 327 69 bng 15 250 50 0 empty empty empty 17 7 0 10 -262144 -1
-1;
#X obj 348 69 bng 15 250 50 0 empty empty empty 17 7 0 10 -262144 -1
-1;
#N canvas 1 67 911 424 perc 0;
#X floatatom 10 92 5 0 0 0 - - -;
#X floatatom 43 92 5 0 0 0 - - -;
#X floatatom 76 92 5 0 0 0 - - -;
#X obj 10 70 unpack 0 0 0 0 0 0 0 0 0 0 0 0 0 0 0 0 0 0 0, f 93;
#X floatatom 108 93 5 0 0 0 - - -;
#X floatatom 141 93 5 0 0 0 - - -;
#X floatatom 174 93 5 0 0 0 - - -;
#X floatatom 206 93 5 0 0 0 - - -;
#X floatatom 239 93 5 0 0 0 - - -;
#X floatatom 272 93 5 0 0 0 - - -;
#X floatatom 304 94 5 0 0 0 - - -;
#X floatatom 337 94 5 0 0 0 - - -;
#X floatatom 370 94 5 0 0 0 - - -;
#X obj 8 388 outlet~;
#X obj 9 362 *~ 0.3;
#X obj 9 185 bng 15 250 50 0 empty empty empty 17 7 0 10 -262144 -1
-1;
#X obj 10 10 inlet;
#X obj 47 10 inlet;
#X obj 84 10 inlet;
#X obj 122 11 inlet;
#X obj 159 11 inlet;
#X obj 196 11 inlet;
#X obj 234 11 inlet;
#X obj 271 11 inlet;
#X obj 308 11 inlet;
#X obj 346 12 inlet;
#X obj 383 12 inlet;
#X obj 420 12 inlet;
#X obj 47 129 bng 15 250 50 0 empty empty empty 17 7 0 10 -262144 -1
-1;
#X obj 82 208 bng 15 250 50 0 empty empty empty 17 7 0 10 -262144 -1
-1;
#X obj 124 153 bng 15 250 50 0 empty empty empty 17 7 0 10 -262144
-1 -1;
#X obj 159 119 bng 15 250 50 0 empty empty empty 17 7 0 10 -262144
-1 -1;
#X obj 197 202 bng 15 250 50 0 empty empty empty 17 7 0 10 -262144
-1 -1;
#X obj 234 153 bng 15 250 50 0 empty empty empty 17 7 0 10 -262144
-1 -1;
#X obj 270 121 bng 15 250 50 0 empty empty empty 17 7 0 10 -262144
-1 -1;
#X obj 307 195 bng 15 250 50 0 empty empty empty 17 7 0 10 -262144
-1 -1;
#X obj 347 152 bng 15 250 50 0 empty empty empty 17 7 0 10 -262144
-1 -1;
#X obj 383 226 bng 15 250 50 0 empty empty empty 17 7 0 10 -262144
-1 -1;
#X msg 512 198 1 2 3 4 5 6 7 8 9 10 11 12 13 14;
#X msg 511 219 15 16 17 18 19 20 21 22 23 24 25 26 27 28;
#X msg 511 242 30 31 32 33 34 35 36 37 38 39 40 41 42 43;
#X msg 511 265 44 45 46 47 48 49 50 51 52 53 54 55 56 57;
#X msg 511 287 60 61 62 63 64 65 66 67 68 69 70 71 72 73;
#X obj 9 227 perc_channel;
#X obj 47 171 perc_channel;
#X obj 82 250 perc_channel;
#X obj 124 195 perc_channel;
#X obj 159 161 perc_channel;
#X obj 197 244 perc_channel;
#X obj 234 195 perc_channel;
#X obj 272 160 perc_channel;
#X obj 307 237 perc_channel;
#X obj 347 194 perc_channel;
#X obj 383 268 perc_channel;
#X obj 511 171 loadbang;
#X obj 628 92 random 4;
#X obj 629 116 sel 0 1 2 3 4;
#X obj 627 60 bng 15 250 50 0 empty empty empty 17 7 0 10 -262144 -1
-1;
#X obj 628 159 bng 15 250 50 0 empty empty empty 17 7 0 10 -262144
-1 -1;
#X obj 645 160 bng 15 250 50 0 empty empty empty 17 7 0 10 -262144
-1 -1;
#X obj 663 159 bng 15 250 50 0 empty empty empty 17 7 0 10 -262144
-1 -1;
#X obj 679 159 bng 15 250 50 0 empty empty empty 17 7 0 10 -262144
-1 -1;
#X obj 696 159 bng 15 250 50 0 empty empty empty 17 7 0 10 -262144
-1 -1;
#X connect 0 0 43 1;
#X connect 1 0 44 1;
#X connect 2 0 45 1;
#X connect 3 0 0 0;
#X connect 3 1 1 0;
#X connect 3 2 2 0;
#X connect 3 3 4 0;
#X connect 3 4 5 0;
#X connect 3 5 6 0;
#X connect 3 6 7 0;
#X connect 3 7 8 0;
#X connect 3 8 9 0;
#X connect 3 9 10 0;
#X connect 3 10 11 0;
#X connect 3 11 12 0;
#X connect 4 0 46 1;
#X connect 5 0 47 1;
#X connect 6 0 48 1;
#X connect 7 0 49 1;
#X connect 8 0 50 1;
#X connect 9 0 51 1;
#X connect 10 0 52 1;
#X connect 11 0 53 1;
#X connect 14 0 13 0;
#X connect 15 0 43 0;
#X connect 16 0 15 0;
#X connect 17 0 28 0;
#X connect 18 0 29 0;
#X connect 19 0 30 0;
#X connect 20 0 31 0;
#X connect 20 0 47 0;
#X connect 21 0 32 0;
#X connect 22 0 33 0;
#X connect 23 0 34 0;
#X connect 24 0 35 0;
#X connect 25 0 36 0;
#X connect 26 0 37 0;
#X connect 27 0 57 0;
#X connect 28 0 44 0;
#X connect 29 0 45 0;
#X connect 30 0 46 0;
#X connect 31 0 47 0;
#X connect 32 0 48 0;
#X connect 33 0 49 0;
#X connect 34 0 50 0;
#X connect 35 0 51 0;
#X connect 36 0 52 0;
#X connect 37 0 53 0;
#X connect 38 0 3 0;
#X connect 39 0 3 0;
#X connect 40 0 3 0;
#X connect 41 0 3 0;
#X connect 42 0 3 0;
#X connect 43 0 14 0;
#X connect 44 0 14 0;
#X connect 45 0 14 0;
#X connect 46 0 14 0;
#X connect 47 0 14 0;
#X connect 48 0 14 0;
#X connect 49 0 14 0;
#X connect 50 0 14 0;
#X connect 51 0 14 0;
#X connect 53 0 14 0;
#X connect 54 0 38 0;
#X connect 55 0 56 0;
#X connect 56 0 58 0;
#X connect 56 1 59 0;
#X connect 56 2 60 0;
#X connect 56 3 61 0;
#X connect 56 4 62 0;
#X connect 57 0 55 0;
#X connect 58 0 38 0;
#X connect 59 0 39 0;
#X connect 60 0 40 0;
#X connect 61 0 41 0;
#X restore 117 87 pd perc;
#X f 39;
#X obj 23 261 outlet~;
#X obj 118 9 inlet;
#X obj 152 9 inlet;
#X obj 186 9 inlet;
#X obj 220 9 inlet;
#X obj 23 208 *~ 0.5;
#X connect 0 0 12 0;
#X connect 1 0 12 1;
#X connect 2 0 12 2;
#X connect 3 0 12 3;
#X connect 4 0 12 4;
#X connect 5 0 12 5;
#X connect 6 0 12 6;
#X connect 7 0 12 7;
#X connect 8 0 12 8;
#X connect 9 0 12 9;
#X connect 10 0 12 10;
#X connect 11 0 12 11;
#X connect 12 0 52 0;
#X connect 13 0 25 0;
#X connect 14 0 25 1;
#X connect 15 0 25 2;
#X connect 16 0 25 3;
#X connect 17 0 25 4;
#X connect 18 0 25 5;
#X connect 19 0 25 6;
#X connect 20 0 25 7;
#X connect 21 0 25 8;
#X connect 22 0 25 9;
#X connect 23 0 25 10;
#X connect 24 0 25 11;
#X connect 25 0 52 0;
#X connect 26 0 38 0;
#X connect 27 0 38 1;
#X connect 28 0 38 2;
#X connect 29 0 38 3;
#X connect 30 0 38 4;
#X connect 31 0 38 5;
#X connect 32 0 38 6;
#X connect 33 0 38 7;
#X connect 34 0 38 8;
#X connect 35 0 38 9;
#X connect 36 0 38 10;
#X connect 37 0 38 11;
#X connect 38 0 57 0;
#X connect 39 0 51 0;
#X connect 40 0 51 1;
#X connect 41 0 51 2;
#X connect 42 0 51 3;
#X connect 43 0 51 4;
#X connect 44 0 51 5;
#X connect 45 0 51 6;
#X connect 46 0 51 7;
#X connect 47 0 51 8;
#X connect 48 0 51 9;
#X connect 49 0 51 10;
#X connect 50 0 51 11;
#X connect 51 0 52 0;
#X connect 53 0 18 0;
#X connect 54 0 5 0;
#X connect 55 0 26 0;
#X connect 56 0 44 0;
#X connect 57 0 52 0;
#X restore 45 303 pd drums;
#X f 17;
#X obj 45 286 bng 15 250 50 0 empty empty empty 17 7 0 10 -262144 -1
-1;
#X obj 78 286 bng 15 250 50 0 empty empty empty 17 7 0 10 -262144 -1
-1;
#X obj 111 286 bng 15 250 50 0 empty empty empty 17 7 0 10 -262144
-1 -1;
#X obj 144 286 bng 15 250 50 0 empty empty empty 17 7 0 10 -262144
-1 -1;
#X obj 46 326 *~ 0.7;
#X floatatom 305 38 5 0 0 0 - - -;
#X obj 72 10 sel 0;
#X msg 108 11 0;
#X obj 325 152 modcounter;
#X obj 324 173 bng 15 250 50 0 empty empty empty 17 7 0 10 -262144
-1 -1;
#X floatatom 381 132 5 0 0 0 - - -;
#X obj 333 205 modcounter;
#X obj 332 226 bng 15 250 50 0 empty empty empty 17 7 0 10 -262144
-1 -1;
#X floatatom 389 185 5 0 0 0 - - -;
#X obj 330 275 modcounter;
#X obj 329 296 bng 15 250 50 0 empty empty empty 17 7 0 10 -262144
-1 -1;
#X floatatom 386 255 5 0 0 0 - - -;
#X obj 316 333 modcounter;
#X obj 315 354 bng 15 250 50 0 empty empty empty 17 7 0 10 -262144
-1 -1;
#X floatatom 372 313 5 0 0 0 - - -;
#X obj 371 36 list 7 4 9 5;
#X obj 371 14 bng 15 250 50 0 empty empty empty 17 7 0 10 -262144 -1
-1;
#X obj 394 63 unpack 0 0 0 0;
#X obj 449 14 bng 15 250 50 0 empty empty empty 17 7 0 10 -262144 -1
-1;
#X obj 449 36 list 4 4 4 4;
#X obj 527 17 bng 15 250 50 0 empty empty empty 17 7 0 10 -262144 -1
-1;
#X obj 527 39 list 11 12 13 14;
#X obj 441 343 modcounter;
#X obj 440 364 bng 15 250 50 0 empty empty empty 17 7 0 10 -262144
-1 -1;
#X floatatom 497 323 5 0 0 0 - - -;
#X obj 74 173 spigot;
#X obj 91 143 tgl 15 0 empty empty empty 17 7 0 10 -262144 -1 -1 0
1;
#X connect 0 0 2 0;
#X connect 0 1 3 0;
#X connect 0 2 4 0;
#X connect 0 3 5 0;
#X connect 0 4 6 0;
#X connect 0 5 7 0;
#X connect 0 6 8 0;
#X connect 1 0 0 0;
#X connect 1 0 23 0;
#X connect 2 0 31 0;
#X connect 2 0 34 0;
#X connect 3 0 47 0;
#X connect 4 0 25 0;
#X connect 4 0 28 0;
#X connect 4 0 19 0;
#X connect 5 0 18 0;
#X connect 6 0 44 0;
#X connect 7 0 20 0;
#X connect 9 0 13 0;
#X connect 9 1 14 0;
#X connect 10 0 12 0;
#X connect 11 0 10 0;
#X connect 12 0 9 0;
#X connect 16 0 21 0;
#X connect 17 0 16 0;
#X connect 18 0 16 1;
#X connect 19 0 16 2;
#X connect 20 0 16 3;
#X connect 21 0 15 1;
#X connect 21 0 15 0;
#X connect 21 0 11 0;
#X connect 22 0 0 1;
#X connect 23 0 24 0;
#X connect 25 0 26 0;
#X connect 26 0 17 0;
#X connect 27 0 25 1;
#X connect 28 0 29 0;
#X connect 29 0 17 0;
#X connect 30 0 28 1;
#X connect 31 0 32 0;
#X connect 32 0 19 0;
#X connect 33 0 31 1;
#X connect 34 0 35 0;
#X connect 35 0 20 0;
#X connect 36 0 34 1;
#X connect 37 0 39 0;
#X connect 38 0 37 0;
#X connect 39 0 27 0;
#X connect 39 1 30 0;
#X connect 39 2 33 0;
#X connect 39 3 36 0;
#X connect 40 0 41 0;
#X connect 41 0 39 0;
#X connect 42 0 43 0;
#X connect 43 0 39 0;
#X connect 44 0 45 0;
#X connect 45 0 48 0;
#X connect 46 0 44 1;
#X connect 47 0 19 0;
#X connect 48 0 47 1;
